<?xml version="1.0" encoding="UTF-8" standalone="no"?>
<!-- Created with Inkscape (http://www.inkscape.org/) -->

<svg
   version="1.1"
   id="svg1"
   width="398.12668"
   height="296.88666"
   viewBox="0 0 398.12668 296.88666"
   xmlns="http://www.w3.org/2000/svg"
   xmlns:svg="http://www.w3.org/2000/svg">
  <defs
     id="defs1">
    <clipPath
       clipPathUnits="userSpaceOnUse"
       id="clipPath13">
      <path
         d="M -22.24974,-15.2524 H 244.73373 V 152.51477 H -22.24974 Z"
         id="path13" />
    </clipPath>
    <clipPath
       clipPathUnits="userSpaceOnUse"
       id="clipPath15">
      <path
         d="M -22.24974,-15.2524 H 244.73373 V 152.51477 H -22.24974 Z"
         id="path15" />
    </clipPath>
    <clipPath
       clipPathUnits="userSpaceOnUse"
       id="clipPath17">
      <path
         d="M -22.24974,-15.2524 H 244.73373 V 152.51477 H -22.24974 Z"
         id="path17" />
    </clipPath>
  </defs>
  <g
     id="g1">
    <path
       id="path1"
       d="m 0,-19.50429 v 4.25189 m 111.24199,-4.25189 v 4.25189 M 222.484,-19.50429 v 4.25189 M 0,156.76663 v -4.25186 m 111.24199,4.25186 v -4.25186 m 111.24201,4.25186 v -4.25186"
       style="fill:none;stroke:#808080;stroke-width:0.19925;stroke-linecap:butt;stroke-linejoin:miter;stroke-miterlimit:10;stroke-dasharray:none;stroke-opacity:1"
       transform="matrix(1.3333333,0,0,-1.3333333,70.554667,209.152)" />
    <path
       id="path2"
       d="m -22.24974,2.28609 h 4.25236 m -4.25236,32.6584 h 4.25236 m -4.25236,32.65841 h 4.25236 m -4.25236,32.6584 h 4.25236 m -4.25236,32.65842 h 4.25236 M 244.73373,2.28609 h -4.25236 m 4.25236,32.6584 h -4.25236 m 4.25236,32.65841 h -4.25236 m 4.25236,32.6584 h -4.25236 m 4.25236,32.65842 h -4.25236"
       style="fill:none;stroke:#808080;stroke-width:0.19925;stroke-linecap:butt;stroke-linejoin:miter;stroke-miterlimit:10;stroke-dasharray:none;stroke-opacity:1"
       transform="matrix(1.3333333,0,0,-1.3333333,70.554667,209.152)" />
    <path
       id="path3"
       d="M -22.24974,-15.2524 V 152.51477 H 244.73373 V -15.2524 Z"
       style="fill:none;stroke:#000000;stroke-width:0.3985;stroke-linecap:butt;stroke-linejoin:miter;stroke-miterlimit:10;stroke-dasharray:none;stroke-opacity:1"
       transform="matrix(1.3333333,0,0,-1.3333333,70.554667,209.152)" />
    <path
       id="path4"
       d="m 7.1849297,-3.3758672 c 0,-2.0390625 -1.5,-3.6445312 -3.3164063,-3.6445312 -1.78125,0 -3.30468746,1.59375 -3.30468746,3.6445312 0,2.0390625 1.53515626,3.59765626 3.30468746,3.59765626 1.8164063,0 3.3164063,-1.58203126 3.3164063,-3.59765626 z m -1.03125,-0.140625 c 0,2.63671876 -1.359375,3.48046876 -2.2734375,3.48046876 -0.9609375,0 -2.296875,-0.87890625 -2.296875,-3.48046876 0,-2.578125 1.453125,-3.2578125 2.2851562,-3.2578125 0.8671875,0 2.2851563,0.703125 2.2851563,3.2578125 z m 5.2177733,-0.28125 c 0,-0.3164062 -0.304687,-0.609375 -0.726562,-0.609375 -0.7382816,0 -1.0898441,0.6679688 -1.2304691,1.1015625 v -1.1015625 l -1.3828125,0.1171875 v 0.3046875 c 0.6914062,0 0.7734375,0.070312 0.7734375,0.5625 v 2.66015626 c 0,0.45703125 -0.1054688,0.45703125 -0.7734375,0.45703125 V -8.671875e-4 L 9.1683281,-0.03602344 c 0.3984375,0 0.8671879,0 1.2656249,0.0351562525 V -0.30555469 h -0.210937 c -0.7382816,0 -0.7617191,-0.1171875 -0.7617191,-0.46875 V -2.3094609 c 0,-0.984375 0.421875,-1.875 1.1835941,-1.875 0.05859,0 0.08203,0 0.105468,0.011719 -0.03516,0.011719 -0.234375,0.1289063 -0.234375,0.3867188 0,0.28125 0.210938,0.4335937 0.433594,0.4335937 0.175781,0 0.421875,-0.1289062 0.421875,-0.4453128 z M 14.11657,-8.671875e-4 V -0.30555469 c -0.65625,0 -0.703125,-0.0585938 -0.703125,-0.4453125 V -4.4071172 l -1.394531,0.1171875 v 0.3046875 c 0.65625,0 0.738281,0.058594 0.738281,0.5507813 v 2.67187496 c 0,0.45703125 -0.105468,0.45703125 -0.773437,0.45703125 V -8.671875e-4 L 13.08532,-0.03602344 c 0.339844,0 0.691407,0.0234375 1.03125,0.0351562525 z M 13.565789,-6.0125859 c 0,-0.2695313 -0.222656,-0.5273438 -0.527344,-0.5273438 -0.339843,0 -0.539062,0.2695313 -0.539062,0.5273438 0,0.2695312 0.234375,0.5273437 0.527344,0.5273437 0.339843,0 0.539062,-0.28125 0.539062,-0.5273437 z m 5.548828,3.8789062 c 0,-1.2773437 -0.996094,-2.3320312 -2.191406,-2.3320312 -1.253906,0 -2.214844,1.0898437 -2.214844,2.3320312 0,1.28906251 1.03125,2.23828126 2.203125,2.23828126 1.207031,0 2.203125,-0.97265625 2.203125,-2.23828126 z m -0.820312,-0.082031 c 0,0.3632812 0,0.9023437 -0.222657,1.33593746 -0.222656,0.4453125 -0.65625,0.73828125 -1.148437,0.73828125 -0.433594,0 -0.867188,-0.2109375 -1.136719,-0.66796875 C 15.52868,-1.2430547 15.52868,-1.8524297 15.52868,-2.2157109 c 0,-0.3867188 0,-0.9257813 0.246093,-1.359375 0.269532,-0.4570313 0.738282,-0.6679688 1.136719,-0.6679688 0.433594,0 0.867188,0.2226563 1.125,0.6445313 0.257813,0.4335937 0.257813,1.0078125 0.257813,1.3828127 z m 6.445312,2.2148437125 V -0.30555469 c -0.515625,0 -0.773437,0 -0.785156,-0.3046875 V -2.5086797 c 0,-0.8554687 0,-1.171875 -0.304688,-1.5234375 -0.140625,-0.1757812 -0.46875,-0.375 -1.042968,-0.375 -0.726563,0 -1.195313,0.4335938 -1.476563,1.0546875 v -1.0546875 l -1.40625,0.1171875 v 0.3046875 c 0.703125,0 0.785156,0.070312 0.785156,0.5625 v 2.66015626 c 0,0.45703125 -0.117187,0.45703125 -0.785156,0.45703125 v 0.3046875025 l 1.125,-0.0351562525 1.113281,0.0351562525 V -0.30555469 c -0.65625,0 -0.773437,0 -0.773437,-0.45703125 V -2.5907109 c 0,-1.03125 0.714844,-1.59375 1.347656,-1.59375 0.621094,0 0.738281,0.5390625 0.738281,1.1015625 v 2.32031246 c 0,0.45703125 -0.117187,0.45703125 -0.773437,0.45703125 v 0.3046875025 l 1.125,-0.0351562525 z m 0,0"
       style="fill:#000000;fill-opacity:1;fill-rule:nonzero;stroke:none"
       aria-label="Orion"
       transform="matrix(1.3333333,0,0,1.3333333,53.924,249.216)" />
    <path
       id="path5"
       d="m 7.1376172,-6.4914531 v -0.3164063 l -1.171875,0.035156 -1.1601563,-0.035156 v 0.3164063 c 1.0195313,0 1.0195313,0.46875 1.0195313,0.7382812 v 4.2539063 l -3.515625,-5.1796875 c -0.082031,-0.1171875 -0.09375,-0.1289063 -0.28125,-0.1289063 H 0.32902344 v 0.3164063 h 0.29296875 c 0.140625,0 0.33984375,0.011719 0.49218751,0.011719 0.234375,0.035156 0.2460937,0.046875 0.2460937,0.234375 v 5.203125 c 0,0.26953128 0,0.73828128 -1.03124996,0.73828128 V 7.34375e-4 L 1.5008984,-0.03442187 2.6610547,7.34375e-4 V -0.30395312 c -1.03125,0 -1.03125,-0.46875 -1.03125,-0.73828128 v -5.1796875 c 0.058594,0.046875 0.070312,0.058594 0.1054687,0.1171875 l 4.0664063,5.97656253 c 0.082031,0.1171875 0.09375,0.128906245 0.1640625,0.128906245 0.140625,0 0.140625,-0.070312495 0.140625,-0.257812495 V -5.7531719 c 0,-0.2695312 0,-0.7382812 1.03125,-0.7382812 z m 4.4707028,5.3085937 c 0,-0.1054687 -0.08203,-0.1171875 -0.128906,-0.1171875 -0.09375,0 -0.117187,0.058594 -0.128906,0.140625 -0.351563,1.01953128 -1.253906,1.01953128 -1.347656,1.01953128 -0.5039067,0 -0.9023442,-0.29296875 -1.1250004,-0.66796875 C 8.5731641,-1.2883281 8.5731641,-1.9445781 8.5731641,-2.2961406 h 2.7890629 c 0.210937,0 0.246093,0 0.246093,-0.2109375 0,-0.984375 -0.539062,-1.9570313 -1.7812497,-1.9570313 -1.1601562,0 -2.0742187,1.03125 -2.0742187,2.2734375 0,1.33593753 1.0429687,2.29687503 2.1914062,2.29687503 1.2187502,0 1.6640622,-1.1015625 1.6640622,-1.28906253 z M 10.95207,-2.5070781 H 8.5848828 c 0.058594,-1.4882813 0.9023438,-1.734375 1.2421875,-1.734375 1.0195317,0 1.1249997,1.3476562 1.1249997,1.734375 z m 6.134766,0.3515625 c 0,-1.265625 -0.972656,-2.25 -2.109375,-2.25 -0.785156,0 -1.207031,0.46875 -1.371094,0.65625 v -3.1640625 l -1.429687,0.1054687 v 0.3164063 c 0.691406,0 0.773437,0.070312 0.773437,0.5507812 V 7.34375e-4 h 0.246094 l 0.363281,-0.621093745 c 0.152344,0.234375 0.5625,0.7265625 1.300781,0.7265625 1.183594,0 2.226563,-0.97265625 2.226563,-2.26171873 z m -0.832031,0 c 0,0.3632812 -0.01172,0.9609375 -0.304688,1.40624998 -0.210937,0.31640625 -0.585937,0.64453125 -1.125,0.64453125 -0.445312,0 -0.808594,-0.24609375 -1.042969,-0.609375 -0.140625,-0.2109375 -0.140625,-0.24609375 -0.140625,-0.42187503 v -2.0507812 c 0,-0.1875 0,-0.1992188 0.105469,-0.3632813 0.386719,-0.5507812 0.9375,-0.6328125 1.171875,-0.6328125 0.457031,0 0.808594,0.2578125 1.054688,0.6328125 0.257812,0.4101563 0.28125,0.984375 0.28125,1.3945313 z M 22.7675,7.34375e-4 V -0.30395312 c -0.703125,0 -0.785156,-0.0703125 -0.785156,-0.5625 V -4.4055156 l -1.453125,0.1171875 v 0.3046875 c 0.691406,0 0.773437,0.070312 0.773437,0.5625 v 1.7695312 c 0,0.86718753 -0.480468,1.54687503 -1.207031,1.54687503 -0.832031,0 -0.878906,-0.46875 -0.878906,-0.99609373 v -3.3046875 l -1.464844,0.1171875 v 0.3046875 c 0.785156,0 0.785156,0.035156 0.785156,0.9140625 v 1.5 c 0,0.77343748 0,1.67578123 1.511719,1.67578123 0.550781,0 0.996094,-0.26953125 1.277344,-0.890625 v 0.890625 z m 2.748047,0 V -0.30395312 c -0.667969,0 -0.785156,0 -0.785156,-0.45703125 V -6.9133281 l -1.429688,0.1054687 v 0.3164063 c 0.703125,0 0.773438,0.070312 0.773438,0.5507812 v 5.17968753 c 0,0.45703125 -0.105469,0.45703125 -0.773438,0.45703125 V 7.34375e-4 L 24.402266,-0.03442187 Z M 30.560469,-0.88989062 V -1.4406719 h -0.257813 v 0.55078128 c 0,0.5859375 -0.246093,0.64453125 -0.351562,0.64453125 -0.328125,0 -0.375,-0.45703125 -0.375,-0.50390625 V -2.7414531 c 0,-0.4101563 0,-0.8085938 -0.351563,-1.171875 -0.386718,-0.3867188 -0.890625,-0.5507813 -1.371093,-0.5507813 -0.808594,0 -1.5,0.46875 -1.5,1.125 0,0.3046875 0.199218,0.46875 0.457031,0.46875 0.28125,0 0.457031,-0.1992187 0.457031,-0.4570312 0,-0.1171875 -0.04687,-0.4453125 -0.503906,-0.4570313 0.269531,-0.3515625 0.75,-0.4570312 1.078125,-0.4570312 0.480469,0 1.054687,0.3867187 1.054687,1.2773437 v 0.3632813 c -0.515625,0.035156 -1.207031,0.058594 -1.839843,0.3632812 -0.75,0.3398438 -0.996094,0.8554688 -0.996094,1.28906253 0,0.80859375 0.972656,1.0546875 1.59375,1.0546875 0.65625,0 1.113281,-0.3984375 1.3125,-0.8671875 0.03516,0.3984375 0.304687,0.8203125 0.773437,0.8203125 0.210938,0 0.820313,-0.140625 0.820313,-0.94921875 z M 28.896406,-1.3937969 c 0,0.94921878 -0.726562,1.28906253 -1.171875,1.28906253 -0.480468,0 -0.890625,-0.3515625 -0.890625,-0.85546875 0,-0.53906248 0.410157,-1.37109378 2.0625,-1.42968748 z m 0,0"
       style="fill:#000000;fill-opacity:1;fill-rule:nonzero;stroke:none"
       aria-label="Nebula"
       transform="matrix(1.3333333,0,0,1.3333333,198.39333,249.06933)" />
    <path
       id="path6"
       d="m 6.21125,-4.9445781 c 0,-0.984375 -0.984375,-1.8632813 -2.34375,-1.8632813 H 0.351875 v 0.3164063 H 0.58625 c 0.7734375,0 0.7851563,0.1054687 0.7851563,0.46875 v 5.24999998 c 0,0.3515625 -0.011719,0.46875 -0.7851563,0.46875 H 0.351875 V 7.34375e-4 C 0.7034375,-0.03442187 1.43,-0.03442187 1.8167188,-0.03442187 c 0.375,0 1.125,0 1.4765625,0.035156245 V -0.30395312 H 3.0471875 c -0.7617187,0 -0.7851562,-0.1171875 -0.7851562,-0.46875 V -3.1516094 h 1.6875 c 1.1953125,0 2.2617187,-0.796875 2.2617187,-1.7929687 z m -1.0195312,0 c 0,0.4570312 0,1.5351562 -1.5820313,1.5351562 H 2.226875 v -2.6835937 c 0,-0.328125 0.023437,-0.3984375 0.4921875,-0.3984375 h 0.890625 c 1.5820313,0 1.5820313,1.0546875 1.5820313,1.546875 z M 12.1175,7.34375e-4 V -0.30395312 c -0.703125,0 -0.785156,-0.0703125 -0.785156,-0.5625 V -4.4055156 l -1.4531252,0.1171875 v 0.3046875 c 0.6914062,0 0.7734372,0.070312 0.7734372,0.5625 v 1.7695312 c 0,0.86718753 -0.480468,1.54687503 -1.207031,1.54687503 -0.8320312,0 -0.8789062,-0.46875 -0.8789062,-0.99609373 V -4.4055156 L 7.101875,-4.2883281 v 0.3046875 c 0.7851563,0 0.7851563,0.035156 0.7851563,0.9140625 v 1.5 c 0,0.77343748 0,1.67578123 1.5117187,1.67578123 0.5507813,0 0.996094,-0.26953125 1.277344,-0.890625 v 0.890625 z m 2.748047,0 V -0.30395312 c -0.667969,0 -0.785156,0 -0.785156,-0.45703125 V -6.9133281 l -1.429688,0.1054687 v 0.3164063 c 0.703125,0 0.773438,0.070312 0.773438,0.5507812 v 5.17968753 c 0,0.45703125 -0.105469,0.45703125 -0.773438,0.45703125 V 7.34375e-4 L 13.752266,-0.03442187 Z M 18.68,-1.2766094 c 0,-0.5273437 -0.292969,-0.8203125 -0.421875,-0.9492187 -0.328125,-0.3164063 -0.714844,-0.3984375 -1.136719,-0.46875 -0.550781,-0.1171875 -1.21875,-0.2460938 -1.21875,-0.8203125 0,-0.3515625 0.257813,-0.7617188 1.113282,-0.7617188 1.101562,0 1.148437,0.9023438 1.171875,1.2070313 0,0.09375 0.117187,0.09375 0.117187,0.09375 0.128906,0 0.128906,-0.046875 0.128906,-0.2460938 v -0.9960937 c 0,-0.1757813 0,-0.2460938 -0.117187,-0.2460938 -0.04687,0 -0.07031,0 -0.199219,0.1171875 -0.02344,0.046875 -0.128906,0.1289063 -0.164062,0.1640625 -0.375,-0.28125 -0.785157,-0.28125 -0.9375,-0.28125 -1.21875,0 -1.59375,0.6679688 -1.59375,1.2304688 0,0.3398437 0.164062,0.6210937 0.433593,0.84375 0.316407,0.2578125 0.597657,0.3164062 1.3125,0.4570312 0.222657,0.035156 1.03125,0.1992188 1.03125,0.9140625 0,0.51562503 -0.351562,0.91406253 -1.125,0.91406253 -0.832031,0 -1.195312,-0.57421875 -1.382812,-1.41796873 -0.03516,-0.1289063 -0.03516,-0.1757813 -0.140625,-0.1757813 -0.128906,0 -0.128906,0.070312 -0.128906,0.2578125 v 1.31250003 c 0,0.1640625 0,0.234375 0.105468,0.234375 0.05859,0 0.07031,0 0.257813,-0.19921875 0.01172,-0.01171875 0.01172,-0.03515625 0.199219,-0.22265625 0.433593,0.421875 0.878906,0.421875 1.089843,0.421875 1.148438,0 1.605469,-0.66796875 1.605469,-1.38281253 z m 5.15625,0.38671878 V -1.4406719 h -0.257812 v 0.55078128 c 0,0.5859375 -0.246094,0.64453125 -0.351563,0.64453125 -0.328125,0 -0.375,-0.45703125 -0.375,-0.50390625 V -2.7414531 c 0,-0.4101563 0,-0.8085938 -0.351562,-1.171875 -0.386719,-0.3867188 -0.890625,-0.5507813 -1.371094,-0.5507813 -0.808594,0 -1.5,0.46875 -1.5,1.125 0,0.3046875 0.199219,0.46875 0.457031,0.46875 0.28125,0 0.457031,-0.1992187 0.457031,-0.4570312 0,-0.1171875 -0.04687,-0.4453125 -0.503906,-0.4570313 0.269531,-0.3515625 0.75,-0.4570312 1.078125,-0.4570312 0.480469,0 1.054688,0.3867187 1.054688,1.2773437 v 0.3632813 c -0.515625,0.035156 -1.207032,0.058594 -1.839844,0.3632812 -0.75,0.3398438 -0.996094,0.8554688 -0.996094,1.28906253 0,0.80859375 0.972656,1.0546875 1.59375,1.0546875 0.65625,0 1.113281,-0.3984375 1.3125,-0.8671875 0.03516,0.3984375 0.304688,0.8203125 0.773438,0.8203125 0.210937,0 0.820312,-0.140625 0.820312,-0.94921875 z M 22.172188,-1.3937969 c 0,0.94921878 -0.726563,1.28906253 -1.171875,1.28906253 -0.480469,0 -0.890625,-0.3515625 -0.890625,-0.85546875 0,-0.53906248 0.410156,-1.37109378 2.0625,-1.42968748 z m 5.449218,-2.4023437 c 0,-0.3164063 -0.304687,-0.609375 -0.726562,-0.609375 -0.738281,0 -1.089844,0.6679687 -1.230469,1.1015625 v -1.1015625 l -1.382812,0.1171875 v 0.3046875 c 0.691406,0 0.773437,0.070312 0.773437,0.5625 v 2.66015623 c 0,0.45703125 -0.105469,0.45703125 -0.773437,0.45703125 V 7.34375e-4 l 1.136718,-0.035156245 c 0.398438,0 0.867188,0 1.265625,0.035156245 V -0.30395312 h -0.210937 c -0.738281,0 -0.761719,-0.1171875 -0.761719,-0.46875 V -2.3078594 c 0,-0.984375 0.421875,-1.875 1.183594,-1.875 0.05859,0 0.08203,0 0.105469,0.011719 -0.03516,0.011719 -0.234375,0.1289062 -0.234375,0.3867187 0,0.28125 0.210937,0.4335938 0.433593,0.4335938 0.175782,0 0.421875,-0.1289063 0.421875,-0.4453127 z m 0,0"
       style="fill:#000000;fill-opacity:1;fill-rule:nonzero;stroke:none"
       aria-label="Pulsar"
       transform="matrix(1.3333333,0,0,1.3333333,348.59333,249.06933)" />
    <path
       id="path7"
       d="M 1.2642422,-0.76260938 2.3189297,-1.7938594 c 1.5585937,-1.3710937 2.15625,-1.9101562 2.15625,-2.90625 0,-1.1367187 -0.9023438,-1.9335937 -2.1210938,-1.9335937 -1.125,0 -1.85156246,0.9140625 -1.85156246,1.8046875 0,0.5507812 0.4921875,0.5507812 0.52734376,0.5507812 0.1640625,0 0.515625,-0.1171875 0.515625,-0.5273437 0,-0.2578125 -0.1875,-0.515625 -0.5273438,-0.515625 -0.0820312,0 -0.10546871,0 -0.12890621,0.011719 0.22265621,-0.6445312 0.76171871,-1.0195312 1.33593751,-1.0195312 0.9140625,0 1.3359375,0.8085937 1.3359375,1.6289062 0,0.796875 -0.4921875,1.5820313 -1.0429688,2.203125 L 0.60799219,-0.36417188 C 0.50252344,-0.25870313 0.50252344,-0.23526563 0.50252344,-8.90625e-4 H 4.1939297 L 4.4751797,-1.7352656 H 4.2173672 c -0.046875,0.3046875 -0.1171875,0.73828122 -0.2109375,0.89062497 -0.070312,0.0820313 -0.7265625,0.0820313 -0.9492188,0.0820313 z M 9.5640469,-3.1883906 c 0,-0.796875 -0.046875,-1.59375 -0.3984375,-2.3320313 -0.4570313,-0.9609375 -1.2773438,-1.1132812 -1.6875,-1.1132812 -0.5976563,0 -1.3359375,0.2578125 -1.734375,1.1835937 -0.328125,0.6914063 -0.375,1.4648438 -0.375,2.2617188 0,0.75 0.046875,1.640625 0.4453125,2.40234372 0.4335937,0.80859375 1.1601562,1.0078125 1.6523437,1.0078125 0.5390625,0 1.2890625,-0.2109375 1.734375,-1.16015625 C 9.5171719,-1.6297969 9.5640469,-2.4032344 9.5640469,-3.1883906 Z M 7.4663906,-8.90625e-4 c -0.3867187,0 -0.984375,-0.246093755 -1.1601562,-1.207031275 -0.1054688,-0.5976562 -0.1054688,-1.5117187 -0.1054688,-2.0976562 0,-0.6445313 0,-1.3007813 0.082031,-1.8398438 0.1875,-1.1835937 0.9257812,-1.265625 1.1835937,-1.265625 0.328125,0 0.984375,0.1757813 1.171875,1.1601563 0.09375,0.5625 0.09375,1.3125 0.09375,1.9453125 0,0.75 0,1.4179687 -0.1054687,2.0625 -0.1523438,0.93749997 -0.7148438,1.242187475 -1.160156,1.242187475 z m 0,0"
       style="fill:#000000;fill-opacity:1;fill-rule:nonzero;stroke:none"
       aria-label="20"
       transform="matrix(1.3333333,0,0,1.3333333,22.912,210.384)" />
    <path
       id="path8"
       d="M 1.2642422,-0.76183594 2.3189297,-1.7930859 c 1.5585937,-1.3710938 2.15625,-1.9101563 2.15625,-2.90625 0,-1.1367188 -0.9023438,-1.9335938 -2.1210938,-1.9335938 -1.125,0 -1.85156246,0.9140625 -1.85156246,1.8046875 0,0.5507813 0.4921875,0.5507813 0.52734376,0.5507813 0.1640625,0 0.515625,-0.1171875 0.515625,-0.5273438 0,-0.2578125 -0.1875,-0.515625 -0.5273438,-0.515625 -0.0820312,0 -0.10546871,0 -0.12890621,0.011719 C 1.1118984,-5.953242 1.6509609,-6.328242 2.2251797,-6.328242 c 0.9140625,0 1.3359375,0.8085938 1.3359375,1.6289063 0,0.796875 -0.4921875,1.5820312 -1.0429688,2.203125 L 0.60799219,-0.36339844 C 0.50252344,-0.25792969 0.50252344,-0.23449219 0.50252344,-1.171875e-4 H 4.1939297 L 4.4751797,-1.7344922 H 4.2173672 c -0.046875,0.3046875 -0.1171875,0.73828126 -0.2109375,0.89062501 -0.070312,0.0820313 -0.7265625,0.0820313 -0.9492188,0.0820313 z M 9.4585781,-2.0040234 c 0,-1.1835938 -0.8203125,-2.1796875 -1.8984375,-2.1796875 -0.4804687,0 -0.9023437,0.1640625 -1.265625,0.5039062 v -1.9335937 c 0.1992188,0.058594 0.5273438,0.1289062 0.84375,0.1289062 1.2304688,0 1.9335938,-0.9140625 1.9335938,-1.0429687 0,-0.058594 -0.035156,-0.1054688 -0.1054688,-0.1054688 -0.011719,0 -0.035156,0 -0.082031,0.023437 -0.1992188,0.09375 -0.6796875,0.2929688 -1.3476563,0.2929688 -0.3984375,0 -0.8554687,-0.070312 -1.3242187,-0.28125 -0.082031,-0.023437 -0.1054688,-0.023437 -0.1289063,-0.023437 -0.09375,0 -0.09375,0.082031 -0.09375,0.234375 v 2.953125 c 0,0.1757812 0,0.2578125 0.140625,0.2578125 0.070312,0 0.082031,-0.035156 0.1289063,-0.09375 0.1054687,-0.1523438 0.4804687,-0.6914063 1.2773437,-0.6914063 0.5273438,0 0.7734375,0.4570313 0.8554688,0.6328125 0.1523437,0.375 0.1757812,0.7617188 0.1757812,1.2539063 0,0.3515625 0,0.9492187 -0.234375,1.37109371 -0.2460937,0.38671875 -0.609375,0.64453125 -1.0664062,0.64453125 -0.7265625,0 -1.3007813,-0.52734375 -1.4648438,-1.11328126 0.023437,0.011719 0.058594,0.011719 0.1640625,0.011719 0.328125,0 0.5039063,-0.2460938 0.5039063,-0.4804688 0,-0.2460937 -0.1757813,-0.4921875 -0.5039063,-0.4921875 -0.140625,0 -0.4804687,0.070312 -0.4804687,0.5273438 0,0.85546871 0.6796875,1.82812496 1.7929687,1.82812496 1.1601563,0 2.1796875,-0.9609375 2.1796873,-2.22656266 z m 0,0"
       style="fill:#000000;fill-opacity:1;fill-rule:nonzero;stroke:none"
       aria-label="25"
       transform="matrix(1.3333333,0,0,1.3333333,22.912,166.84)" />
    <path
       id="path9"
       d="m 2.8931484,-3.50325 c 0.8085938,-0.2695313 1.3945313,-0.9726563 1.3945313,-1.7578125 0,-0.8203125 -0.8789063,-1.3710938 -1.8398438,-1.3710938 -1.0078125,0 -1.75781246,0.5976563 -1.75781246,1.3476563 0,0.3398437 0.2109375,0.5273437 0.50390626,0.5273437 0.3046875,0 0.5039062,-0.2226562 0.5039062,-0.515625 0,-0.4921875 -0.46875,-0.4921875 -0.609375,-0.4921875 0.3046875,-0.4921875 0.9609375,-0.6210937 1.3242188,-0.6210937 0.4101562,0 0.9492187,0.2226562 0.9492187,1.1132812 0,0.1289063 -0.011719,0.703125 -0.2695312,1.1367188 -0.3046875,0.4804687 -0.6445313,0.515625 -0.890625,0.515625 -0.082031,0.011719 -0.3164063,0.035156 -0.3867188,0.035156 -0.082031,0.011719 -0.1523437,0.023437 -0.1523437,0.1171875 0,0.1171875 0.070312,0.1171875 0.234375,0.1171875 h 0.4453125 c 0.8085937,0 1.1835937,0.6679688 1.1835937,1.6523438 0,1.34765625 -0.6914062,1.640625 -1.125,1.640625 -0.4335937,0 -1.171875,-0.17578125 -1.52343746,-0.76171875 0.35156246,0.0585938 0.65624996,-0.1640625 0.65624996,-0.53906255 0,-0.3632812 -0.2695312,-0.5625 -0.56249996,-0.5625 -0.234375,0 -0.55078125,0.140625 -0.55078125,0.5742188 0,0.9140625 0.92578121,1.5703125 2.00390621,1.5703125 1.21875,0 2.1210938,-0.9140625 2.1210938,-1.921875 0,-0.8203125 -0.6210938,-1.59375 -1.6523438,-1.8046873 z m 6.6708985,0.3164062 c 0,-0.796875 -0.046875,-1.59375 -0.3984375,-2.3320312 -0.4570313,-0.9609375 -1.2773438,-1.1132813 -1.6875,-1.1132813 -0.5976563,0 -1.3359375,0.2578125 -1.734375,1.1835938 -0.328125,0.6914062 -0.375,1.4648437 -0.375,2.2617187 0,0.75 0.046875,1.640625 0.4453125,2.4023438 0.4335937,0.80859375 1.1601562,1.0078125 1.6523437,1.0078125 0.5390625,0 1.2890625,-0.2109375 1.734375,-1.16015625 C 9.5171719,-1.62825 9.5640469,-2.4016875 9.5640469,-3.1868438 Z M 7.4663906,6.5625e-4 c -0.3867187,0 -0.984375,-0.24609375 -1.1601562,-1.20703125 -0.1054688,-0.5976563 -0.1054688,-1.5117188 -0.1054688,-2.0976563 0,-0.6445312 0,-1.3007812 0.082031,-1.8398437 0.1875,-1.1835938 0.9257812,-1.265625 1.1835937,-1.265625 0.328125,0 0.984375,0.1757812 1.171875,1.1601562 0.09375,0.5625 0.09375,1.3125 0.09375,1.9453125 0,0.75 0,1.4179688 -0.1054687,2.0625 C 8.4742031,-0.30403125 7.9117031,6.5625e-4 7.4663906,6.5625e-4 Z m 0,0"
       style="fill:#000000;fill-opacity:1;fill-rule:nonzero;stroke:none"
       aria-label="30"
       transform="matrix(1.3333333,0,0,1.3333333,22.912,123.296)" />
    <path
       id="path10"
       d="m 2.8931484,-3.5024766 c 0.8085938,-0.2695312 1.3945313,-0.9726562 1.3945313,-1.7578125 0,-0.8203125 -0.8789063,-1.3710937 -1.8398438,-1.3710937 -1.0078125,0 -1.75781246,0.5976562 -1.75781246,1.3476562 0,0.3398438 0.2109375,0.5273438 0.50390626,0.5273438 0.3046875,0 0.5039062,-0.2226563 0.5039062,-0.515625 0,-0.4921875 -0.46875,-0.4921875 -0.609375,-0.4921875 0.3046875,-0.4921875 0.9609375,-0.6210938 1.3242188,-0.6210938 0.4101562,0 0.9492187,0.2226563 0.9492187,1.1132813 0,0.1289062 -0.011719,0.703125 -0.2695312,1.1367187 -0.3046875,0.4804688 -0.6445313,0.515625 -0.890625,0.515625 -0.082031,0.011719 -0.3164063,0.035156 -0.3867188,0.035156 -0.082031,0.011719 -0.1523437,0.023437 -0.1523437,0.1171875 0,0.1171875 0.070312,0.1171875 0.234375,0.1171875 h 0.4453125 c 0.8085937,0 1.1835937,0.6679687 1.1835937,1.6523437 0,1.34765629 -0.6914062,1.64062504 -1.125,1.64062504 -0.4335937,0 -1.171875,-0.17578125 -1.52343746,-0.76171875 0.35156246,0.0585938 0.65624996,-0.1640625 0.65624996,-0.53906249 0,-0.3632813 -0.2695312,-0.5625 -0.56249996,-0.5625 -0.234375,0 -0.55078125,0.140625 -0.55078125,0.5742187 0,0.91406254 0.92578121,1.57031254 2.00390621,1.57031254 1.21875,0 2.1210938,-0.9140625 2.1210938,-1.92187504 0,-0.8203125 -0.6210938,-1.59375 -1.6523438,-1.8046872 z m 6.5654297,1.5 c 0,-1.1835937 -0.8203125,-2.1796875 -1.8984375,-2.1796875 -0.4804687,0 -0.9023437,0.1640625 -1.265625,0.5039063 v -1.9335938 c 0.1992188,0.058594 0.5273438,0.1289063 0.84375,0.1289063 1.2304688,0 1.9335938,-0.9140625 1.9335938,-1.0429688 0,-0.058594 -0.035156,-0.1054687 -0.1054688,-0.1054687 -0.011719,0 -0.035156,0 -0.082031,0.023437 -0.1992188,0.09375 -0.6796875,0.2929687 -1.3476563,0.2929687 -0.3984375,0 -0.8554687,-0.070312 -1.3242187,-0.28125 -0.082031,-0.023437 -0.1054688,-0.023437 -0.1289063,-0.023437 -0.09375,0 -0.09375,0.082031 -0.09375,0.234375 v 2.953125 c 0,0.1757813 0,0.2578125 0.140625,0.2578125 0.070312,0 0.082031,-0.035156 0.1289063,-0.09375 0.1054687,-0.1523437 0.4804687,-0.6914062 1.2773437,-0.6914062 0.5273438,0 0.7734375,0.4570312 0.8554688,0.6328125 0.1523437,0.375 0.1757812,0.7617187 0.1757812,1.2539062 0,0.3515625 0,0.9492188 -0.234375,1.37109379 -0.2460937,0.38671875 -0.609375,0.64453125 -1.0664062,0.64453125 -0.7265625,0 -1.3007813,-0.52734375 -1.4648438,-1.11328124 0.023437,0.011719 0.058594,0.011719 0.1640625,0.011719 0.328125,0 0.5039063,-0.2460937 0.5039063,-0.4804687 0,-0.2460938 -0.1757813,-0.4921875 -0.5039063,-0.4921875 -0.140625,0 -0.4804687,0.070312 -0.4804687,0.5273437 0,0.85546879 0.6796875,1.82812504 1.7929687,1.82812504 1.1601563,0 2.1796875,-0.9609375 2.1796873,-2.22656284 z m 0,0"
       style="fill:#000000;fill-opacity:1;fill-rule:nonzero;stroke:none"
       aria-label="35"
       transform="matrix(1.3333333,0,0,1.3333333,22.912,79.752)" />
    <path
       id="path11"
       d="m 2.9283047,-1.6413516 v 0.86718754 c 0,0.3515625 -0.023437,0.46875 -0.7617188,0.46875 H 1.9556484 V -7.265625e-4 C 2.3658047,-0.03588281 2.8931484,-0.03588281 3.3033047,-0.03588281 c 0.421875,0 0.9492187,0 1.359375,0.0351562475 V -0.30541406 H 4.4517422 c -0.7382813,0 -0.7617188,-0.1171875 -0.7617188,-0.46875 V -1.6413516 H 4.6861172 V -1.9577578 H 3.6900234 v -4.5234375 c 0,-0.1992188 0,-0.2578125 -0.1523437,-0.2578125 -0.09375,0 -0.1171875,0 -0.1992188,0.1171875 l -3.05859371,4.6640625 v 0.3164062 z m 0.058594,-0.3164062 H 0.56111719 L 2.9868984,-5.6726016 Z m 6.5771485,-1.2304688 c 0,-0.796875 -0.046875,-1.59375 -0.3984375,-2.3320312 -0.4570313,-0.9609375 -1.2773438,-1.1132813 -1.6875,-1.1132813 -0.5976563,0 -1.3359375,0.2578125 -1.734375,1.1835938 -0.328125,0.6914062 -0.375,1.4648437 -0.375,2.2617187 0,0.75 0.046875,1.640625 0.4453125,2.40234379 0.4335937,0.80859375 1.1601562,1.0078125 1.6523437,1.0078125 0.5390625,0 1.2890625,-0.2109375 1.734375,-1.16015625 0.316406,-0.69140624 0.363281,-1.46484374 0.3632813,-2.25000004 z M 7.4663906,-7.265625e-4 c -0.3867187,0 -0.984375,-0.2460937475 -1.1601562,-1.2070312375 -0.1054688,-0.5976563 -0.1054688,-1.5117188 -0.1054688,-2.0976563 0,-0.6445312 0,-1.3007812 0.082031,-1.8398437 0.1875,-1.1835938 0.9257812,-1.265625 1.1835937,-1.265625 0.328125,0 0.984375,0.1757812 1.171875,1.1601562 0.09375,0.5625 0.09375,1.3125 0.09375,1.9453125 0,0.75 0,1.4179688 -0.1054687,2.0625 -0.1523438,0.93750004 -0.7148438,1.2421875375 -1.160156,1.2421875375 z m 0,0"
       style="fill:#000000;fill-opacity:1;fill-rule:nonzero;stroke:none"
       aria-label="40"
       transform="matrix(1.3333333,0,0,1.3333333,22.912,36.208)" />
    <path
       id="path12"
       d="m -16.9367,-15.2524 h 9.96277 v 136.87231 h -9.96277 z m 111.24198,0 h 9.96277 V 64.533 h -9.96277 z m 111.24201,0 h 9.96277 v 37.98264 h -9.96277 z"
       style="fill:#b3b3ff;fill-opacity:1;fill-rule:nonzero;stroke:#0000ff;stroke-width:0.3985;stroke-linecap:butt;stroke-linejoin:miter;stroke-miterlimit:10;stroke-dasharray:none;stroke-opacity:1"
       transform="matrix(1.3333333,0,0,-1.3333333,70.554667,209.152)"
       clip-path="url(#clipPath13)" />
    <path
       id="path14"
       d="m -4.98138,-15.2524 h 9.96277 v 119.10614 h -9.96277 z m 111.24198,0 h 9.96277 v 57.12047 h -9.96277 z m 111.24201,0 h 9.96277 V 9.60156 h -9.96277 z"
       style="fill:#ffb3b3;fill-opacity:1;fill-rule:nonzero;stroke:#ff0000;stroke-width:0.3985;stroke-linecap:butt;stroke-linejoin:miter;stroke-miterlimit:10;stroke-dasharray:none;stroke-opacity:1"
       transform="matrix(1.3333333,0,0,-1.3333333,70.554667,209.152)"
       clip-path="url(#clipPath15)" />
    <path
       id="path16"
       d="m 6.97394,-15.2524 h 9.96277 V 106.72767 H 6.97394 Z m 111.24199,0 h 9.96277 v 54.57312 h -9.96277 z m 111.242,0 h 9.96277 V 0 h -9.96277 z"
       style="fill:#ecd9c6;fill-opacity:1;fill-rule:nonzero;stroke:#734c26;stroke-width:0.3985;stroke-linecap:butt;stroke-linejoin:miter;stroke-miterlimit:10;stroke-dasharray:none;stroke-opacity:1"
       transform="matrix(1.3333333,0,0,-1.3333333,70.554667,209.152)"
       clip-path="url(#clipPath17)" />
    <path
       id="path18"
       d="m 1.6397109,-1.6527578 c 0.4570313,0 0.7617188,0.2929687 0.7617188,0.78515624 0,0.50390625 -0.3046875,0.7734375 -0.75,0.7734375 -0.058594,0 -0.65625001,0 -0.90234376,-0.2578125 0.19921875,-0.0351563 0.25781246,-0.1875 0.25781246,-0.3046875 0,-0.1875 -0.14062496,-0.3046875 -0.30468746,-0.3046875 -0.15234375,0 -0.3046875,0.10546875 -0.3046875,0.31640625 0,0.515625 0.5859375,0.75 1.26562496,0.75 0.8203125,0 1.3242188,-0.4921875 1.3242188,-0.97265625 0,-0.41015624 -0.3632813,-0.76171874 -0.9257813,-0.89062504 0.5976563,-0.1875 0.75,-0.5625 0.75,-0.84375 0,-0.4101562 -0.5039062,-0.7148437 -1.1367187,-0.7148437 -0.609375,0 -1.10156251,0.2578125 -1.10156251,0.703125 0,0.234375 0.1875,0.2929687 0.28125,0.2929687 0.140625,0 0.28125001,-0.1054687 0.28125001,-0.28125 0,-0.1171875 -0.058594,-0.2578125 -0.23437501,-0.28125 0.21093751,-0.234375 0.65625001,-0.2460937 0.76171871,-0.2460937 0.3632813,0 0.6210938,0.1875 0.6210938,0.5273437 0,0.28125 -0.1875,0.7382813 -0.7148438,0.7734375 -0.140625,0 -0.1523437,0 -0.28125,0.011719 -0.058594,0 -0.1171875,0.011719 -0.1171875,0.082031 0,0.082031 0.058594,0.082031 0.140625,0.082031 z m 3.8847657,-0.140625 c 0.515625,-0.2226563 0.6796875,-0.4804688 0.6796875,-0.7617188 0,-0.5273437 -0.5742188,-0.7617187 -1.1132813,-0.7617187 -0.6210937,0 -1.125,0.3515625 -1.125,0.84375 0,0.4570312 0.3867188,0.6679687 0.65625,0.796875 -0.5273437,0.2109375 -0.8320312,0.5039062 -0.8320312,0.91406249 0,0.59765625 0.6679687,0.8671875 1.2890625,0.8671875 0.703125,0 1.3007812,-0.375 1.3007812,-0.9609375 0,-0.53906249 -0.515625,-0.79687499 -0.8554687,-0.93749999 z m -0.9726563,-0.515625 c -0.2109375,-0.1054688 -0.28125,-0.234375 -0.28125,-0.3515625 0,-0.328125 0.4101563,-0.46875 0.8085938,-0.46875 0.3984375,0 0.8203125,0.1992187 0.8203125,0.5742187 0,0.4335938 -0.5742188,0.6445313 -0.5742188,0.6445313 -0.011719,0 -0.011719,0 -0.058594,-0.023437 z m 0.28125,0.75 0.7734375,0.3867187 c 0.1757813,0.09375 0.4335938,0.23437504 0.4335938,0.50390629 0,0.3984375 -0.5039063,0.57421875 -0.9492188,0.57421875 -0.4570312,0 -0.9609375,-0.22265625 -0.9609375,-0.6796875 0,-0.49218754 0.5390625,-0.72656254 0.703125,-0.78515624 z m 0,0"
       style="fill:#0000ff;fill-opacity:1;fill-rule:nonzero;stroke:none"
       aria-label="38"
       transform="matrix(1.3333333,0,0,1.3333333,44.052,42.301333)" />
    <path
       id="path19"
       d="m 1.4417188,-0.30510156 c 0,-0.1640625 -0.140625,-0.3046875 -0.3046875,-0.3046875 -0.16406255,0 -0.30468755,0.140625 -0.30468755,0.3046875 0,0.1640625 0.140625,0.3046874975 0.30468755,0.3046874975 0.1640625,0 0.3046875,-0.1406249975 0.3046875,-0.3046874975 z m 0,0"
       style="fill:#0000ff;fill-opacity:1;fill-rule:nonzero;stroke:none"
       aria-label="."
       transform="matrix(1.3333333,0,0,1.3333333,53.093333,42.301333)" />
    <path
       id="path20"
       d="M 2.9292266,-0.96135156 H 2.7182891 c -0.011719,0.09375 -0.058594,0.3984375 -0.140625,0.45703125 -0.035156,0.0234375 -0.4570313,0.0234375 -0.5273438,0.0234375 h -0.984375 c 0.328125,-0.24609375 0.703125,-0.515625 0.9960938,-0.71484379 0.4570312,-0.3164062 0.8671875,-0.5976562 0.8671875,-1.125 0,-0.6445312 -0.5976563,-0.9960937 -1.3125,-0.9960937 -0.66796879,0 -1.16015629,0.3867187 -1.16015629,0.8789062 0,0.2578125 0.2109375,0.3046875 0.28125,0.3046875 0.140625,0 0.29296879,-0.09375 0.29296879,-0.2929687 0,-0.1875 -0.12890629,-0.28125 -0.28125004,-0.2929688 0.140625,-0.234375 0.43359374,-0.375 0.76171874,-0.375 0.4804688,0 0.890625,0.28125 0.890625,0.7734375 0,0.421875 -0.2929687,0.7382813 -0.6796875,1.0546875 l -1.20703124,1.03125004 c -0.046875,0.046875 -0.0585938,0.046875 -0.0585938,0.0820313 V -4.140625e-4 H 2.7651641 Z M 6.506375,-2.9886953 c 0.035156,-0.046875 0.035156,-0.058594 0.046875,-0.082031 v -0.140625 H 5.3462188 c -0.1289063,0 -0.8554688,-0.011719 -0.9492188,-0.035156 -0.1054687,-0.023437 -0.1171875,-0.070312 -0.1289062,-0.1171875 H 4.0571563 l -0.1875,1.1132812 h 0.2109375 c 0.011719,-0.070312 0.070312,-0.3984375 0.1523437,-0.4453125 0.023437,-0.023437 0.4921875,-0.035156 0.5742188,-0.035156 H 5.99075 c -0.2109375,0.2460937 -0.4804687,0.515625 -0.6796875,0.7617187 -0.5859375,0.75 -0.65625,1.46484379 -0.65625,1.76953129 0,0.28125 0.1640625,0.3046875 0.2578125,0.3046875 0.2695313,0 0.2695313,-0.24609375 0.2695313,-0.3046875 v -0.10546875 c 0,-0.89062504 0.1875,-1.42968754 0.4804687,-1.75781254 z m 0,0"
       style="fill:#0000ff;fill-opacity:1;fill-rule:nonzero;stroke:none"
       aria-label="27"
       transform="matrix(1.3333333,0,0,1.3333333,56.137333,42.301333)" />
    <path
       id="path21"
       d="M 2.9309375,-0.96239062 H 2.72 c -0.011719,0.09375 -0.058594,0.3984375 -0.140625,0.45703125 -0.035156,0.0234375 -0.4570313,0.0234375 -0.5273438,0.0234375 h -0.984375 c 0.328125,-0.24609375 0.703125,-0.515625 0.9960938,-0.71484373 0.4570312,-0.3164063 0.8671875,-0.5976563 0.8671875,-1.125 0,-0.6445313 -0.5976563,-0.9960938 -1.3125,-0.9960938 -0.66796875,0 -1.16015625,0.3867188 -1.16015625,0.8789063 0,0.2578125 0.2109375,0.3046875 0.28125,0.3046875 0.140625,0 0.29296875,-0.09375 0.29296875,-0.2929688 0,-0.1875 -0.12890625,-0.28125 -0.28125,-0.2929687 0.140625,-0.234375 0.4335937,-0.375 0.7617187,-0.375 0.4804688,0 0.890625,0.28125 0.890625,0.7734375 0,0.421875 -0.2929687,0.7382812 -0.6796875,1.0546875 L 0.516875,-0.23582812 c -0.046875,0.046875 -0.0585938,0.046875 -0.0585938,0.0820313 v 0.15234375 H 2.766875 Z M 5.8518359,-1.5834844 c 0,0.3164063 -0.023437,0.69140628 -0.1875,0.98437503 -0.1640625,0.29296875 -0.4570312,0.50390625 -0.8671875,0.50390625 -0.046875,0 -0.3515625,0 -0.5273437,-0.1171875 0.1289062,-0.0351563 0.1992187,-0.12890625 0.1992187,-0.2578125 0,-0.1640625 -0.1171875,-0.26953125 -0.2578125,-0.26953125 -0.09375,0 -0.2695312,0.046875 -0.2695312,0.28125 0,0.5625 0.7382812,0.5625 0.8671875,0.5625 0.84375,0 1.5703125,-0.703125 1.5703125,-1.73437503 0,-1.2070312 -0.5859375,-1.6875 -1.2773438,-1.6875 -0.4921875,0 -0.7382812,0.1757813 -0.9375,0.3398438 -0.3046875,0.2578125 -0.375,0.5273437 -0.375,0.7851562 0,0.28125 0.082031,0.5390625 0.3515625,0.7734375 0.234375,0.2109375 0.46875,0.3398438 0.890625,0.3398438 0.1992188,0 0.5625,-0.070312 0.8203125,-0.5039063 z m -0.8085937,0.328125 c -0.1992188,0 -0.3867188,-0.035156 -0.5742188,-0.2578125 -0.1523437,-0.1875 -0.1523437,-0.3867187 -0.1523437,-0.6796875 0,-0.3632812 0.011719,-0.5039062 0.1992187,-0.703125 0.082031,-0.09375 0.234375,-0.234375 0.5859375,-0.234375 0.7382813,0 0.7382813,0.8203125 0.7382813,1.03125 0,0.421875 -0.2929688,0.84375 -0.796875,0.84375 z m 0,0"
       style="fill:#0000ff;fill-opacity:1;fill-rule:nonzero;stroke:none"
       aria-label="29"
       transform="matrix(1.3333333,0,0,1.3333333,192.37333,118.416)" />
    <path
       id="path22"
       d="m 1.4419531,-0.30614062 c 0,-0.1640625 -0.140625,-0.3046875 -0.3046875,-0.3046875 -0.16406248,0 -0.30468748,0.140625 -0.30468748,0.3046875 0,0.1640625 0.140625,0.3046875 0.30468748,0.3046875 0.1640625,0 0.3046875,-0.140625 0.3046875,-0.3046875 z m 0,0"
       style="fill:#0000ff;fill-opacity:1;fill-rule:nonzero;stroke:none"
       aria-label="."
       transform="matrix(1.3333333,0,0,1.3333333,201.41333,118.416)" />
    <path
       id="path23"
       d="m 0.97242969,-2.7436406 c 0.26953121,0.058594 0.49218751,0.058594 0.55078121,0.058594 0.3398438,0 0.5859375,-0.09375 0.7148438,-0.1640625 0.1171875,-0.058594 0.4570312,-0.2695312 0.4570312,-0.3867187 0,-0.070312 -0.058594,-0.082031 -0.070312,-0.082031 -0.011719,0 -0.023437,0 -0.070312,0.023437 -0.1992187,0.070312 -0.5039062,0.140625 -0.8320312,0.140625 -0.28125,0 -0.5625,-0.058594 -0.82031251,-0.140625 -0.0585938,-0.023437 -0.0703125,-0.023437 -0.0703125,-0.023437 -0.0703125,0 -0.0703125,0.058594 -0.0703125,0.140625 v 1.4882813 c 0,0.09375 0,0.1523437 0.09375,0.1523437 0.046875,0 0.0585938,-0.011719 0.10546875,-0.058594 0.18749996,-0.2226563 0.44531246,-0.328125 0.78515626,-0.328125 0.2929687,0 0.4453125,0.1640625 0.515625,0.2695312 0.1171875,0.1640625 0.140625,0.3867188 0.140625,0.6328125 0,0.21093753 -0.011719,0.49218753 -0.2109375,0.67968753 -0.2226563,0.234375 -0.5039063,0.24609375 -0.6210938,0.24609375 -0.3164062,0 -0.67968746,-0.140625 -0.84374996,-0.43359375 0.2109375,-0.0117188 0.28124996,-0.1640625 0.28124996,-0.28125 0,-0.15234375 -0.11718746,-0.28125003 -0.28124996,-0.28125003 -0.10546875,0 -0.26953125,0.070312 -0.26953125,0.29296878 0,0.4921875 0.46875,0.90234375 1.12500001,0.90234375 0.7382812,0 1.3476562,-0.4921875 1.3476562,-1.11328123 0,-0.5625 -0.4804687,-1.0898438 -1.171875,-1.0898438 -0.3164062,0 -0.5625,0.082031 -0.78515621,0.2460938 z m 4.05761721,1.0898437 c 0.4570312,0 0.7617187,0.2929688 0.7617187,0.78515628 0,0.50390625 -0.3046875,0.7734375 -0.75,0.7734375 -0.058594,0 -0.65625,0 -0.9023437,-0.2578125 0.1992187,-0.0351563 0.2578125,-0.1875 0.2578125,-0.3046875 0,-0.1875 -0.140625,-0.3046875 -0.3046875,-0.3046875 -0.1523438,0 -0.3046875,0.10546875 -0.3046875,0.31640625 0,0.515625 0.5859375,0.75 1.265625,0.75 0.8203125,0 1.3242187,-0.4921875 1.3242187,-0.97265625 0,-0.41015628 -0.3632812,-0.76171878 -0.9257812,-0.89062498 0.5976562,-0.1875 0.75,-0.5625 0.75,-0.84375 0,-0.4101563 -0.5039063,-0.7148438 -1.1367188,-0.7148438 -0.609375,0 -1.1015625,0.2578125 -1.1015625,0.703125 0,0.234375 0.1875,0.2929688 0.28125,0.2929688 0.140625,0 0.28125,-0.1054688 0.28125,-0.28125 0,-0.1171875 -0.058594,-0.2578125 -0.234375,-0.28125 0.2109375,-0.234375 0.65625,-0.2460938 0.7617188,-0.2460938 0.3632812,0 0.6210937,0.1875 0.6210937,0.5273438 0,0.28125 -0.1875,0.7382812 -0.7148437,0.7734375 -0.140625,0 -0.1523438,0 -0.28125,0.011719 -0.058594,0 -0.1171875,0.011719 -0.1171875,0.082031 0,0.082031 0.058594,0.082031 0.140625,0.082031 z m 0,0"
       style="fill:#0000ff;fill-opacity:1;fill-rule:nonzero;stroke:none"
       aria-label="53"
       transform="matrix(1.3333333,0,0,1.3333333,204.45733,118.416)" />
    <path
       id="path24"
       d="M 2.9301719,-0.96067969 H 2.7192344 c -0.011719,0.09375 -0.058594,0.3984375 -0.140625,0.45703125 -0.035156,0.0234375 -0.4570313,0.0234375 -0.5273438,0.0234375 h -0.984375 c 0.328125,-0.24609375 0.703125,-0.515625 0.9960938,-0.71484376 0.4570312,-0.3164062 0.8671875,-0.5976562 0.8671875,-1.125 0,-0.6445312 -0.5976563,-0.9960937 -1.3125,-0.9960937 -0.66796877,0 -1.16015627,0.3867187 -1.16015627,0.8789062 0,0.2578125 0.2109375,0.3046875 0.28125,0.3046875 0.140625,0 0.29296877,-0.09375 0.29296877,-0.2929687 0,-0.1875 -0.12890627,-0.28125 -0.28125002,-0.2929688 0.140625,-0.234375 0.43359372,-0.375 0.76171872,-0.375 0.4804688,0 0.890625,0.28125 0.890625,0.7734375 0,0.421875 -0.2929687,0.7382813 -0.6796875,1.0546875 l -1.20703122,1.03125001 c -0.046875,0.046875 -0.0585937,0.046875 -0.0585937,0.0820313 V 2.578125e-4 H 2.7661094 Z M 5.0307578,-1.6520859 c 0.4570313,0 0.7617188,0.2929687 0.7617188,0.78515621 0,0.50390625 -0.3046875,0.7734375 -0.75,0.7734375 -0.058594,0 -0.65625,0 -0.9023438,-0.2578125 0.1992188,-0.0351563 0.2578125,-0.1875 0.2578125,-0.3046875 0,-0.1875 -0.140625,-0.3046875 -0.3046875,-0.3046875 -0.1523437,0 -0.3046875,0.10546875 -0.3046875,0.31640625 0,0.515625 0.5859375,0.75 1.265625,0.75 0.8203125,0 1.3242188,-0.4921875 1.3242188,-0.97265625 0,-0.41015621 -0.3632813,-0.76171871 -0.9257813,-0.89062501 0.5976563,-0.1875 0.75,-0.5625 0.75,-0.84375 0,-0.4101562 -0.5039062,-0.7148437 -1.1367187,-0.7148437 -0.609375,0 -1.1015625,0.2578125 -1.1015625,0.703125 0,0.234375 0.1875,0.2929687 0.28125,0.2929687 0.140625,0 0.28125,-0.1054687 0.28125,-0.28125 0,-0.1171875 -0.058594,-0.2578125 -0.234375,-0.28125 0.2109375,-0.234375 0.65625,-0.2460937 0.7617187,-0.2460937 0.3632813,0 0.6210938,0.1875 0.6210938,0.5273437 0,0.28125 -0.1875,0.7382813 -0.7148438,0.7734375 -0.140625,0 -0.1523437,0 -0.28125,0.011719 -0.058594,0 -0.1171875,0.011719 -0.1171875,0.082031 0,0.082031 0.058594,0.082031 0.140625,0.082031 z m 0,0"
       style="fill:#0000ff;fill-opacity:1;fill-rule:nonzero;stroke:none"
       aria-label="23"
       transform="matrix(1.3333333,0,0,1.3333333,340.69467,174.152)" />
    <path
       id="path25"
       d="m 1.4411875,-0.30442969 c 0,-0.1640625 -0.140625,-0.3046875 -0.3046875,-0.3046875 -0.1640625,0 -0.3046875,0.140625 -0.3046875,0.3046875 0,0.1640625 0.140625,0.3046875025 0.3046875,0.3046875025 0.1640625,0 0.3046875,-0.1406250025 0.3046875,-0.3046875025 z m 0,0"
       style="fill:#0000ff;fill-opacity:1;fill-rule:nonzero;stroke:none"
       aria-label="."
       transform="matrix(1.3333333,0,0,1.3333333,349.73467,174.152)" />
    <path
       id="path26"
       d="m 1.9794766,-3.1638047 c 0,-0.1523437 -0.011719,-0.1523437 -0.1757813,-0.1523437 -0.3515625,0.3164062 -0.90234374,0.3164062 -1.00781249,0.3164062 h -0.0820313 v 0.2226563 h 0.0820313 c 0.1171875,0 0.43359379,-0.011719 0.72656249,-0.140625 v 2.48437496 c 0,0.1640625 0,0.2109375 -0.52734374,0.2109375 H 0.74900781 V 2.578125e-4 C 1.0185391,-0.02317969 1.4638516,-0.02317969 1.7568203,-0.02317969 c 0.28125,0 0.7265625,0 0.9960938,0.0234375025 V -0.22239844 H 2.5068203 c -0.5273437,0 -0.5273437,-0.046875 -0.5273437,-0.2109375 z m 3.0527343,1.5117188 c 0.4570313,0 0.7617188,0.2929687 0.7617188,0.78515621 0,0.50390625 -0.3046875,0.7734375 -0.75,0.7734375 -0.058594,0 -0.65625,0 -0.9023438,-0.2578125 0.1992188,-0.0351563 0.2578125,-0.1875 0.2578125,-0.3046875 0,-0.1875 -0.140625,-0.3046875 -0.3046875,-0.3046875 -0.1523437,0 -0.3046875,0.10546875 -0.3046875,0.31640625 0,0.515625 0.5859375,0.75 1.265625,0.75 0.8203125,0 1.3242188,-0.4921875 1.3242188,-0.97265625 0,-0.41015621 -0.3632813,-0.76171871 -0.9257813,-0.89062501 0.5976563,-0.1875 0.75,-0.5625 0.75,-0.84375 0,-0.4101562 -0.5039062,-0.7148437 -1.1367187,-0.7148437 -0.609375,0 -1.1015625,0.2578125 -1.1015625,0.703125 0,0.234375 0.1875,0.2929687 0.28125,0.2929687 0.140625,0 0.28125,-0.1054687 0.28125,-0.28125 0,-0.1171875 -0.058594,-0.2578125 -0.234375,-0.28125 0.2109375,-0.234375 0.65625,-0.2460937 0.7617187,-0.2460937 0.3632813,0 0.6210938,0.1875 0.6210938,0.5273437 0,0.28125 -0.1875,0.7382813 -0.7148438,0.7734375 -0.140625,0 -0.1523437,0 -0.28125,0.011719 -0.058594,0 -0.1171875,0.011719 -0.1171875,0.082031 0,0.082031 0.058594,0.082031 0.140625,0.082031 z m 0,0"
       style="fill:#0000ff;fill-opacity:1;fill-rule:nonzero;stroke:none"
       aria-label="13"
       transform="matrix(1.3333333,0,0,1.3333333,352.77867,174.152)" />
    <path
       id="path27"
       d="m 1.6397656,-1.6531328 c 0.4570313,0 0.7617188,0.2929687 0.7617188,0.78515624 0,0.50390625 -0.3046875,0.7734375 -0.75,0.7734375 -0.058594,0 -0.65625002,0 -0.90234377,-0.2578125 0.19921875,-0.0351563 0.25781247,-0.1875 0.25781247,-0.3046875 0,-0.1875 -0.14062497,-0.3046875 -0.30468747,-0.3046875 -0.15234375,0 -0.3046875,0.10546875 -0.3046875,0.31640625 0,0.515625 0.5859375,0.75 1.26562497,0.75 0.8203125,0 1.3242188,-0.4921875 1.3242188,-0.97265625 0,-0.41015624 -0.3632813,-0.76171874 -0.9257813,-0.89062504 0.5976563,-0.1875 0.75,-0.5625 0.75,-0.84375 0,-0.4101562 -0.5039062,-0.7148437 -1.1367187,-0.7148437 -0.609375,0 -1.10156252,0.2578125 -1.10156252,0.703125 0,0.234375 0.1875,0.2929687 0.28125,0.2929687 0.140625,0 0.28125002,-0.1054687 0.28125002,-0.28125 0,-0.1171875 -0.058594,-0.2578125 -0.23437502,-0.28125 0.21093752,-0.234375 0.65625002,-0.2460937 0.76171872,-0.2460937 0.3632813,0 0.6210938,0.1875 0.6210938,0.5273437 0,0.28125 -0.1875,0.7382813 -0.7148438,0.7734375 -0.140625,0 -0.1523437,0 -0.28125,0.011719 -0.058594,0 -0.1171875,0.011719 -0.1171875,0.082031 0,0.082031 0.058594,0.082031 0.140625,0.082031 z M 4.364375,-2.7429766 c 0.2695313,0.058594 0.4921875,0.058594 0.5507813,0.058594 0.3398437,0 0.5859375,-0.09375 0.7148437,-0.1640625 0.1171875,-0.058594 0.4570313,-0.2695313 0.4570313,-0.3867188 0,-0.070312 -0.058594,-0.082031 -0.070312,-0.082031 -0.011719,0 -0.023437,0 -0.070312,0.023437 -0.1992188,0.070312 -0.5039063,0.140625 -0.8320313,0.140625 -0.28125,0 -0.5625,-0.058594 -0.8203125,-0.140625 -0.058594,-0.023437 -0.070312,-0.023437 -0.070312,-0.023437 -0.070312,0 -0.070312,0.058594 -0.070312,0.140625 v 1.4882812 c 0,0.09375 0,0.1523438 0.09375,0.1523438 0.046875,0 0.058594,-0.011719 0.1054688,-0.058594 0.1875,-0.2226562 0.4453125,-0.328125 0.7851562,-0.328125 0.2929688,0 0.4453125,0.1640625 0.515625,0.2695313 0.1171875,0.1640625 0.140625,0.3867187 0.140625,0.6328125 0,0.21093749 -0.011719,0.49218749 -0.2109375,0.67968749 -0.2226562,0.234375 -0.5039062,0.24609375 -0.6210937,0.24609375 -0.3164063,0 -0.6796875,-0.140625 -0.84375,-0.43359375 0.2109375,-0.0117188 0.28125,-0.1640625 0.28125,-0.28125 0,-0.15234375 -0.1171875,-0.28124999 -0.28125,-0.28124999 -0.1054688,0 -0.2695313,0.070312 -0.2695313,0.29296874 0,0.4921875 0.46875,0.90234375 1.125,0.90234375 0.7382813,0 1.3476563,-0.4921875 1.3476563,-1.11328129 0,-0.5625 -0.4804688,-1.0898437 -1.171875,-1.0898437 -0.3164063,0 -0.5625,0.082031 -0.7851563,0.2460937 z m 0,0"
       style="fill:#ff0000;fill-opacity:1;fill-rule:nonzero;stroke:none"
       aria-label="35"
       transform="matrix(1.3333333,0,0,1.3333333,59.993333,65.989333)" />
    <path
       id="path28"
       d="m 1.4427734,-0.30547656 c 0,-0.1640625 -0.140625,-0.3046875 -0.3046875,-0.3046875 -0.16406246,0 -0.30468746,0.140625 -0.30468746,0.3046875 0,0.1640625 0.140625,0.3046874975 0.30468746,0.3046874975 0.1640625,0 0.3046875,-0.1406249975 0.3046875,-0.3046874975 z m 0,0"
       style="fill:#ff0000;fill-opacity:1;fill-rule:nonzero;stroke:none"
       aria-label="."
       transform="matrix(1.3333333,0,0,1.3333333,69.033333,65.989333)" />
    <path
       id="path29"
       d="m 0.97325,-2.7429766 c 0.2695313,0.058594 0.4921875,0.058594 0.5507813,0.058594 0.3398437,0 0.5859375,-0.09375 0.7148437,-0.1640625 0.1171875,-0.058594 0.4570313,-0.2695313 0.4570313,-0.3867188 0,-0.070312 -0.058594,-0.082031 -0.070312,-0.082031 -0.011719,0 -0.023437,0 -0.070312,0.023437 -0.1992188,0.070312 -0.5039063,0.140625 -0.8320313,0.140625 -0.28125,0 -0.5625,-0.058594 -0.8203125,-0.140625 -0.0585938,-0.023437 -0.0703125,-0.023437 -0.0703125,-0.023437 -0.0703125,0 -0.0703125,0.058594 -0.0703125,0.140625 v 1.4882812 c 0,0.09375 0,0.1523438 0.09375,0.1523438 0.046875,0 0.0585938,-0.011719 0.10546875,-0.058594 0.18750005,-0.2226562 0.44531255,-0.328125 0.78515625,-0.328125 0.2929688,0 0.4453125,0.1640625 0.515625,0.2695313 0.1171875,0.1640625 0.140625,0.3867187 0.140625,0.6328125 0,0.21093749 -0.011719,0.49218749 -0.2109375,0.67968749 -0.2226562,0.234375 -0.5039062,0.24609375 -0.6210937,0.24609375 -0.3164063,0 -0.67968755,-0.140625 -0.84375005,-0.43359375 0.2109375,-0.0117188 0.28125005,-0.1640625 0.28125005,-0.28125 0,-0.15234375 -0.11718755,-0.28124999 -0.28125005,-0.28124999 -0.10546875,0 -0.26953125,0.070312 -0.26953125,0.29296874 0,0.4921875 0.46875,0.90234375 1.125,0.90234375 0.7382813,0 1.3476563,-0.4921875 1.3476563,-1.11328129 0,-0.5625 -0.4804688,-1.0898437 -1.171875,-1.0898437 -0.3164063,0 -0.5625,0.082031 -0.7851563,0.2460937 z m 3.3896484,0 c 0.2695313,0.058594 0.4921875,0.058594 0.5507813,0.058594 0.3398437,0 0.5859375,-0.09375 0.7148437,-0.1640625 0.1171875,-0.058594 0.4570313,-0.2695313 0.4570313,-0.3867188 0,-0.070312 -0.058594,-0.082031 -0.070312,-0.082031 -0.011719,0 -0.023437,0 -0.070312,0.023437 -0.1992188,0.070312 -0.5039063,0.140625 -0.8320313,0.140625 -0.28125,0 -0.5625,-0.058594 -0.8203125,-0.140625 -0.058594,-0.023437 -0.070312,-0.023437 -0.070312,-0.023437 -0.070312,0 -0.070312,0.058594 -0.070312,0.140625 v 1.4882812 c 0,0.09375 0,0.1523438 0.09375,0.1523438 0.046875,0 0.058594,-0.011719 0.1054688,-0.058594 0.1875,-0.2226562 0.4453125,-0.328125 0.7851562,-0.328125 0.2929688,0 0.4453125,0.1640625 0.515625,0.2695313 0.1171875,0.1640625 0.140625,0.3867187 0.140625,0.6328125 0,0.21093749 -0.011719,0.49218749 -0.2109375,0.67968749 -0.2226562,0.234375 -0.5039062,0.24609375 -0.6210937,0.24609375 -0.3164063,0 -0.6796875,-0.140625 -0.84375,-0.43359375 0.2109375,-0.0117188 0.28125,-0.1640625 0.28125,-0.28125 0,-0.15234375 -0.1171875,-0.28124999 -0.28125,-0.28124999 -0.1054688,0 -0.2695313,0.070312 -0.2695313,0.29296874 0,0.4921875 0.46875,0.90234375 1.125,0.90234375 0.7382813,0 1.3476563,-0.4921875 1.3476563,-1.11328129 0,-0.5625 -0.4804688,-1.0898437 -1.171875,-1.0898437 -0.3164063,0 -0.5625,0.082031 -0.7851563,0.2460937 z m 0,0"
       style="fill:#ff0000;fill-opacity:1;fill-rule:nonzero;stroke:none"
       aria-label="55"
       transform="matrix(1.3333333,0,0,1.3333333,72.077333,65.989333)" />
    <path
       id="path30"
       d="M 2.9290625,-0.96039844 H 2.718125 c -0.011719,0.09375 -0.058594,0.3984375 -0.140625,0.45703125 -0.035156,0.0234375 -0.4570313,0.0234375 -0.5273438,0.0234375 h -0.984375 c 0.328125,-0.24609375 0.703125,-0.515625 0.9960938,-0.71484371 0.4570312,-0.3164063 0.8671875,-0.5976563 0.8671875,-1.125 0,-0.6445313 -0.5976563,-0.9960938 -1.3125,-0.9960938 -0.66796875,0 -1.16015625,0.3867188 -1.16015625,0.8789063 0,0.2578125 0.2109375,0.3046875 0.28125,0.3046875 0.140625,0 0.29296875,-0.09375 0.29296875,-0.2929688 0,-0.1875 -0.12890625,-0.28125 -0.28125,-0.2929687 0.140625,-0.234375 0.4335937,-0.375 0.7617187,-0.375 0.4804688,0 0.890625,0.28125 0.890625,0.7734375 0,0.421875 -0.2929687,0.7382812 -0.6796875,1.0546875 L 0.515,-0.23383594 c -0.046875,0.046875 -0.0585938,0.046875 -0.0585938,0.0820313 V 5.390625e-4 H 2.765 Z M 4.3148047,-1.6283672 c 0,-0.234375 0.011719,-0.6328125 0.1875,-0.9492187 0.1523437,-0.2695313 0.46875,-0.5507813 0.9375,-0.5507813 0.09375,0 0.3164062,0.011719 0.46875,0.1289063 -0.082031,0.023437 -0.2109375,0.09375 -0.2109375,0.2695312 0,0.1523438 0.1171875,0.2578125 0.2578125,0.2578125 0.09375,0 0.2695312,-0.046875 0.2695312,-0.28125 0,-0.2695312 -0.1875,-0.5625 -0.796875,-0.5625 -0.8554687,0 -1.640625,0.703125 -1.640625,1.734375 0,1.18359376 0.5859375,1.68750001 1.3125,1.68750001 0.4921875,0 0.7265625,-0.17578125 0.890625,-0.31640625 0.3164063,-0.26953125 0.3867188,-0.5625 0.3867188,-0.80859376 0,-0.3046875 -0.09375,-0.5507812 -0.3632813,-0.7734375 -0.2109375,-0.1992187 -0.4453125,-0.3398437 -0.8789062,-0.3398437 -0.28125,0 -0.609375,0.140625 -0.8203125,0.5039062 z m 0.7851562,1.53515626 c -0.7734375,0 -0.7734375,-0.83203125 -0.7734375,-1.03124996 0,-0.3867188 0.28125,-0.8320313 0.796875,-0.8320313 0.2578125,0 0.421875,0.058594 0.5742188,0.2578125 0.1523437,0.1875 0.1523437,0.3984375 0.1523437,0.6679688 0,0.29296871 0,0.48046871 -0.1640625,0.67968746 -0.140625,0.1640625 -0.3046875,0.2578125 -0.5859375,0.2578125 z m 0,0"
       style="fill:#ff0000;fill-opacity:1;fill-rule:nonzero;stroke:none"
       aria-label="26"
       transform="matrix(1.3333333,0,0,1.3333333,208.31333,148.636)" />
    <path
       id="path31"
       d="m 1.4400781,-0.30414844 c 0,-0.1640625 -0.140625,-0.3046875 -0.3046875,-0.3046875 -0.16406247,0 -0.30468747,0.140625 -0.30468747,0.3046875 0,0.1640625 0.140625,0.3046875025 0.30468747,0.3046875025 0.1640625,0 0.3046875,-0.1406250025 0.3046875,-0.3046875025 z m 0,0"
       style="fill:#ff0000;fill-opacity:1;fill-rule:nonzero;stroke:none"
       aria-label="."
       transform="matrix(1.3333333,0,0,1.3333333,217.35333,148.636)" />
    <path
       id="path32"
       d="m 2.9891094,-1.5932109 c 0,-0.3632813 0,-1.7226563 -1.2890625,-1.7226563 -1.30078128,0 -1.30078128,1.359375 -1.30078128,1.7226563 0,0.3632812 0,1.69921871 1.30078128,1.69921871 1.2890625,0 1.2890625,-1.33593751 1.2890625,-1.69921871 z m -1.2890625,1.53515621 c -0.1875,0 -0.609375,-0.05859375 -0.73828128,-0.5625 -0.0585938,-0.26953125 -0.0703125,-0.62109371 -0.0703125,-1.03125001 0,-0.375 0,-0.7148437 0.0820313,-0.9960937 0.12890618,-0.421875 0.50390618,-0.5039063 0.72656248,-0.5039063 0.3632812,0 0.6210937,0.1875 0.7265626,0.5390625 0.070312,0.2578125 0.070312,0.6679688 0.070312,0.9609375 0,0.3398438 0,0.73828126 -0.070312,1.04296876 -0.1289064,0.48046875 -0.5273439,0.55078125 -0.7265626,0.55078125 z M 4.3162578,-1.6283672 c 0,-0.234375 0.011719,-0.6328125 0.1875,-0.9492187 0.1523438,-0.2695313 0.46875,-0.5507813 0.9375,-0.5507813 0.09375,0 0.3164063,0.011719 0.46875,0.1289063 -0.082031,0.023437 -0.2109375,0.09375 -0.2109375,0.2695312 0,0.1523438 0.1171875,0.2578125 0.2578125,0.2578125 0.09375,0 0.2695313,-0.046875 0.2695313,-0.28125 0,-0.2695312 -0.1875,-0.5625 -0.796875,-0.5625 -0.8554688,0 -1.640625,0.703125 -1.640625,1.734375 0,1.18359376 0.5859375,1.68750001 1.3125,1.68750001 0.4921875,0 0.7265625,-0.17578125 0.890625,-0.31640625 0.3164062,-0.26953125 0.3867187,-0.5625 0.3867187,-0.80859376 0,-0.3046875 -0.09375,-0.5507812 -0.3632812,-0.7734375 -0.2109375,-0.1992187 -0.4453125,-0.3398437 -0.8789063,-0.3398437 -0.28125,0 -0.609375,0.140625 -0.8203125,0.5039062 z m 0.7851563,1.53515626 c -0.7734375,0 -0.7734375,-0.83203125 -0.7734375,-1.03124996 0,-0.3867188 0.28125,-0.8320313 0.796875,-0.8320313 0.2578125,0 0.421875,0.058594 0.5742187,0.2578125 0.1523438,0.1875 0.1523438,0.3984375 0.1523438,0.6679688 0,0.29296871 0,0.48046871 -0.1640625,0.67968746 -0.140625,0.1640625 -0.3046875,0.2578125 -0.5859375,0.2578125 z m 0,0"
       style="fill:#ff0000;fill-opacity:1;fill-rule:nonzero;stroke:none"
       aria-label="06"
       transform="matrix(1.3333333,0,0,1.3333333,220.39733,148.636)" />
    <path
       id="path33"
       d="M 2.9282969,-0.96175 H 2.7173594 c -0.011719,0.09375 -0.058594,0.3984375 -0.140625,0.45703125 -0.035156,0.0234375 -0.4570313,0.0234375 -0.5273438,0.0234375 h -0.984375 c 0.328125,-0.24609375 0.703125,-0.515625 0.9960938,-0.71484375 0.4570312,-0.3164062 0.8671875,-0.5976562 0.8671875,-1.125 0,-0.6445312 -0.5976563,-0.9960937 -1.3125,-0.9960937 -0.66796877,0 -1.16015627,0.3867187 -1.16015627,0.8789062 0,0.2578125 0.2109375,0.3046875 0.28125,0.3046875 0.140625,0 0.29296877,-0.09375 0.29296877,-0.2929687 0,-0.1875 -0.12890627,-0.28125 -0.28125002,-0.2929688 0.140625,-0.234375 0.43359372,-0.375 0.76171872,-0.375 0.4804688,0 0.890625,0.28125 0.890625,0.7734375 0,0.421875 -0.2929687,0.7382813 -0.6796875,1.0546875 l -1.20703122,1.03125 c -0.046875,0.046875 -0.0585938,0.046875 -0.0585938,0.0820313 V -8.125e-4 H 2.7642344 Z m 2.4433594,-2.203125 c 0,-0.1523437 -0.011719,-0.1523437 -0.1757813,-0.1523437 -0.3515625,0.3164062 -0.9023437,0.3164062 -1.0078125,0.3164062 h -0.082031 v 0.2226563 h 0.082031 c 0.1171875,0 0.4335938,-0.011719 0.7265625,-0.140625 v 2.48437495 c 0,0.1640625 0,0.2109375 -0.5273437,0.2109375 H 4.1411875 V -8.125e-4 C 4.4107188,-0.02425 4.8560313,-0.02425 5.149,-0.02425 c 0.28125,0 0.7265625,0 0.9960938,0.0234375 V -0.22346875 H 5.899 c -0.5273437,0 -0.5273437,-0.046875 -0.5273437,-0.2109375 z m 0,0"
       style="fill:#ff0000;fill-opacity:1;fill-rule:nonzero;stroke:none"
       aria-label="21"
       transform="matrix(1.3333333,0,0,1.3333333,356.63467,191.65733)" />
    <path
       id="path34"
       d="m 1.4422422,-0.3055 c 0,-0.1640625 -0.140625,-0.3046875 -0.3046875,-0.3046875 -0.16406251,0 -0.30468751,0.140625 -0.30468751,0.3046875 0,0.1640625 0.140625,0.3046875 0.30468751,0.3046875 0.1640625,0 0.3046875,-0.140625 0.3046875,-0.3046875 z m 0,0"
       style="fill:#ff0000;fill-opacity:1;fill-rule:nonzero;stroke:none"
       aria-label="."
       transform="matrix(1.3333333,0,0,1.3333333,365.67467,191.65733)" />
    <path
       id="path35"
       d="m 1.9805312,-3.164875 c 0,-0.1523437 -0.011719,-0.1523437 -0.1757812,-0.1523437 -0.3515625,0.3164062 -0.90234375,0.3164062 -1.0078125,0.3164062 H 0.7149062 v 0.2226563 h 0.0820313 c 0.1171875,0 0.4335937,-0.011719 0.7265625,-0.140625 v 2.48437495 c 0,0.1640625 0,0.2109375 -0.52734375,0.2109375 H 0.7500625 V -8.125e-4 C 1.0195937,-0.02425 1.4649062,-0.02425 1.757875,-0.02425 c 0.28125,0 0.7265625,0 0.9960937,0.0234375 V -0.22346875 H 2.507875 c -0.5273438,0 -0.5273438,-0.046875 -0.5273438,-0.2109375 z M 6.3193984,-0.96175 H 6.1084609 c -0.011719,0.09375 -0.058594,0.3984375 -0.140625,0.45703125 -0.035156,0.0234375 -0.4570312,0.0234375 -0.5273437,0.0234375 h -0.984375 c 0.328125,-0.24609375 0.703125,-0.515625 0.9960937,-0.71484375 0.4570313,-0.3164062 0.8671875,-0.5976562 0.8671875,-1.125 0,-0.6445312 -0.5976562,-0.9960937 -1.3125,-0.9960937 -0.6679687,0 -1.1601562,0.3867187 -1.1601562,0.8789062 0,0.2578125 0.2109375,0.3046875 0.28125,0.3046875 0.140625,0 0.2929687,-0.09375 0.2929687,-0.2929687 0,-0.1875 -0.1289062,-0.28125 -0.28125,-0.2929688 0.140625,-0.234375 0.4335938,-0.375 0.7617188,-0.375 0.4804687,0 0.890625,0.28125 0.890625,0.7734375 0,0.421875 -0.2929688,0.7382813 -0.6796875,1.0546875 l -1.2070313,1.03125 c -0.046875,0.046875 -0.058594,0.046875 -0.058594,0.0820313 v 0.1523437 h 2.3085937 z m 0,0"
       style="fill:#ff0000;fill-opacity:1;fill-rule:nonzero;stroke:none"
       aria-label="12"
       transform="matrix(1.3333333,0,0,1.3333333,368.71867,191.65733)" />
    <path
       id="path36"
       d="m 1.6408203,-1.6531562 c 0.4570313,0 0.7617188,0.2929687 0.7617188,0.7851562 0,0.50390625 -0.3046875,0.7734375 -0.75,0.7734375 -0.058594,0 -0.65625004,0 -0.90234379,-0.2578125 0.19921875,-0.0351563 0.25781249,-0.1875 0.25781249,-0.3046875 0,-0.1875 -0.14062499,-0.3046875 -0.30468749,-0.3046875 -0.15234375,0 -0.3046875,0.10546875 -0.3046875,0.31640625 0,0.515625 0.5859375,0.75 1.26562499,0.75 0.8203125,0 1.3242188,-0.4921875 1.3242188,-0.97265625 0,-0.4101562 -0.3632813,-0.7617187 -0.9257813,-0.890625 0.5976563,-0.1875 0.75,-0.5625 0.75,-0.84375 0,-0.4101562 -0.5039062,-0.7148437 -1.1367187,-0.7148437 -0.609375,0 -1.10156254,0.2578125 -1.10156254,0.703125 0,0.234375 0.1875,0.2929687 0.28125,0.2929687 0.140625,0 0.28125004,-0.1054687 0.28125004,-0.28125 0,-0.1171875 -0.058594,-0.2578125 -0.23437504,-0.28125 C 1.1134766,-3.118 1.5587891,-3.1297187 1.6642578,-3.1297187 c 0.3632813,0 0.6210938,0.1875 0.6210938,0.5273437 0,0.28125 -0.1875,0.7382813 -0.7148438,0.7734375 -0.140625,0 -0.1523437,0 -0.28125,0.011719 -0.058594,0 -0.1171875,0.011719 -0.1171875,0.082031 0,0.082031 0.058594,0.082031 0.140625,0.082031 z M 4.3625,-2.743 c 0.2695313,0.058594 0.4921875,0.058594 0.5507813,0.058594 0.3398437,0 0.5859375,-0.09375 0.7148437,-0.1640625 0.1171875,-0.058594 0.4570313,-0.2695313 0.4570313,-0.3867188 0,-0.070312 -0.058594,-0.082031 -0.070312,-0.082031 -0.011719,0 -0.023437,0 -0.070312,0.023437 -0.1992188,0.070312 -0.5039063,0.140625 -0.8320313,0.140625 -0.28125,0 -0.5625,-0.058594 -0.8203125,-0.140625 -0.058594,-0.023437 -0.070312,-0.023437 -0.070312,-0.023437 -0.070312,0 -0.070312,0.058594 -0.070312,0.140625 v 1.4882812 c 0,0.09375 0,0.1523438 0.09375,0.1523438 0.046875,0 0.058594,-0.011719 0.1054688,-0.058594 0.1875,-0.2226562 0.4453125,-0.328125 0.7851562,-0.328125 0.2929688,0 0.4453125,0.1640625 0.515625,0.2695313 0.1171875,0.1640625 0.140625,0.3867187 0.140625,0.6328125 0,0.21093745 -0.011719,0.49218745 -0.2109375,0.67968745 -0.2226562,0.234375 -0.5039062,0.24609375 -0.6210937,0.24609375 -0.3164063,0 -0.6796875,-0.140625 -0.84375,-0.43359375 0.2109375,-0.0117188 0.28125,-0.1640625 0.28125,-0.28125 0,-0.15234375 -0.1171875,-0.28124995 -0.28125,-0.28124995 -0.1054688,0 -0.2695313,0.070312 -0.2695313,0.2929687 0,0.4921875 0.46875,0.90234375 1.125,0.90234375 0.7382813,0 1.3476563,-0.4921875 1.3476563,-1.11328125 0,-0.5625 -0.4804688,-1.0898437 -1.171875,-1.0898437 -0.3164063,0 -0.5625,0.082031 -0.7851563,0.2460937 z m 0,0"
       style="fill:#734c26;fill-opacity:1;fill-rule:nonzero;stroke:none"
       aria-label="35"
       transform="matrix(1.3333333,0,0,1.3333333,75.933333,62.157333)" />
    <path
       id="path37"
       d="m 1.4408984,-0.3055 c 0,-0.1640625 -0.140625,-0.3046875 -0.3046875,-0.3046875 -0.16406246,0 -0.30468746,0.140625 -0.30468746,0.3046875 0,0.1640625 0.140625,0.3046875 0.30468746,0.3046875 0.1640625,0 0.3046875,-0.140625 0.3046875,-0.3046875 z m 0,0"
       style="fill:#734c26;fill-opacity:1;fill-rule:nonzero;stroke:none"
       aria-label="."
       transform="matrix(1.3333333,0,0,1.3333333,84.973333,62.157333)" />
    <path
       id="path38"
       d="m 2.4596562,-1.5828437 c 0,0.3164062 -0.023437,0.6914062 -0.1875,0.98437495 C 2.1080937,-0.3055 1.815125,-0.0945625 1.4049687,-0.0945625 c -0.046875,0 -0.3515625,0 -0.5273437,-0.1171875 0.1289062,-0.0351563 0.1992187,-0.12890625 0.1992187,-0.2578125 0,-0.1640625 -0.11718745,-0.26953125 -0.25781245,-0.26953125 -0.09375,0 -0.26953125,0.046875 -0.26953125,0.28125 0,0.5625 0.7382812,0.5625 0.8671875,0.5625 0.84375,0 1.5703125,-0.703125 1.5703125,-1.73437495 0,-1.2070313 -0.5859375,-1.6875 -1.2773438,-1.6875 -0.4921875,0 -0.7382812,0.1757812 -0.93749995,0.3398437 -0.3046875,0.2578125 -0.375,0.5273438 -0.375,0.7851563 0,0.28125 0.0820313,0.5390625 0.3515625,0.7734375 0.234375,0.2109375 0.46874995,0.3398437 0.89062495,0.3398437 0.1992188,0 0.5625,-0.070312 0.8203125,-0.5039062 z m -0.8085937,0.328125 c -0.1992188,0 -0.3867188,-0.035156 -0.5742188,-0.2578125 C 0.9245,-1.7000312 0.9245,-1.89925 0.9245,-2.1922187 c 0,-0.3632813 0.0117188,-0.5039063 0.1992187,-0.703125 0.082031,-0.09375 0.234375,-0.234375 0.5859375,-0.234375 0.7382813,0 0.7382813,0.8203125 0.7382813,1.03125 0,0.421875 -0.2929688,0.84375 -0.796875,0.84375 z m 4.2011719,-0.328125 c 0,0.3164062 -0.023437,0.6914062 -0.1875,0.98437495 C 5.5006719,-0.3055 5.2077031,-0.0945625 4.7975469,-0.0945625 c -0.046875,0 -0.3515625,0 -0.5273438,-0.1171875 0.1289063,-0.0351563 0.1992188,-0.12890625 0.1992188,-0.2578125 0,-0.1640625 -0.1171875,-0.26953125 -0.2578125,-0.26953125 -0.09375,0 -0.2695313,0.046875 -0.2695313,0.28125 0,0.5625 0.7382813,0.5625 0.8671875,0.5625 0.84375,0 1.5703125,-0.703125 1.5703125,-1.73437495 0,-1.2070313 -0.5859375,-1.6875 -1.2773437,-1.6875 -0.4921875,0 -0.7382813,0.1757812 -0.9375,0.3398437 -0.3046875,0.2578125 -0.375,0.5273438 -0.375,0.7851563 0,0.28125 0.082031,0.5390625 0.3515625,0.7734375 0.234375,0.2109375 0.46875,0.3398437 0.890625,0.3398437 0.1992187,0 0.5625,-0.070312 0.8203125,-0.5039062 z m -0.8085938,0.328125 c -0.1992187,0 -0.3867187,-0.035156 -0.5742187,-0.2578125 -0.1523438,-0.1875 -0.1523438,-0.3867188 -0.1523438,-0.6796875 0,-0.3632813 0.011719,-0.5039063 0.1992188,-0.703125 0.082031,-0.09375 0.234375,-0.234375 0.5859375,-0.234375 0.7382812,0 0.7382812,0.8203125 0.7382812,1.03125 0,0.421875 -0.2929687,0.84375 -0.796875,0.84375 z m 0,0"
       style="fill:#734c26;fill-opacity:1;fill-rule:nonzero;stroke:none"
       aria-label="99"
       transform="matrix(1.3333333,0,0,1.3333333,88.017333,62.157333)" />
    <path
       id="path39"
       d="M 2.9301172,-0.9615 H 2.7191797 c -0.011719,0.09375 -0.058594,0.3984375 -0.140625,0.45703125 -0.035156,0.0234375 -0.4570313,0.0234375 -0.5273438,0.0234375 h -0.984375 c 0.328125,-0.24609375 0.703125,-0.515625 0.9960938,-0.71484375 0.4570312,-0.3164062 0.8671875,-0.5976562 0.8671875,-1.125 0,-0.6445312 -0.5976563,-0.9960937 -1.3125,-0.9960937 -0.66796876,0 -1.16015626,0.3867187 -1.16015626,0.8789062 0,0.2578125 0.2109375,0.3046875 0.28125,0.3046875 0.140625,0 0.29296876,-0.09375 0.29296876,-0.2929687 0,-0.1875 -0.12890626,-0.28125 -0.28125001,-0.2929688 0.140625,-0.234375 0.43359371,-0.375 0.76171871,-0.375 0.4804688,0 0.890625,0.28125 0.890625,0.7734375 0,0.421875 -0.2929687,0.7382813 -0.6796875,1.0546875 l -1.20703121,1.03125 c -0.046875,0.046875 -0.0585938,0.046875 -0.0585938,0.0820313 V -5.625e-4 H 2.7660547 Z m 1.4326172,-1.78125 c 0.2695312,0.058594 0.4921875,0.058594 0.5507812,0.058594 0.3398438,0 0.5859375,-0.09375 0.7148438,-0.1640625 0.1171875,-0.058594 0.4570312,-0.2695313 0.4570312,-0.3867188 0,-0.070312 -0.058594,-0.082031 -0.070312,-0.082031 -0.011719,0 -0.023437,0 -0.070312,0.023437 -0.1992187,0.070312 -0.5039062,0.140625 -0.8320312,0.140625 -0.28125,0 -0.5625,-0.058594 -0.8203125,-0.140625 -0.058594,-0.023437 -0.070312,-0.023437 -0.070312,-0.023437 -0.070312,0 -0.070312,0.058594 -0.070312,0.140625 v 1.4882812 c 0,0.09375 0,0.1523438 0.09375,0.1523438 0.046875,0 0.058594,-0.011719 0.1054687,-0.058594 0.1875,-0.2226562 0.4453125,-0.328125 0.7851563,-0.328125 0.2929687,0 0.4453125,0.1640625 0.515625,0.2695313 0.1171875,0.1640625 0.140625,0.3867187 0.140625,0.6328125 0,0.21093745 -0.011719,0.49218745 -0.2109375,0.67968745 -0.2226563,0.234375 -0.5039063,0.24609375 -0.6210938,0.24609375 -0.3164062,0 -0.6796875,-0.140625 -0.84375,-0.43359375 0.2109375,-0.0117188 0.28125,-0.1640625 0.28125,-0.28125 0,-0.15234375 -0.1171875,-0.28124995 -0.28125,-0.28124995 -0.1054687,0 -0.2695312,0.070312 -0.2695312,0.2929687 0,0.4921875 0.46875,0.90234375 1.125,0.90234375 0.7382812,0 1.3476562,-0.4921875 1.3476562,-1.11328125 0,-0.5625 -0.4804687,-1.0898437 -1.171875,-1.0898437 -0.3164062,0 -0.5625,0.082031 -0.7851562,0.2460937 z m 0,0"
       style="fill:#734c26;fill-opacity:1;fill-rule:nonzero;stroke:none"
       aria-label="25"
       transform="matrix(1.3333333,0,0,1.3333333,224.25333,152.032)" />
    <path
       id="path40"
       d="m 1.4401328,-0.30525 c 0,-0.1640625 -0.140625,-0.3046875 -0.3046875,-0.3046875 -0.16406249,0 -0.30468749,0.140625 -0.30468749,0.3046875 0,0.1640625 0.140625,0.3046875 0.30468749,0.3046875 0.1640625,0 0.3046875,-0.140625 0.3046875,-0.3046875 z m 0,0"
       style="fill:#734c26;fill-opacity:1;fill-rule:nonzero;stroke:none"
       aria-label="."
       transform="matrix(1.3333333,0,0,1.3333333,233.29467,152.032)" />
    <path
       id="path41"
       d="m 0.92666406,-1.6294687 c 0,-0.234375 0.0117188,-0.6328125 0.18750004,-0.9492188 0.1523437,-0.2695312 0.46875,-0.5507812 0.9375,-0.5507812 0.09375,0 0.3164062,0.011719 0.46875,0.1289062 -0.082031,0.023437 -0.2109375,0.09375 -0.2109375,0.2695313 0,0.1523437 0.1171875,0.2578125 0.2578125,0.2578125 0.09375,0 0.2695312,-0.046875 0.2695312,-0.28125 0,-0.2695313 -0.1875,-0.5625 -0.796875,-0.5625 -0.8554687,0 -1.64062499,0.703125 -1.64062499,1.734375 0,1.1835937 0.5859375,1.68749995 1.31249999,1.68749995 0.4921875,0 0.7265625,-0.17578125 0.890625,-0.31640625 0.3164063,-0.26953125 0.3867188,-0.5625 0.3867188,-0.8085937 0,-0.3046875 -0.09375,-0.5507813 -0.3632813,-0.7734375 C 2.4149453,-1.99275 2.1805703,-2.133375 1.7469766,-2.133375 c -0.28125,0 -0.609375,0.140625 -0.82031254,0.5039063 z m 0.78515624,1.5351562 c -0.77343749,0 -0.77343749,-0.83203125 -0.77343749,-1.03125 0,-0.3867187 0.28124999,-0.8320312 0.79687499,-0.8320312 0.2578125,0 0.421875,0.058594 0.5742188,0.2578125 0.1523437,0.1875 0.1523437,0.3984375 0.1523437,0.6679687 0,0.29296875 0,0.48046875 -0.1640625,0.6796875 -0.140625,0.1640625 -0.3046875,0.2578125 -0.5859375,0.2578125 z m 4.7958985,-2.8945312 c 0.035156,-0.046875 0.035156,-0.058594 0.046875,-0.082031 V -3.2115 H 5.3475625 c -0.1289062,0 -0.8554687,-0.011719 -0.9492187,-0.035156 C 4.292875,-3.2700937 4.2811563,-3.3169687 4.2694375,-3.3638437 H 4.0585 L 3.871,-2.2505625 H 4.0819375 C 4.0936563,-2.320875 4.15225,-2.649 4.2342813,-2.695875 4.2577188,-2.7193125 4.7264688,-2.7310312 4.8085,-2.7310312 h 1.1835938 c -0.2109375,0.2460937 -0.4804688,0.515625 -0.6796875,0.7617187 -0.5859375,0.75 -0.65625,1.46484375 -0.65625,1.76953125 0,0.28125 0.1640625,0.3046875 0.2578125,0.3046875 0.2695312,0 0.2695312,-0.24609375 0.2695312,-0.3046875 V -0.30525 c 0,-0.890625 0.1875,-1.4296875 0.4804688,-1.7578125 z m 0,0"
       style="fill:#734c26;fill-opacity:1;fill-rule:nonzero;stroke:none"
       aria-label="67"
       transform="matrix(1.3333333,0,0,1.3333333,236.33867,152.032)" />
    <path
       id="path42"
       d="m 1.9801328,-3.1652891 c 0,-0.1523437 -0.011719,-0.1523437 -0.1757812,-0.1523437 -0.3515625,0.3164062 -0.90234379,0.3164062 -1.00781254,0.3164062 h -0.0820313 v 0.2226563 h 0.0820313 c 0.1171875,0 0.43359374,-0.011719 0.72656254,-0.140625 v 2.48437499 c 0,0.1640625 0,0.2109375 -0.52734379,0.2109375 H 0.74966406 v 0.22265625 c 0.26953124,-0.0234375 0.71484374,-0.0234375 1.00781254,-0.0234375 0.28125,0 0.7265625,0 0.9960937,0.0234375 V -0.22388281 H 2.5074766 c -0.5273438,0 -0.5273438,-0.046875 -0.5273438,-0.2109375 z M 5.85025,-1.5832578 c 0,0.3164062 -0.023437,0.69140624 -0.1875,0.98437499 -0.1640625,0.29296875 -0.4570312,0.50390625 -0.8671875,0.50390625 -0.046875,0 -0.3515625,0 -0.5273437,-0.1171875 0.1289062,-0.0351563 0.1992187,-0.12890625 0.1992187,-0.2578125 0,-0.1640625 -0.1171875,-0.26953125 -0.2578125,-0.26953125 -0.09375,0 -0.2695312,0.046875 -0.2695312,0.28125 0,0.5625 0.7382812,0.5625 0.8671875,0.5625 0.84375,0 1.5703125,-0.703125 1.5703125,-1.73437499 0,-1.2070313 -0.5859375,-1.6875 -1.2773438,-1.6875 -0.4921875,0 -0.7382812,0.1757812 -0.9375,0.3398437 -0.3046875,0.2578125 -0.375,0.5273438 -0.375,0.7851563 0,0.28125 0.082031,0.5390625 0.3515625,0.7734375 0.234375,0.2109375 0.46875,0.3398437 0.890625,0.3398437 0.1992188,0 0.5625,-0.070312 0.8203125,-0.5039062 z m -0.8085937,0.328125 c -0.1992188,0 -0.3867188,-0.035156 -0.5742188,-0.2578125 -0.1523437,-0.1875 -0.1523437,-0.3867188 -0.1523437,-0.6796875 0,-0.3632813 0.011719,-0.5039063 0.1992187,-0.703125 0.082031,-0.09375 0.234375,-0.234375 0.5859375,-0.234375 0.7382813,0 0.7382813,0.8203125 0.7382813,1.03125 0,0.421875 -0.2929688,0.84375 -0.796875,0.84375 z m 0,0"
       style="fill:#734c26;fill-opacity:1;fill-rule:nonzero;stroke:none"
       aria-label="19"
       transform="matrix(1.3333333,0,0,1.3333333,372.57467,204.45867)" />
    <path
       id="path43"
       d="m 1.4403672,-0.30591406 c 0,-0.1640625 -0.140625,-0.3046875 -0.3046875,-0.3046875 -0.16406251,0 -0.30468751,0.140625 -0.30468751,0.3046875 0,0.1640625 0.140625,0.3046875 0.30468751,0.3046875 0.1640625,0 0.3046875,-0.140625 0.3046875,-0.3046875 z m 0,0"
       style="fill:#734c26;fill-opacity:1;fill-rule:nonzero;stroke:none"
       aria-label="."
       transform="matrix(1.3333333,0,0,1.3333333,381.61467,204.45867)" />
    <path
       id="path44"
       d="m 0.92689844,-1.6301328 c 0,-0.234375 0.0117188,-0.6328125 0.18749996,-0.9492188 0.1523438,-0.2695312 0.46875,-0.5507812 0.9375,-0.5507812 0.09375,0 0.3164063,0.011719 0.46875,0.1289062 -0.082031,0.023437 -0.2109375,0.09375 -0.2109375,0.2695313 0,0.1523437 0.1171875,0.2578125 0.2578125,0.2578125 0.09375,0 0.2695313,-0.046875 0.2695313,-0.28125 0,-0.2695313 -0.1875,-0.5625 -0.796875,-0.5625 -0.8554688,0 -1.64062501,0.703125 -1.64062501,1.734375 0,1.18359374 0.5859375,1.68749999 1.31250001,1.68749999 0.4921875,0 0.7265625,-0.17578125 0.890625,-0.31640625 0.3164062,-0.26953125 0.3867187,-0.5625 0.3867187,-0.80859374 0,-0.3046875 -0.09375,-0.5507813 -0.3632812,-0.7734375 -0.2109375,-0.1992188 -0.4453125,-0.3398438 -0.8789063,-0.3398438 -0.28125,0 -0.609375,0.140625 -0.82031246,0.5039063 z m 0.78515626,1.53515624 c -0.77343751,0 -0.77343751,-0.83203125 -0.77343751,-1.03125004 0,-0.3867187 0.28125001,-0.8320312 0.79687501,-0.8320312 0.2578125,0 0.421875,0.058594 0.5742187,0.2578125 0.1523438,0.1875 0.1523438,0.3984375 0.1523438,0.6679687 0,0.29296879 0,0.48046879 -0.1640625,0.67968754 -0.140625,0.1640625 -0.3046875,0.2578125 -0.5859375,0.2578125 z M 4.3634219,-2.7434141 c 0.2695312,0.058594 0.4921875,0.058594 0.5507812,0.058594 0.3398438,0 0.5859375,-0.09375 0.7148438,-0.1640625 0.1171875,-0.058594 0.4570312,-0.2695313 0.4570312,-0.3867188 0,-0.070312 -0.058594,-0.082031 -0.070312,-0.082031 -0.011719,0 -0.023437,0 -0.070312,0.023437 -0.1992187,0.070312 -0.5039062,0.140625 -0.8320312,0.140625 -0.28125,0 -0.5625,-0.058594 -0.8203125,-0.140625 -0.058594,-0.023437 -0.070312,-0.023437 -0.070312,-0.023437 -0.070312,0 -0.070312,0.058594 -0.070312,0.140625 v 1.4882812 c 0,0.09375 0,0.1523438 0.09375,0.1523438 0.046875,0 0.058594,-0.011719 0.1054687,-0.058594 0.1875,-0.2226562 0.4453125,-0.328125 0.7851563,-0.328125 0.2929687,0 0.4453125,0.1640625 0.515625,0.2695313 0.1171875,0.1640625 0.140625,0.3867187 0.140625,0.6328125 0,0.21093749 -0.011719,0.49218749 -0.2109375,0.67968749 -0.2226563,0.234375 -0.5039063,0.24609375 -0.6210938,0.24609375 -0.3164062,0 -0.6796875,-0.140625 -0.84375,-0.43359375 0.2109375,-0.0117188 0.28125,-0.1640625 0.28125,-0.28125 0,-0.15234375 -0.1171875,-0.28124999 -0.28125,-0.28124999 -0.1054687,0 -0.2695312,0.070312 -0.2695312,0.29296874 0,0.4921875 0.46875,0.90234375 1.125,0.90234375 0.7382812,0 1.3476562,-0.4921875 1.3476562,-1.11328129 0,-0.5625 -0.4804687,-1.0898437 -1.171875,-1.0898437 -0.3164062,0 -0.5625,0.082031 -0.7851562,0.2460937 z m 0,0"
       style="fill:#734c26;fill-opacity:1;fill-rule:nonzero;stroke:none"
       aria-label="65"
       transform="matrix(1.3333333,0,0,1.3333333,384.65867,204.45867)" />
    <path
       id="path45"
       d="m 6.4795391,-1.828125 c 0,-0.8671875 -0.8085938,-1.6054688 -1.921875,-1.7226563 C 5.5303203,-3.75 6.2100078,-4.3828125 6.2100078,-5.1210937 c 0,-0.8671875 -0.9140625,-1.6875 -2.203125,-1.6875 H 0.36235156 v 0.3164062 h 0.234375 c 0.76171874,0 0.78515624,0.1054688 0.78515624,0.46875 v 5.25 c 0,0.3515625 -0.023437,0.46875 -0.78515624,0.46875 h -0.234375 V 0 H 4.2646953 C 5.5889141,0 6.4795391,-0.890625 6.4795391,-1.828125 Z M 5.2490703,-5.1210937 c 0,0.6328125 -0.4921875,1.4765624 -1.59375,1.4765624 H 2.2139141 V -6.09375 c 0,-0.328125 0.011719,-0.3984375 0.4804687,-0.3984375 h 1.2421875 c 0.9609375,0 1.3125,0.84375 1.3125,1.3710938 z m 0.234375,3.2929687 c 0,0.703125 -0.515625,1.5234375 -1.5351562,1.5234375 H 2.6943828 c -0.46875,0 -0.4804687,-0.0703125 -0.4804687,-0.3984375 v -2.71875 h 1.875 c 0.984375,0 1.3945312,0.9257812 1.3945312,1.59375 z m 7.3710937,-0.7382813 h -0.257812 c -0.105469,1.0078126 -0.246094,2.2617188 -1.992188,2.2617188 H 9.7842266 c -0.46875,0 -0.4921875,-0.0703125 -0.4921875,-0.3984375 v -5.3085937 c 0,-0.3398438 0,-0.4804688 0.9492189,-0.4804688 h 0.328125 v -0.3164062 c -0.363281,0.035156 -1.2656252,0.035156 -1.6757814,0.035156 -0.3867188,0 -1.1601563,0 -1.5117188,-0.035156 v 0.3164062 h 0.234375 c 0.7734375,0 0.796875,0.1054688 0.796875,0.46875 v 5.25 c 0,0.3515625 -0.023437,0.46875 -0.796875,0.46875 H 7.3818828 V 0 h 5.1914062 z m 6.916992,0 h -0.246094 c -0.246093,1.5351563 -0.480468,2.2617188 -2.191406,2.2617188 h -1.324219 c -0.46875,0 -0.492187,-0.0703125 -0.492187,-0.3984375 v -2.6601563 h 0.902344 c 0.960937,0 1.078125,0.3164063 1.078125,1.1601563 h 0.246093 v -2.6367187 h -0.246093 c 0,0.8554687 -0.117188,1.1601562 -1.078125,1.1601562 h -0.902344 v -2.390625 c 0,-0.328125 0.02344,-0.3984375 0.492187,-0.3984375 h 1.289063 c 1.523437,0 1.792969,0.5507813 1.945312,1.9335938 h 0.246094 L 19.22075,-6.7734375 H 13.607469 V -6.46875 h 0.234375 c 0.773437,0 0.796875,0.1171875 0.796875,0.46875 v 5.2265625 c 0,0.3515625 -0.02344,0.46875 -0.796875,0.46875 H 13.607469 V 0 h 5.753906 z m 7.429688,-3.9257812 v -0.3164062 l -1.183594,0.035156 -1.183594,-0.035156 v 0.3164062 c 1.03125,0 1.03125,0.46875 1.03125,0.7382813 v 3.4570312 c 0,1.40625 -0.972656,2.203125 -1.910156,2.203125 -0.46875,0 -1.652344,-0.24609375 -1.652344,-2.1328125 v -3.796875 c 0,-0.3632812 0.02344,-0.46875 0.785156,-0.46875 h 0.246094 v -0.3164062 c -0.351562,0.035156 -1.089844,0.035156 -1.464844,0.035156 -0.375,0 -1.125,0 -1.476562,-0.035156 v 0.3164062 H 20.627 c 0.773437,0 0.796875,0.1054688 0.796875,0.46875 v 3.75 c 0,1.40625 1.148437,2.49609375 2.507812,2.49609375 1.148438,0 2.039063,-0.92578125 2.214844,-2.06249995 0.02344,-0.1992188 0.02344,-0.2929688 0.02344,-0.6914063 v -3.1875 c 0,-0.328125 0,-0.7734375 1.03125,-0.7734375 z m 0,0"
       style="fill:#000000;fill-opacity:1;fill-rule:nonzero;stroke:none"
       aria-label="BLEU"
       transform="matrix(0,-1.3333333,1.3333333,0,13.5,136.00267)" />
    <path
       id="path46"
       d="m 47.71938,-65.60248 h 127.04521 v 16.5979 H 47.71938 Z"
       style="fill:none;stroke:#000000;stroke-width:0.3985;stroke-linecap:butt;stroke-linejoin:miter;stroke-miterlimit:10;stroke-dasharray:none;stroke-opacity:1"
       transform="matrix(1.3333333,0,0,-1.3333333,70.554667,209.152)" />
    <path
       id="path47"
       d="m -1.49442,-1.99252 h 2.98883 v 7.97023 h -2.98883 z m 5.97767,0 h 2.98883 v 5.9777 H 4.48325 Z"
       style="fill:#b3b3ff;fill-opacity:1;fill-rule:nonzero;stroke:#0000ff;stroke-width:0.3985;stroke-linecap:butt;stroke-linejoin:miter;stroke-miterlimit:10;stroke-dasharray:none;stroke-opacity:1"
       transform="matrix(1.3333333,0,0,-1.3333333,140.424,285.556)" />
    <path
       id="path48"
       d="m 7.1371641,0.00130469 v -0.3046875 H 6.9613828 c -0.5976562,0 -0.7382812,-0.0703125 -0.84375,-0.3984375 l -2.15625,-6.23437499 c -0.046875,-0.1289063 -0.070312,-0.1992188 -0.2226562,-0.1992188 -0.1640625,0 -0.1875,0.058594 -0.2460938,0.1992188 l -2.0625,5.96484374 c -0.1757812,0.50390625 -0.57421874,0.65625 -1.11328124,0.66796875 v 0.3046875 L 1.3363828,-0.03385156 2.4848203,0.00130469 v -0.3046875 c -0.5039062,0 -0.75,-0.2578125 -0.75,-0.515625 0,-0.0234375 0.011719,-0.12890625 0.023437,-0.140625 L 2.2152891,-2.2721328 h 2.4609375 l 0.5273437,1.52343749 c 0.011719,0.046875 0.023437,0.10546875 0.023437,0.140625 0,0.3046875 -0.5507812,0.3046875 -0.8203125,0.3046875 v 0.3046875 c 0.351563,-0.03515625 1.054688,-0.03515625 1.429688,-0.03515625 z M 4.5590391,-2.5768203 H 2.3207578 l 1.1132813,-3.234375 z m 5.4550779,2.57812499 v -0.3046875 c -0.6679686,0 -0.7851561,0 -0.7851561,-0.45703125 V -6.9127578 l -1.4296875,0.1054687 v 0.3164063 c 0.703125,0 0.7734375,0.070312 0.7734375,0.5507812 v 5.17968754 c 0,0.45703125 -0.1054687,0.45703125 -0.7734375,0.45703125 v 0.3046875 l 1.1015625,-0.03515625 z m 5.419922,-2.15624999 c 0,-1.265625 -0.972656,-2.25 -2.085937,-2.25 -0.773438,0 -1.195313,0.4453125 -1.394532,0.65625 v -0.65625 l -1.429687,0.1171875 v 0.3046875 c 0.703125,0 0.773437,0.058594 0.773437,0.4921875 v 4.6640625 c 0,0.4570312 -0.105468,0.4570312 -0.773437,0.4570312 v 0.3046875 l 1.113281,-0.035156 1.125,0.035156 V 1.6302109 c -0.667969,0 -0.773437,0 -0.773437,-0.4570312 v -1.75781251 c 0.04687,0.15234375 0.46875,0.69140625 1.21875,0.69140625 1.183593,0 2.226562,-0.97265625 2.226562,-2.26171874 z m -0.832031,0 c 0,1.20703124 -0.691406,2.05078124 -1.429688,2.05078124 -0.398437,0 -0.773437,-0.19921875 -1.042968,-0.609375 -0.140625,-0.2109375 -0.140625,-0.22265625 -0.140625,-0.42187504 v -2.2148437 c 0.28125,-0.515625 0.773437,-0.796875 1.277343,-0.796875 0.726563,0 1.335938,0.8671875 1.335938,1.9921875 z m 6.509765,2.15624999 v -0.3046875 c -0.515625,0 -0.773437,0 -0.785156,-0.3046875 V -2.5065078 c 0,-0.8554688 0,-1.171875 -0.304687,-1.5234375 -0.140625,-0.1757813 -0.46875,-0.375 -1.042969,-0.375 -0.84375,0 -1.277344,0.5976562 -1.441406,0.9609375 v -3.46875 l -1.441407,0.1054687 v 0.3164063 c 0.703125,0 0.785157,0.070312 0.785157,0.5507812 v 5.17968754 c 0,0.45703125 -0.117188,0.45703125 -0.785157,0.45703125 v 0.3046875 l 1.125,-0.03515625 1.113282,0.03515625 v -0.3046875 c -0.65625,0 -0.773438,0 -0.773438,-0.45703125 V -2.5885391 c 0,-1.03125 0.714844,-1.59375 1.347656,-1.59375 0.621094,0 0.738282,0.5390625 0.738282,1.1015625 v 2.32031254 c 0,0.45703125 -0.117188,0.45703125 -0.773438,0.45703125 v 0.3046875 l 1.125,-0.03515625 z m 5.024415,-0.890625 V -1.4401016 h -0.257813 v 0.55078129 c 0,0.5859375 -0.246094,0.64453125 -0.351562,0.64453125 -0.328125,0 -0.375,-0.45703125 -0.375,-0.50390625 V -2.7408828 c 0,-0.4101563 0,-0.8085938 -0.351563,-1.171875 -0.386719,-0.3867188 -0.890625,-0.5507813 -1.371094,-0.5507813 -0.808593,0 -1.5,0.46875 -1.5,1.125 0,0.3046875 0.199219,0.46875 0.457032,0.46875 0.28125,0 0.457031,-0.1992187 0.457031,-0.4570312 0,-0.1171875 -0.04687,-0.4453125 -0.503906,-0.4570313 0.269531,-0.3515625 0.75,-0.4570312 1.078125,-0.4570312 0.480468,0 1.054687,0.3867187 1.054687,1.2773437 v 0.3632813 c -0.515625,0.035156 -1.207031,0.058594 -1.839844,0.3632812 -0.75,0.3398438 -0.996093,0.8554688 -0.996093,1.28906254 0,0.80859375 0.972656,1.0546875 1.59375,1.0546875 0.65625,0 1.113281,-0.3984375 1.3125,-0.8671875 0.03516,0.3984375 0.304687,0.8203125 0.773437,0.8203125 0.210938,0 0.820313,-0.140625 0.820313,-0.94921875 z M 24.472125,-1.3932266 c 0,0.94921879 -0.726562,1.28906254 -1.171875,1.28906254 -0.480469,0 -0.890625,-0.3515625 -0.890625,-0.85546875 0,-0.53906249 0.410156,-1.37109379 2.0625,-1.42968749 z m 0,0"
       style="fill:#000000;fill-opacity:1;fill-rule:nonzero;stroke:none"
       aria-label="Alpha"
       transform="matrix(1.3333333,0,0,1.3333333,153.308,289.31467)" />
    <path
       id="path49"
       d="m -1.49442,-1.99252 h 2.98883 v 7.97023 h -2.98883 z m 5.97767,0 h 2.98883 v 5.9777 H 4.48325 Z"
       style="fill:#ffb3b3;fill-opacity:1;fill-rule:nonzero;stroke:#ff0000;stroke-width:0.3985;stroke-linecap:butt;stroke-linejoin:miter;stroke-miterlimit:10;stroke-dasharray:none;stroke-opacity:1"
       transform="matrix(1.3333333,0,0,-1.3333333,193.292,285.556)" />
    <path
       id="path50"
       d="m 6.4793047,-1.8268828 c 0,-0.8671875 -0.8085938,-1.6054688 -1.921875,-1.7226563 0.9726562,-0.1992187 1.6523437,-0.8320312 1.6523437,-1.5703125 0,-0.8671875 -0.9140625,-1.6875 -2.203125,-1.6875 H 0.36211719 v 0.3164063 h 0.234375 c 0.76171871,0 0.78515621,0.1054687 0.78515621,0.46875 v 5.24999999 c 0,0.3515625 -0.023437,0.46875 -0.78515621,0.46875 h -0.234375 v 0.3046875 H 4.2644609 c 1.3242188,0 2.2148438,-0.890625 2.2148438,-1.82812499 z M 5.2488359,-5.1198516 c 0,0.6328125 -0.4921875,1.4765625 -1.59375,1.4765625 H 2.2136797 v -2.4492187 c 0,-0.328125 0.011719,-0.3984375 0.4804687,-0.3984375 h 1.2421875 c 0.9609375,0 1.3125,0.84375 1.3125,1.3710937 z m 0.234375,3.2929688 c 0,0.703125 -0.515625,1.52343749 -1.5351562,1.52343749 H 2.6941484 c -0.46875,0 -0.4804687,-0.0703125 -0.4804687,-0.3984375 V -3.4206328 h 1.875 c 0.984375,0 1.3945312,0.9257812 1.3945312,1.59375 z m 5.7070311,0.6445312 c 0,-0.1054687 -0.08203,-0.1171875 -0.128906,-0.1171875 -0.09375,0 -0.117188,0.058594 -0.128906,0.140625 -0.351563,1.01953129 -1.2539066,1.01953129 -1.3476566,1.01953129 -0.5039062,0 -0.9023437,-0.29296875 -1.125,-0.66796875 C 8.1550859,-1.2878203 8.1550859,-1.9440703 8.1550859,-2.2956328 h 2.7890621 c 0.210938,0 0.246094,0 0.246094,-0.2109375 0,-0.984375 -0.539062,-1.9570313 -1.7812498,-1.9570313 -1.1601563,0 -2.0742188,1.03125 -2.0742188,2.2734375 0,1.33593754 1.0429688,2.29687504 2.1914063,2.29687504 1.2187503,0 1.6640623,-1.1015625 1.6640623,-1.28906254 z m -0.65625,-1.3242187 H 8.1668047 c 0.058594,-1.4882813 0.9023437,-1.734375 1.2421875,-1.734375 1.0195308,0 1.1249998,1.3476562 1.1249998,1.734375 z m 4.248047,1.2773437 v -0.5742187 h -0.246094 v 0.5507812 c 0,0.73828129 -0.304687,1.11328129 -0.667968,1.11328129 -0.667969,0 -0.667969,-0.90234379 -0.667969,-1.07812499 v -2.765625 h 1.429687 v -0.3046875 h -1.429687 v -1.8398438 h -0.246094 c -0.01172,0.8203125 -0.316406,1.8867188 -1.289062,1.921875 v 0.2226563 h 0.84375 v 2.7539062 c 0,1.21875004 0.925781,1.33593754 1.289062,1.33593754 0.703125,0 0.984375,-0.703125 0.984375,-1.33593754 z m 5.387695,0.33984379 V -1.4401641 h -0.257812 v 0.55078129 c 0,0.5859375 -0.246094,0.64453125 -0.351563,0.64453125 -0.328125,0 -0.375,-0.45703125 -0.375,-0.50390625 V -2.7409453 c 0,-0.4101563 0,-0.8085938 -0.351562,-1.171875 -0.386719,-0.3867188 -0.890625,-0.5507813 -1.371094,-0.5507813 -0.808594,0 -1.5,0.46875 -1.5,1.125 0,0.3046875 0.199219,0.46875 0.457031,0.46875 0.28125,0 0.457032,-0.1992187 0.457032,-0.4570312 0,-0.1171875 -0.04687,-0.4453125 -0.503907,-0.4570313 0.269532,-0.3515625 0.75,-0.4570312 1.078125,-0.4570312 0.480469,0 1.054688,0.3867187 1.054688,1.2773437 v 0.3632813 c -0.515625,0.035156 -1.207031,0.058594 -1.839844,0.3632812 -0.75,0.3398438 -0.996094,0.8554688 -0.996094,1.28906254 0,0.80859375 0.972657,1.0546875 1.59375,1.0546875 0.65625,0 1.113282,-0.3984375 1.3125,-0.8671875 0.03516,0.3984375 0.304688,0.8203125 0.773438,0.8203125 0.210937,0 0.820312,-0.140625 0.820312,-0.94921875 z M 18.505672,-1.3932891 c 0,0.94921879 -0.726563,1.28906254 -1.171875,1.28906254 -0.480469,0 -0.890625,-0.3515625 -0.890625,-0.85546875 0,-0.53906249 0.410156,-1.37109379 2.0625,-1.42968749 z m 0,0"
       style="fill:#000000;fill-opacity:1;fill-rule:nonzero;stroke:none"
       aria-label="Beta"
       transform="matrix(1.3333333,0,0,1.3333333,206.17733,289.096)" />
    <path
       id="path51"
       d="m -1.49442,-1.99252 h 2.98883 v 7.97023 h -2.98883 z m 5.97767,0 h 2.98883 v 5.9777 H 4.48325 Z"
       style="fill:#ecd9c6;fill-opacity:1;fill-rule:nonzero;stroke:#734c26;stroke-width:0.3985;stroke-linecap:butt;stroke-linejoin:miter;stroke-miterlimit:10;stroke-dasharray:none;stroke-opacity:1"
       transform="matrix(1.3333333,0,0,-1.3333333,238.204,285.556)" />
    <path
       id="path52"
       d="m 7.3256016,-2.4144219 v -0.3046875 l -1.21875,0.023437 c -0.3984375,0 -1.2421875,0 -1.6054688,-0.023437 v 0.3046875 h 0.3164063 c 0.9023437,0 0.9257812,0.1171875 0.9257812,0.4804688 v 0.6328125 c 0,1.12499998 -1.2539062,1.20703123 -1.5351562,1.20703123 -0.65625,0 -2.625,-0.33984375 -2.625,-3.31640623 0,-2.9765625 1.96875,-3.3046875 2.5664062,-3.3046875 1.0664063,0 1.96875,0.9023437 2.1679688,2.3671875 0.023437,0.1289062 0.023437,0.1640625 0.1640625,0.1640625 0.1523437,0 0.1523437,-0.035156 0.1523437,-0.234375 v -2.3671875 c 0,-0.1640625 0,-0.234375 -0.1054687,-0.234375 -0.046875,0 -0.082031,0 -0.1640625,0.1171875 l -0.4921875,0.7382812 c -0.328125,-0.3164062 -0.8554688,-0.8554687 -1.8515625,-0.8554687 -1.8515625,0 -3.45703129,1.5703125 -3.45703129,3.609375 0,2.0507812 1.59374999,3.63281248 3.48046879,3.63281248 0.7265625,0 1.5234375,-0.2578125 1.8632812,-0.85546875 0.1289063,0.22265625 0.5273438,0.62109375 0.6328125,0.62109375 0.09375,0 0.09375,-0.08203125 0.09375,-0.22265625 V -1.9691094 c 0,-0.3867187 0.046875,-0.4453125 0.6914063,-0.4453125 z m 5.3115234,1.52343753 V -1.4417656 h -0.257813 v 0.55078123 c 0,0.5859375 -0.246093,0.64453125 -0.351562,0.64453125 -0.328125,0 -0.375,-0.45703125 -0.375,-0.50390625 V -2.7425469 c 0,-0.4101562 0,-0.8085937 -0.351563,-1.171875 -0.386718,-0.3867187 -0.890625,-0.5507812 -1.3710933,-0.5507812 -0.8085937,0 -1.5,0.46875 -1.5,1.125 0,0.3046875 0.1992188,0.46875 0.4570313,0.46875 0.28125,0 0.4570312,-0.1992188 0.4570312,-0.4570313 0,-0.1171875 -0.046875,-0.4453125 -0.5039062,-0.4570312 0.2695312,-0.3515625 0.75,-0.4570313 1.078125,-0.4570313 0.480469,0 1.054687,0.3867188 1.054687,1.2773438 v 0.3632812 c -0.515625,0.035156 -1.2070308,0.058594 -1.8398433,0.3632813 -0.75,0.3398437 -0.9960937,0.8554687 -0.9960937,1.28906248 0,0.80859375 0.9726562,1.0546875 1.59375,1.0546875 0.65625,0 1.113281,-0.3984375 1.3125,-0.8671875 0.03516,0.3984375 0.304687,0.8203125 0.773437,0.8203125 0.210938,0 0.820313,-0.140625 0.820313,-0.94921875 z M 10.973062,-1.3948906 c 0,0.94921873 -0.726562,1.28906248 -1.1718745,1.28906248 -0.4804688,0 -0.890625,-0.3515625 -0.890625,-0.85546875 0,-0.53906253 0.4101562,-1.37109373 2.0624995,-1.42968753 z m 9.925782,1.394531225 V -0.30504687 c -0.515625,0 -0.761719,0 -0.773438,-0.3046875 V -2.5081719 c 0,-0.8554687 0,-1.171875 -0.316406,-1.5234375 -0.128906,-0.1757812 -0.46875,-0.375 -1.042969,-0.375 -0.832031,0 -1.277344,0.5976563 -1.441406,0.984375 -0.140625,-0.8671875 -0.878906,-0.984375 -1.324219,-0.984375 -0.726562,0 -1.195312,0.4335938 -1.476562,1.0546875 v -1.0546875 l -1.40625,0.1171875 v 0.3046875 c 0.703125,0 0.785156,0.070312 0.785156,0.5625 v 2.66015628 c 0,0.45703125 -0.117188,0.45703125 -0.785156,0.45703125 v 0.304687495 l 1.125,-0.035156245 1.113281,0.035156245 V -0.30504687 c -0.65625,0 -0.773438,0 -0.773438,-0.45703125 V -2.5902031 c 0,-1.03125 0.714844,-1.59375 1.347657,-1.59375 0.621093,0 0.738281,0.5390625 0.738281,1.1015625 v 2.32031248 c 0,0.45703125 -0.117188,0.45703125 -0.773438,0.45703125 v 0.304687495 l 1.125,-0.035156245 1.113282,0.035156245 V -0.30504687 c -0.667969,0 -0.785157,0 -0.785157,-0.45703125 V -2.5902031 c 0,-1.03125 0.714844,-1.59375 1.347657,-1.59375 0.632812,0 0.738281,0.5390625 0.738281,1.1015625 v 2.32031248 c 0,0.45703125 -0.105469,0.45703125 -0.773438,0.45703125 v 0.304687495 l 1.125,-0.035156245 z m 8.299804,0 V -0.30504687 c -0.515625,0 -0.761718,0 -0.773437,-0.3046875 V -2.5081719 c 0,-0.8554687 0,-1.171875 -0.316406,-1.5234375 -0.128907,-0.1757812 -0.46875,-0.375 -1.042969,-0.375 -0.832031,0 -1.277344,0.5976563 -1.441406,0.984375 -0.140625,-0.8671875 -0.878907,-0.984375 -1.324219,-0.984375 -0.726563,0 -1.195313,0.4335938 -1.476563,1.0546875 v -1.0546875 l -1.40625,0.1171875 v 0.3046875 c 0.703125,0 0.785157,0.070312 0.785157,0.5625 v 2.66015628 c 0,0.45703125 -0.117188,0.45703125 -0.785157,0.45703125 v 0.304687495 l 1.125,-0.035156245 1.113282,0.035156245 V -0.30504687 c -0.65625,0 -0.773438,0 -0.773438,-0.45703125 V -2.5902031 c 0,-1.03125 0.714844,-1.59375 1.347656,-1.59375 0.621094,0 0.738282,0.5390625 0.738282,1.1015625 v 2.32031248 c 0,0.45703125 -0.117188,0.45703125 -0.773438,0.45703125 v 0.304687495 l 1.125,-0.035156245 1.113281,0.035156245 V -0.30504687 c -0.667968,0 -0.785156,0 -0.785156,-0.45703125 V -2.5902031 c 0,-1.03125 0.714844,-1.59375 1.347656,-1.59375 0.632813,0 0.738282,0.5390625 0.738282,1.1015625 v 2.32031248 c 0,0.45703125 -0.105469,0.45703125 -0.773438,0.45703125 v 0.304687495 l 1.125,-0.035156245 z M 34.217203,-0.89098437 V -1.4417656 h -0.257812 v 0.55078123 c 0,0.5859375 -0.246094,0.64453125 -0.351563,0.64453125 -0.328125,0 -0.375,-0.45703125 -0.375,-0.50390625 V -2.7425469 c 0,-0.4101562 0,-0.8085937 -0.351562,-1.171875 -0.386719,-0.3867187 -0.890625,-0.5507812 -1.371094,-0.5507812 -0.808594,0 -1.5,0.46875 -1.5,1.125 0,0.3046875 0.199219,0.46875 0.457031,0.46875 0.28125,0 0.457031,-0.1992188 0.457031,-0.4570313 0,-0.1171875 -0.04687,-0.4453125 -0.503906,-0.4570312 0.269531,-0.3515625 0.75,-0.4570313 1.078125,-0.4570313 0.480469,0 1.054688,0.3867188 1.054688,1.2773438 v 0.3632812 c -0.515625,0.035156 -1.207032,0.058594 -1.839844,0.3632813 -0.75,0.3398437 -0.996094,0.8554687 -0.996094,1.28906248 0,0.80859375 0.972656,1.0546875 1.59375,1.0546875 0.65625,0 1.113281,-0.3984375 1.3125,-0.8671875 0.03516,0.3984375 0.304688,0.8203125 0.773438,0.8203125 0.210937,0 0.820312,-0.140625 0.820312,-0.94921875 z M 32.553141,-1.3948906 c 0,0.94921873 -0.726563,1.28906248 -1.171875,1.28906248 -0.480469,0 -0.890625,-0.3515625 -0.890625,-0.85546875 0,-0.53906253 0.410156,-1.37109373 2.0625,-1.42968753 z m 0,0"
       style="fill:#000000;fill-opacity:1;fill-rule:nonzero;stroke:none"
       aria-label="Gamma"
       transform="matrix(1.3333333,0,0,1.3333333,251.088,289.24267)" />
  </g>
</svg>
