<?xml version="1.0" encoding="UTF-8" standalone="no"?>
<!-- Created with Inkscape (http://www.inkscape.org/) -->

<svg
   version="1.1"
   id="svg1"
   width="289.83868"
   height="228.71867"
   viewBox="0 0 289.83868 228.71867"
   xmlns="http://www.w3.org/2000/svg"
   xmlns:svg="http://www.w3.org/2000/svg">
  <defs
     id="defs1">
    <clipPath
       clipPathUnits="userSpaceOnUse"
       id="clipPath33">
      <path
         d="m 194.26303,17.89224 v 91.32242 L 61.77779,131.48859 0,83.7118 V -7.61058 L 132.48523,-29.8845 Z"
         id="path33" />
    </clipPath>
    <clipPath
       clipPathUnits="userSpaceOnUse"
       id="clipPath35">
      <path
         d="m 194.26303,17.89224 v 91.32242 L 61.77779,131.48859 0,83.7118 V -7.61058 L 132.48523,-29.8845 Z"
         id="path35" />
    </clipPath>
    <clipPath
       clipPathUnits="userSpaceOnUse"
       id="clipPath37">
      <path
         d="m 194.26303,17.89224 v 91.32242 L 61.77779,131.48859 0,83.7118 V -7.61058 L 132.48523,-29.8845 Z"
         id="path37" />
    </clipPath>
    <clipPath
       clipPathUnits="userSpaceOnUse"
       id="clipPath39">
      <path
         d="m 194.26303,17.89224 v 91.32242 L 61.77779,131.48859 0,83.7118 V -7.61058 L 132.48523,-29.8845 Z"
         id="path39" />
    </clipPath>
    <clipPath
       clipPathUnits="userSpaceOnUse"
       id="clipPath41">
      <path
         d="m 194.26303,17.89224 v 91.32242 L 61.77779,131.48859 0,83.7118 V -7.61058 L 132.48523,-29.8845 Z"
         id="path41" />
    </clipPath>
    <clipPath
       clipPathUnits="userSpaceOnUse"
       id="clipPath43">
      <path
         d="m 194.26303,17.89224 v 91.32242 L 61.77779,131.48859 0,83.7118 V -7.61058 L 132.48523,-29.8845 Z"
         id="path43" />
    </clipPath>
    <clipPath
       clipPathUnits="userSpaceOnUse"
       id="clipPath45">
      <path
         d="m 194.26303,17.89224 v 91.32242 L 61.77779,131.48859 0,83.7118 V -7.61058 L 132.48523,-29.8845 Z"
         id="path45" />
    </clipPath>
    <clipPath
       clipPathUnits="userSpaceOnUse"
       id="clipPath47">
      <path
         d="m 194.26303,17.89224 v 91.32242 L 61.77779,131.48859 0,83.7118 V -7.61058 L 132.48523,-29.8845 Z"
         id="path47" />
    </clipPath>
    <clipPath
       clipPathUnits="userSpaceOnUse"
       id="clipPath49">
      <path
         d="m 194.26303,17.89224 v 91.32242 L 61.77779,131.48859 0,83.7118 V -7.61058 L 132.48523,-29.8845 Z"
         id="path49" />
    </clipPath>
    <clipPath
       clipPathUnits="userSpaceOnUse"
       id="clipPath51">
      <path
         d="m 194.26303,17.89224 v 91.32242 L 61.77779,131.48859 0,83.7118 V -7.61058 L 132.48523,-29.8845 Z"
         id="path51" />
    </clipPath>
    <clipPath
       clipPathUnits="userSpaceOnUse"
       id="clipPath53">
      <path
         d="m 194.26303,17.89224 v 91.32242 L 61.77779,131.48859 0,83.7118 V -7.61058 L 132.48523,-29.8845 Z"
         id="path53" />
    </clipPath>
    <clipPath
       clipPathUnits="userSpaceOnUse"
       id="clipPath55">
      <path
         d="m 194.26303,17.89224 v 91.32242 L 61.77779,131.48859 0,83.7118 V -7.61058 L 132.48523,-29.8845 Z"
         id="path55" />
    </clipPath>
    <clipPath
       clipPathUnits="userSpaceOnUse"
       id="clipPath57">
      <path
         d="m 194.26303,17.89224 v 91.32242 L 61.77779,131.48859 0,83.7118 V -7.61058 L 132.48523,-29.8845 Z"
         id="path57" />
    </clipPath>
    <clipPath
       clipPathUnits="userSpaceOnUse"
       id="clipPath59">
      <path
         d="m 194.26303,17.89224 v 91.32242 L 61.77779,131.48859 0,83.7118 V -7.61058 L 132.48523,-29.8845 Z"
         id="path59" />
    </clipPath>
    <clipPath
       clipPathUnits="userSpaceOnUse"
       id="clipPath61">
      <path
         d="m 194.26303,17.89224 v 91.32242 L 61.77779,131.48859 0,83.7118 V -7.61058 L 132.48523,-29.8845 Z"
         id="path61" />
    </clipPath>
    <clipPath
       clipPathUnits="userSpaceOnUse"
       id="clipPath63">
      <path
         d="m 194.26303,17.89224 v 91.32242 L 61.77779,131.48859 0,83.7118 V -7.61058 L 132.48523,-29.8845 Z"
         id="path63" />
    </clipPath>
    <clipPath
       clipPathUnits="userSpaceOnUse"
       id="clipPath65">
      <path
         d="m 194.26303,17.89224 v 91.32242 L 61.77779,131.48859 0,83.7118 V -7.61058 L 132.48523,-29.8845 Z"
         id="path65" />
    </clipPath>
    <clipPath
       clipPathUnits="userSpaceOnUse"
       id="clipPath67">
      <path
         d="m 194.26303,17.89224 v 91.32242 L 61.77779,131.48859 0,83.7118 V -7.61058 L 132.48523,-29.8845 Z"
         id="path67" />
    </clipPath>
    <clipPath
       clipPathUnits="userSpaceOnUse"
       id="clipPath69">
      <path
         d="m 194.26303,17.89224 v 91.32242 L 61.77779,131.48859 0,83.7118 V -7.61058 L 132.48523,-29.8845 Z"
         id="path69" />
    </clipPath>
    <clipPath
       clipPathUnits="userSpaceOnUse"
       id="clipPath71">
      <path
         d="m 194.26303,17.89224 v 91.32242 L 61.77779,131.48859 0,83.7118 V -7.61058 L 132.48523,-29.8845 Z"
         id="path71" />
    </clipPath>
    <clipPath
       clipPathUnits="userSpaceOnUse"
       id="clipPath73">
      <path
         d="m 194.26303,17.89224 v 91.32242 L 61.77779,131.48859 0,83.7118 V -7.61058 L 132.48523,-29.8845 Z"
         id="path73" />
    </clipPath>
    <clipPath
       clipPathUnits="userSpaceOnUse"
       id="clipPath75">
      <path
         d="m 194.26303,17.89224 v 91.32242 L 61.77779,131.48859 0,83.7118 V -7.61058 L 132.48523,-29.8845 Z"
         id="path75" />
    </clipPath>
    <clipPath
       clipPathUnits="userSpaceOnUse"
       id="clipPath77">
      <path
         d="m 194.26303,17.89224 v 91.32242 L 61.77779,131.48859 0,83.7118 V -7.61058 L 132.48523,-29.8845 Z"
         id="path77" />
    </clipPath>
    <clipPath
       clipPathUnits="userSpaceOnUse"
       id="clipPath79">
      <path
         d="m 194.26303,17.89224 v 91.32242 L 61.77779,131.48859 0,83.7118 V -7.61058 L 132.48523,-29.8845 Z"
         id="path79" />
    </clipPath>
    <clipPath
       clipPathUnits="userSpaceOnUse"
       id="clipPath81">
      <path
         d="m 194.26303,17.89224 v 91.32242 L 61.77779,131.48859 0,83.7118 V -7.61058 L 132.48523,-29.8845 Z"
         id="path81" />
    </clipPath>
    <clipPath
       clipPathUnits="userSpaceOnUse"
       id="clipPath83">
      <path
         d="m 194.26303,17.89224 v 91.32242 L 61.77779,131.48859 0,83.7118 V -7.61058 L 132.48523,-29.8845 Z"
         id="path83" />
    </clipPath>
    <clipPath
       clipPathUnits="userSpaceOnUse"
       id="clipPath85">
      <path
         d="m 194.26303,17.89224 v 91.32242 L 61.77779,131.48859 0,83.7118 V -7.61058 L 132.48523,-29.8845 Z"
         id="path85" />
    </clipPath>
    <clipPath
       clipPathUnits="userSpaceOnUse"
       id="clipPath87">
      <path
         d="m 194.26303,17.89224 v 91.32242 L 61.77779,131.48859 0,83.7118 V -7.61058 L 132.48523,-29.8845 Z"
         id="path87" />
    </clipPath>
    <clipPath
       clipPathUnits="userSpaceOnUse"
       id="clipPath89">
      <path
         d="m 194.26303,17.89224 v 91.32242 L 61.77779,131.48859 0,83.7118 V -7.61058 L 132.48523,-29.8845 Z"
         id="path89" />
    </clipPath>
    <clipPath
       clipPathUnits="userSpaceOnUse"
       id="clipPath91">
      <path
         d="m 194.26303,17.89224 v 91.32242 L 61.77779,131.48859 0,83.7118 V -7.61058 L 132.48523,-29.8845 Z"
         id="path91" />
    </clipPath>
    <clipPath
       clipPathUnits="userSpaceOnUse"
       id="clipPath93">
      <path
         d="m 194.26303,17.89224 v 91.32242 L 61.77779,131.48859 0,83.7118 V -7.61058 L 132.48523,-29.8845 Z"
         id="path93" />
    </clipPath>
    <clipPath
       clipPathUnits="userSpaceOnUse"
       id="clipPath95">
      <path
         d="m 194.26303,17.89224 v 91.32242 L 61.77779,131.48859 0,83.7118 V -7.61058 L 132.48523,-29.8845 Z"
         id="path95" />
    </clipPath>
    <clipPath
       clipPathUnits="userSpaceOnUse"
       id="clipPath97">
      <path
         d="m 194.26303,17.89224 v 91.32242 L 61.77779,131.48859 0,83.7118 V -7.61058 L 132.48523,-29.8845 Z"
         id="path97" />
    </clipPath>
    <clipPath
       clipPathUnits="userSpaceOnUse"
       id="clipPath99">
      <path
         d="m 194.26303,17.89224 v 91.32242 L 61.77779,131.48859 0,83.7118 V -7.61058 L 132.48523,-29.8845 Z"
         id="path99" />
    </clipPath>
    <clipPath
       clipPathUnits="userSpaceOnUse"
       id="clipPath101">
      <path
         d="m 194.26303,17.89224 v 91.32242 L 61.77779,131.48859 0,83.7118 V -7.61058 L 132.48523,-29.8845 Z"
         id="path101" />
    </clipPath>
    <clipPath
       clipPathUnits="userSpaceOnUse"
       id="clipPath103">
      <path
         d="m 194.26303,17.89224 v 91.32242 L 61.77779,131.48859 0,83.7118 V -7.61058 L 132.48523,-29.8845 Z"
         id="path103" />
    </clipPath>
    <clipPath
       clipPathUnits="userSpaceOnUse"
       id="clipPath105">
      <path
         d="m 194.26303,17.89224 v 91.32242 L 61.77779,131.48859 0,83.7118 V -7.61058 L 132.48523,-29.8845 Z"
         id="path105" />
    </clipPath>
    <clipPath
       clipPathUnits="userSpaceOnUse"
       id="clipPath107">
      <path
         d="m 194.26303,17.89224 v 91.32242 L 61.77779,131.48859 0,83.7118 V -7.61058 L 132.48523,-29.8845 Z"
         id="path107" />
    </clipPath>
    <clipPath
       clipPathUnits="userSpaceOnUse"
       id="clipPath109">
      <path
         d="m 194.26303,17.89224 v 91.32242 L 61.77779,131.48859 0,83.7118 V -7.61058 L 132.48523,-29.8845 Z"
         id="path109" />
    </clipPath>
    <clipPath
       clipPathUnits="userSpaceOnUse"
       id="clipPath111">
      <path
         d="m 194.26303,17.89224 v 91.32242 L 61.77779,131.48859 0,83.7118 V -7.61058 L 132.48523,-29.8845 Z"
         id="path111" />
    </clipPath>
    <clipPath
       clipPathUnits="userSpaceOnUse"
       id="clipPath113">
      <path
         d="m 194.26303,17.89224 v 91.32242 L 61.77779,131.48859 0,83.7118 V -7.61058 L 132.48523,-29.8845 Z"
         id="path113" />
    </clipPath>
    <clipPath
       clipPathUnits="userSpaceOnUse"
       id="clipPath115">
      <path
         d="m 194.26303,17.89224 v 91.32242 L 61.77779,131.48859 0,83.7118 V -7.61058 L 132.48523,-29.8845 Z"
         id="path115" />
    </clipPath>
    <clipPath
       clipPathUnits="userSpaceOnUse"
       id="clipPath117">
      <path
         d="m 194.26303,17.89224 v 91.32242 L 61.77779,131.48859 0,83.7118 V -7.61058 L 132.48523,-29.8845 Z"
         id="path117" />
    </clipPath>
    <clipPath
       clipPathUnits="userSpaceOnUse"
       id="clipPath119">
      <path
         d="m 194.26303,17.89224 v 91.32242 L 61.77779,131.48859 0,83.7118 V -7.61058 L 132.48523,-29.8845 Z"
         id="path119" />
    </clipPath>
    <clipPath
       clipPathUnits="userSpaceOnUse"
       id="clipPath121">
      <path
         d="m 194.26303,17.89224 v 91.32242 L 61.77779,131.48859 0,83.7118 V -7.61058 L 132.48523,-29.8845 Z"
         id="path121" />
    </clipPath>
    <clipPath
       clipPathUnits="userSpaceOnUse"
       id="clipPath123">
      <path
         d="m 194.26303,17.89224 v 91.32242 L 61.77779,131.48859 0,83.7118 V -7.61058 L 132.48523,-29.8845 Z"
         id="path123" />
    </clipPath>
    <clipPath
       clipPathUnits="userSpaceOnUse"
       id="clipPath125">
      <path
         d="m 194.26303,17.89224 v 91.32242 L 61.77779,131.48859 0,83.7118 V -7.61058 L 132.48523,-29.8845 Z"
         id="path125" />
    </clipPath>
    <clipPath
       clipPathUnits="userSpaceOnUse"
       id="clipPath127">
      <path
         d="m 194.26303,17.89224 v 91.32242 L 61.77779,131.48859 0,83.7118 V -7.61058 L 132.48523,-29.8845 Z"
         id="path127" />
    </clipPath>
    <clipPath
       clipPathUnits="userSpaceOnUse"
       id="clipPath129">
      <path
         d="m 194.26303,17.89224 v 91.32242 L 61.77779,131.48859 0,83.7118 V -7.61058 L 132.48523,-29.8845 Z"
         id="path129" />
    </clipPath>
    <clipPath
       clipPathUnits="userSpaceOnUse"
       id="clipPath131">
      <path
         d="m 194.26303,17.89224 v 91.32242 L 61.77779,131.48859 0,83.7118 V -7.61058 L 132.48523,-29.8845 Z"
         id="path131" />
    </clipPath>
    <clipPath
       clipPathUnits="userSpaceOnUse"
       id="clipPath133">
      <path
         d="m 194.26303,17.89224 v 91.32242 L 61.77779,131.48859 0,83.7118 V -7.61058 L 132.48523,-29.8845 Z"
         id="path133" />
    </clipPath>
    <clipPath
       clipPathUnits="userSpaceOnUse"
       id="clipPath135">
      <path
         d="m 194.26303,17.89224 v 91.32242 L 61.77779,131.48859 0,83.7118 V -7.61058 L 132.48523,-29.8845 Z"
         id="path135" />
    </clipPath>
    <clipPath
       clipPathUnits="userSpaceOnUse"
       id="clipPath137">
      <path
         d="m 194.26303,17.89224 v 91.32242 L 61.77779,131.48859 0,83.7118 V -7.61058 L 132.48523,-29.8845 Z"
         id="path137" />
    </clipPath>
    <clipPath
       clipPathUnits="userSpaceOnUse"
       id="clipPath139">
      <path
         d="m 194.26303,17.89224 v 91.32242 L 61.77779,131.48859 0,83.7118 V -7.61058 L 132.48523,-29.8845 Z"
         id="path139" />
    </clipPath>
    <clipPath
       clipPathUnits="userSpaceOnUse"
       id="clipPath141">
      <path
         d="m 194.26303,17.89224 v 91.32242 L 61.77779,131.48859 0,83.7118 V -7.61058 L 132.48523,-29.8845 Z"
         id="path141" />
    </clipPath>
    <clipPath
       clipPathUnits="userSpaceOnUse"
       id="clipPath143">
      <path
         d="m 194.26303,17.89224 v 91.32242 L 61.77779,131.48859 0,83.7118 V -7.61058 L 132.48523,-29.8845 Z"
         id="path143" />
    </clipPath>
    <clipPath
       clipPathUnits="userSpaceOnUse"
       id="clipPath145">
      <path
         d="m 194.26303,17.89224 v 91.32242 L 61.77779,131.48859 0,83.7118 V -7.61058 L 132.48523,-29.8845 Z"
         id="path145" />
    </clipPath>
    <clipPath
       clipPathUnits="userSpaceOnUse"
       id="clipPath147">
      <path
         d="m 194.26303,17.89224 v 91.32242 L 61.77779,131.48859 0,83.7118 V -7.61058 L 132.48523,-29.8845 Z"
         id="path147" />
    </clipPath>
    <clipPath
       clipPathUnits="userSpaceOnUse"
       id="clipPath149">
      <path
         d="m 194.26303,17.89224 v 91.32242 L 61.77779,131.48859 0,83.7118 V -7.61058 L 132.48523,-29.8845 Z"
         id="path149" />
    </clipPath>
    <clipPath
       clipPathUnits="userSpaceOnUse"
       id="clipPath151">
      <path
         d="m 194.26303,17.89224 v 91.32242 L 61.77779,131.48859 0,83.7118 V -7.61058 L 132.48523,-29.8845 Z"
         id="path151" />
    </clipPath>
    <clipPath
       clipPathUnits="userSpaceOnUse"
       id="clipPath153">
      <path
         d="m 194.26303,17.89224 v 91.32242 L 61.77779,131.48859 0,83.7118 V -7.61058 L 132.48523,-29.8845 Z"
         id="path153" />
    </clipPath>
    <clipPath
       clipPathUnits="userSpaceOnUse"
       id="clipPath155">
      <path
         d="m 194.26303,17.89224 v 91.32242 L 61.77779,131.48859 0,83.7118 V -7.61058 L 132.48523,-29.8845 Z"
         id="path155" />
    </clipPath>
    <clipPath
       clipPathUnits="userSpaceOnUse"
       id="clipPath157">
      <path
         d="m 194.26303,17.89224 v 91.32242 L 61.77779,131.48859 0,83.7118 V -7.61058 L 132.48523,-29.8845 Z"
         id="path157" />
    </clipPath>
    <clipPath
       clipPathUnits="userSpaceOnUse"
       id="clipPath159">
      <path
         d="m 194.26303,17.89224 v 91.32242 L 61.77779,131.48859 0,83.7118 V -7.61058 L 132.48523,-29.8845 Z"
         id="path159" />
    </clipPath>
    <clipPath
       clipPathUnits="userSpaceOnUse"
       id="clipPath161">
      <path
         d="m 194.26303,17.89224 v 91.32242 L 61.77779,131.48859 0,83.7118 V -7.61058 L 132.48523,-29.8845 Z"
         id="path161" />
    </clipPath>
    <clipPath
       clipPathUnits="userSpaceOnUse"
       id="clipPath163">
      <path
         d="m 194.26303,17.89224 v 91.32242 L 61.77779,131.48859 0,83.7118 V -7.61058 L 132.48523,-29.8845 Z"
         id="path163" />
    </clipPath>
    <clipPath
       clipPathUnits="userSpaceOnUse"
       id="clipPath165">
      <path
         d="m 194.26303,17.89224 v 91.32242 L 61.77779,131.48859 0,83.7118 V -7.61058 L 132.48523,-29.8845 Z"
         id="path165" />
    </clipPath>
    <clipPath
       clipPathUnits="userSpaceOnUse"
       id="clipPath167">
      <path
         d="m 194.26303,17.89224 v 91.32242 L 61.77779,131.48859 0,83.7118 V -7.61058 L 132.48523,-29.8845 Z"
         id="path167" />
    </clipPath>
    <clipPath
       clipPathUnits="userSpaceOnUse"
       id="clipPath169">
      <path
         d="m 194.26303,17.89224 v 91.32242 L 61.77779,131.48859 0,83.7118 V -7.61058 L 132.48523,-29.8845 Z"
         id="path169" />
    </clipPath>
    <clipPath
       clipPathUnits="userSpaceOnUse"
       id="clipPath171">
      <path
         d="m 194.26303,17.89224 v 91.32242 L 61.77779,131.48859 0,83.7118 V -7.61058 L 132.48523,-29.8845 Z"
         id="path171" />
    </clipPath>
    <clipPath
       clipPathUnits="userSpaceOnUse"
       id="clipPath173">
      <path
         d="m 194.26303,17.89224 v 91.32242 L 61.77779,131.48859 0,83.7118 V -7.61058 L 132.48523,-29.8845 Z"
         id="path173" />
    </clipPath>
    <clipPath
       clipPathUnits="userSpaceOnUse"
       id="clipPath175">
      <path
         d="m 194.26303,17.89224 v 91.32242 L 61.77779,131.48859 0,83.7118 V -7.61058 L 132.48523,-29.8845 Z"
         id="path175" />
    </clipPath>
    <clipPath
       clipPathUnits="userSpaceOnUse"
       id="clipPath177">
      <path
         d="m 194.26303,17.89224 v 91.32242 L 61.77779,131.48859 0,83.7118 V -7.61058 L 132.48523,-29.8845 Z"
         id="path177" />
    </clipPath>
    <clipPath
       clipPathUnits="userSpaceOnUse"
       id="clipPath179">
      <path
         d="m 194.26303,17.89224 v 91.32242 L 61.77779,131.48859 0,83.7118 V -7.61058 L 132.48523,-29.8845 Z"
         id="path179" />
    </clipPath>
    <clipPath
       clipPathUnits="userSpaceOnUse"
       id="clipPath181">
      <path
         d="m 194.26303,17.89224 v 91.32242 L 61.77779,131.48859 0,83.7118 V -7.61058 L 132.48523,-29.8845 Z"
         id="path181" />
    </clipPath>
    <clipPath
       clipPathUnits="userSpaceOnUse"
       id="clipPath183">
      <path
         d="m 194.26303,17.89224 v 91.32242 L 61.77779,131.48859 0,83.7118 V -7.61058 L 132.48523,-29.8845 Z"
         id="path183" />
    </clipPath>
    <clipPath
       clipPathUnits="userSpaceOnUse"
       id="clipPath185">
      <path
         d="m 194.26303,17.89224 v 91.32242 L 61.77779,131.48859 0,83.7118 V -7.61058 L 132.48523,-29.8845 Z"
         id="path185" />
    </clipPath>
    <clipPath
       clipPathUnits="userSpaceOnUse"
       id="clipPath187">
      <path
         d="m 194.26303,17.89224 v 91.32242 L 61.77779,131.48859 0,83.7118 V -7.61058 L 132.48523,-29.8845 Z"
         id="path187" />
    </clipPath>
    <clipPath
       clipPathUnits="userSpaceOnUse"
       id="clipPath189">
      <path
         d="m 194.26303,17.89224 v 91.32242 L 61.77779,131.48859 0,83.7118 V -7.61058 L 132.48523,-29.8845 Z"
         id="path189" />
    </clipPath>
    <clipPath
       clipPathUnits="userSpaceOnUse"
       id="clipPath191">
      <path
         d="m 194.26303,17.89224 v 91.32242 L 61.77779,131.48859 0,83.7118 V -7.61058 L 132.48523,-29.8845 Z"
         id="path191" />
    </clipPath>
    <clipPath
       clipPathUnits="userSpaceOnUse"
       id="clipPath193">
      <path
         d="m 194.26303,17.89224 v 91.32242 L 61.77779,131.48859 0,83.7118 V -7.61058 L 132.48523,-29.8845 Z"
         id="path193" />
    </clipPath>
  </defs>
  <g
     id="g1">
    <path
       id="path1"
       d="m 22.08087,-11.32289 3.36389,2.6015 m 40.79785,-10.02615 3.36389,2.60151 m 40.79786,-10.02617 3.36389,2.60152 M 83.85867,36.45387 80.49475,33.85234 m 47.52567,-4.82312 -3.36391,-2.60153 m 47.52565,-4.82312 -3.36391,-2.60153"
       style="fill:none;stroke:#808080;stroke-width:0.19925;stroke-linecap:butt;stroke-linejoin:miter;stroke-miterlimit:10;stroke-dasharray:none;stroke-opacity:1"
       transform="matrix(1.3333333,0,0,-1.3333333,29.045333,175.58133)" />
    <path
       id="path2"
       d="m 10.2963,0.3522 4.19326,-0.70495 m 16.39933,16.63055 4.19326,-0.70497 m 16.39934,16.63057 4.19327,-0.70499 m 87.10678,-53.42013 -4.19328,0.705 m 24.78587,15.2206 -4.19328,0.70498 m 24.78589,15.2206 -4.19329,0.70499"
       style="fill:none;stroke:#808080;stroke-width:0.19925;stroke-linecap:butt;stroke-linejoin:miter;stroke-miterlimit:10;stroke-dasharray:none;stroke-opacity:1"
       transform="matrix(1.3333333,0,0,-1.3333333,29.045333,175.58133)" />
    <path
       id="path3"
       d="M 0,-7.61058 132.48523,-29.8845"
       style="fill:none;stroke:#000000;stroke-width:0.3985;stroke-linecap:butt;stroke-linejoin:miter;stroke-miterlimit:10;stroke-dasharray:none;stroke-opacity:1"
       transform="matrix(1.3333333,0,0,-1.3333333,29.045333,175.58133)" />
    <path
       id="path4"
       d="M 61.77779,40.16618 194.26303,17.89224"
       style="fill:none;stroke:#000000;stroke-width:0.3985;stroke-linecap:butt;stroke-linejoin:miter;stroke-miterlimit:10;stroke-dasharray:none;stroke-opacity:1"
       transform="matrix(1.3333333,0,0,-1.3333333,29.045333,175.58133)" />
    <path
       id="path5"
       d="M 0,-7.61058 61.77779,40.16618"
       style="fill:none;stroke:#000000;stroke-width:0.3985;stroke-linecap:butt;stroke-linejoin:miter;stroke-miterlimit:10;stroke-dasharray:none;stroke-opacity:1"
       transform="matrix(1.3333333,0,0,-1.3333333,29.045333,175.58133)" />
    <path
       id="path6"
       d="m 132.48523,-29.8845 61.7778,47.77674"
       style="fill:none;stroke:#000000;stroke-width:0.3985;stroke-linecap:butt;stroke-linejoin:miter;stroke-miterlimit:10;stroke-dasharray:none;stroke-opacity:1"
       transform="matrix(1.3333333,0,0,-1.3333333,29.045333,175.58133)" />
    <path
       id="path7"
       d="m 6.5623359,-2.2954453 c 0.1757813,0 0.3515625,0 0.3515625,-0.1992188 0,-0.1992187 -0.1757812,-0.1992187 -0.3515625,-0.1992187 h -5.390625 c -0.1640625,0 -0.33984371,0 -0.33984371,0.1992187 0,0.1992188 0.17578121,0.1992188 0.33984371,0.1992188 z m 0,0"
       style="fill:#000000;fill-opacity:1;fill-rule:nonzero;stroke:none"
       aria-label="−"
       transform="matrix(1.3333333,0,0,1.3333333,44.676,205.252)" />
    <path
       id="path8"
       d="M 1.2654844,-0.76028906 2.3201719,-1.7915391 c 1.5585937,-1.3710937 2.15625,-1.9101562 2.15625,-2.90625 0,-1.1367187 -0.9023438,-1.9335937 -2.1210938,-1.9335937 -1.125,0 -1.85156248,0.9140625 -1.85156248,1.8046875 0,0.5507812 0.4921875,0.5507812 0.52734378,0.5507812 0.1640625,0 0.515625,-0.1171875 0.515625,-0.5273437 0,-0.2578125 -0.1875,-0.515625 -0.5273438,-0.515625 -0.0820312,0 -0.10546873,0 -0.12890623,0.011719 C 1.1131406,-5.951695 1.6522031,-6.326695 2.2264219,-6.326695 c 0.9140625,0 1.3359375,0.8085937 1.3359375,1.6289062 0,0.796875 -0.4921875,1.5820313 -1.0429688,2.203125 L 0.60923437,-0.36185156 C 0.50376562,-0.25638281 0.50376562,-0.23294531 0.50376562,0.00142969 H 4.1951719 l 0.28125,-1.73437499 H 4.2186094 c -0.046875,0.3046875 -0.1171875,0.73828124 -0.2109375,0.89062499 -0.070312,0.0820313 -0.7265625,0.0820313 -0.9492188,0.0820313 z m 0,0"
       style="fill:#000000;fill-opacity:1;fill-rule:nonzero;stroke:none"
       aria-label="2"
       transform="matrix(1.3333333,0,0,1.3333333,55.008,205.252)" />
    <path
       id="path9"
       d="m 4.5814219,-3.1885312 c 0,-0.796875 -0.046875,-1.59375 -0.3984375,-2.3320313 -0.4570313,-0.9609375 -1.2773438,-1.1132812 -1.6875,-1.1132812 -0.5976563,0 -1.3359375,0.2578125 -1.73437502,1.1835937 -0.328125,0.6914063 -0.375,1.4648438 -0.375,2.2617188 0,0.75 0.046875,1.640625 0.4453125,2.4023437 C 1.2650156,0.02240625 1.9915781,0.221625 2.4837656,0.221625 c 0.5390625,0 1.2890625,-0.2109375 1.734375,-1.16015625 C 4.5345469,-1.6299375 4.5814219,-2.403375 4.5814219,-3.1885312 Z m -2.0976563,3.18749995 c -0.3867187,0 -0.984375,-0.24609375 -1.1601562,-1.20703125 -0.1054688,-0.5976562 -0.1054688,-1.5117187 -0.1054688,-2.0976562 0,-0.6445313 0,-1.3007813 0.082031,-1.8398438 0.1875,-1.1835937 0.9257812,-1.265625 1.1835937,-1.265625 0.328125,0 0.984375,0.1757813 1.171875,1.1601563 0.09375,0.5625 0.09375,1.3125 0.09375,1.9453125 0,0.75 0,1.4179687 -0.1054687,2.0625 -0.1523438,0.93749995 -0.7148438,1.24218745 -1.160156,1.24218745 z m 0,0"
       style="fill:#000000;fill-opacity:1;fill-rule:nonzero;stroke:none"
       aria-label="0"
       transform="matrix(1.3333333,0,0,1.3333333,109.368,214.392)" />
    <path
       id="path10"
       d="M 1.266125,-0.76292187 2.3208125,-1.7941719 c 1.5585937,-1.3710937 2.15625,-1.9101562 2.15625,-2.90625 0,-1.1367187 -0.9023438,-1.9335937 -2.1210938,-1.9335937 -1.125,0 -1.85156245,0.9140625 -1.85156245,1.8046875 0,0.5507812 0.4921875,0.5507812 0.52734375,0.5507812 0.1640625,0 0.515625,-0.1171875 0.515625,-0.5273437 0,-0.2578125 -0.1875,-0.515625 -0.5273438,-0.515625 -0.0820312,0 -0.1054687,0 -0.1289062,0.011719 0.2226562,-0.6445312 0.7617187,-1.0195312 1.3359375,-1.0195312 0.9140625,0 1.3359375,0.8085937 1.3359375,1.6289062 0,0.796875 -0.4921875,1.5820313 -1.0429688,2.203125 L 0.609875,-0.36448437 C 0.50440625,-0.25901562 0.50440625,-0.23557812 0.50440625,-0.00120312 H 4.1958125 l 0.28125,-1.73437498 H 4.21925 C 4.172375,-1.4308906 4.1020625,-0.99729687 4.0083125,-0.84495312 3.938,-0.76292187 3.28175,-0.76292187 3.0590937,-0.76292187 Z m 0,0"
       style="fill:#000000;fill-opacity:1;fill-rule:nonzero;stroke:none"
       aria-label="2"
       transform="matrix(1.3333333,0,0,1.3333333,168.24933,224.29067)" />
    <path
       id="path11"
       d="m 6.5622187,-2.2971016 c 0.1757813,0 0.3515625,0 0.3515625,-0.1992187 0,-0.1992188 -0.1757812,-0.1992188 -0.3515625,-0.1992188 h -5.390625 c -0.1640625,0 -0.3398437,0 -0.3398437,0.1992188 0,0.1992187 0.1757812,0.1992187 0.3398437,0.1992187 z m 0,0"
       style="fill:#000000;fill-opacity:1;fill-rule:nonzero;stroke:none"
       aria-label="−"
       transform="matrix(1.3333333,0,0,1.3333333,221.016,220.45733)" />
    <path
       id="path12"
       d="M 1.2653672,-0.76194531 2.3200547,-1.7931953 c 1.5585937,-1.3710938 2.15625,-1.9101563 2.15625,-2.90625 0,-1.1367188 -0.9023438,-1.9335938 -2.1210938,-1.9335938 -1.125,0 -1.85156246,0.9140625 -1.85156246,1.8046875 0,0.5507813 0.4921875,0.5507813 0.52734376,0.5507813 0.1640625,0 0.515625,-0.1171875 0.515625,-0.5273438 0,-0.2578125 -0.1875,-0.515625 -0.5273438,-0.515625 -0.0820312,0 -0.10546871,0 -0.12890621,0.011719 0.22265621,-0.6445313 0.76171871,-1.0195313 1.33593751,-1.0195313 0.9140625,0 1.3359375,0.8085938 1.3359375,1.6289063 0,0.796875 -0.4921875,1.5820312 -1.0429688,2.203125 L 0.60911719,-0.36350781 C 0.50364844,-0.25803906 0.50364844,-0.23460156 0.50364844,-2.265625e-4 H 4.1950547 L 4.4763047,-1.7346016 H 4.2184922 c -0.046875,0.3046875 -0.1171875,0.73828129 -0.2109375,0.89062504 -0.070312,0.0820313 -0.7265625,0.0820313 -0.9492188,0.0820313 z m 0,0"
       style="fill:#000000;fill-opacity:1;fill-rule:nonzero;stroke:none"
       aria-label="2"
       transform="matrix(1.3333333,0,0,1.3333333,231.348,220.45733)" />
    <path
       id="path13"
       d="m 4.5824063,-3.1879922 c 0,-0.796875 -0.046875,-1.59375 -0.3984375,-2.3320312 -0.4570313,-0.9609375 -1.2773438,-1.1132813 -1.6875,-1.1132813 -0.5976563,0 -1.3359375,0.2578125 -1.73437505,1.1835938 -0.328125,0.6914062 -0.375,1.4648437 -0.375,2.2617187 0,0.75 0.046875,1.640625 0.4453125,2.40234376 C 1.266,0.02294531 1.9925625,0.22216406 2.48475,0.22216406 c 0.5390625,0 1.2890625,-0.2109375 1.734375,-1.16015625 C 4.5355313,-1.6293984 4.5824063,-2.4028359 4.5824063,-3.1879922 Z M 2.48475,-4.921875e-4 c -0.3867187,0 -0.984375,-0.2460937525 -1.1601562,-1.2070312125 C 1.219125,-1.8051797 1.219125,-2.7192422 1.219125,-3.3051797 c 0,-0.6445312 0,-1.3007812 0.082031,-1.8398437 0.1875,-1.1835938 0.9257812,-1.265625 1.1835937,-1.265625 0.328125,0 0.984375,0.1757812 1.171875,1.1601562 0.09375,0.5625 0.09375,1.3125 0.09375,1.9453125 0,0.75 0,1.4179688 -0.1054687,2.0625 C 3.4925625,-0.30517969 2.9300625,-4.921875e-4 2.48475,-4.921875e-4 Z m 0,0"
       style="fill:#000000;fill-opacity:1;fill-rule:nonzero;stroke:none"
       aria-label="0"
       transform="matrix(1.3333333,0,0,1.3333333,251.312,197.028)" />
    <path
       id="path14"
       d="M 1.2657734,-0.76199219 2.3204609,-1.7932422 c 1.5585938,-1.3710937 2.15625,-1.9101562 2.15625,-2.90625 0,-1.1367187 -0.9023437,-1.9335937 -2.1210937,-1.9335937 -1.125,0 -1.85156251,0.9140625 -1.85156251,1.8046875 0,0.5507812 0.4921875,0.5507812 0.52734371,0.5507812 0.1640625,0 0.515625,-0.1171875 0.515625,-0.5273437 0,-0.2578125 -0.1875,-0.515625 -0.5273437,-0.515625 -0.0820313,0 -0.10546876,0 -0.12890626,0.011719 0.22265626,-0.6445312 0.76171876,-1.0195312 1.33593746,-1.0195312 0.9140625,0 1.3359375,0.8085937 1.3359375,1.6289062 0,0.796875 -0.4921875,1.5820313 -1.0429687,2.203125 L 0.60952344,-0.36355469 C 0.50405469,-0.25808594 0.50405469,-0.23464844 0.50405469,-2.734375e-4 H 4.1954609 L 4.4767109,-1.7346484 H 4.2188984 c -0.046875,0.3046875 -0.1171875,0.73828121 -0.2109375,0.89062496 -0.070312,0.0820313 -0.7265625,0.0820313 -0.9492187,0.0820313 z m 0,0"
       style="fill:#000000;fill-opacity:1;fill-rule:nonzero;stroke:none"
       aria-label="2"
       transform="matrix(1.3333333,0,0,1.3333333,278.76933,175.79333)" />
    <path
       id="path15"
       d="m 83.85867,127.77628 -3.36392,-2.60154 m 47.52567,-4.82312 -3.36391,-2.60153 m 47.52565,-4.82312 -3.36391,-2.60153"
       style="fill:none;stroke:#808080;stroke-width:0.19925;stroke-linecap:butt;stroke-linejoin:miter;stroke-miterlimit:10;stroke-dasharray:none;stroke-opacity:1"
       transform="matrix(1.3333333,0,0,-1.3333333,29.045333,175.58133)" />
    <path
       id="path16"
       d="m 10.2963,91.6746 4.19326,-0.70496 m 16.39933,16.63056 4.19326,-0.70497 m 16.39934,16.63057 4.19327,-0.70498"
       style="fill:none;stroke:#808080;stroke-width:0.19925;stroke-linecap:butt;stroke-linejoin:miter;stroke-miterlimit:10;stroke-dasharray:none;stroke-opacity:1"
       transform="matrix(1.3333333,0,0,-1.3333333,29.045333,175.58133)" />
    <path
       id="path17"
       d="M 61.77779,131.48859 194.26303,109.21466"
       style="fill:none;stroke:#000000;stroke-width:0.3985;stroke-linecap:butt;stroke-linejoin:miter;stroke-miterlimit:10;stroke-dasharray:none;stroke-opacity:1"
       transform="matrix(1.3333333,0,0,-1.3333333,29.045333,175.58133)" />
    <path
       id="path18"
       d="m 0,83.7118 61.77779,47.77679"
       style="fill:none;stroke:#000000;stroke-width:0.3985;stroke-linecap:butt;stroke-linejoin:miter;stroke-miterlimit:10;stroke-dasharray:none;stroke-opacity:1"
       transform="matrix(1.3333333,0,0,-1.3333333,29.045333,175.58133)" />
    <path
       id="path19"
       d="m 10.2963,0.3522 v 4.2517 m 20.59259,11.6739 v 4.2517 m 20.5926,11.6739 v 4.25168 M 10.2963,91.6746 v -4.25167 m 20.59259,20.17727 v -4.25169 m 20.5926,20.17729 v -4.25169"
       style="fill:none;stroke:#808080;stroke-width:0.19925;stroke-linecap:butt;stroke-linejoin:miter;stroke-miterlimit:10;stroke-dasharray:none;stroke-opacity:1"
       transform="matrix(1.3333333,0,0,-1.3333333,29.045333,175.58133)" />
    <path
       id="path20"
       d="M 0,-0.0116 3.36389,2.5899 M 0,46.97162 l 3.36389,2.6015 m 58.4139,-1.80795 -3.36391,-2.60153 m 3.36391,49.58474 -3.36391,-2.60151"
       style="fill:none;stroke:#808080;stroke-width:0.19925;stroke-linecap:butt;stroke-linejoin:miter;stroke-miterlimit:10;stroke-dasharray:none;stroke-opacity:1"
       transform="matrix(1.3333333,0,0,-1.3333333,29.045333,175.58133)" />
    <path
       id="path21"
       d="M 0,-7.61058 V 83.7118"
       style="fill:none;stroke:#000000;stroke-width:0.3985;stroke-linecap:butt;stroke-linejoin:miter;stroke-miterlimit:10;stroke-dasharray:none;stroke-opacity:1"
       transform="matrix(1.3333333,0,0,-1.3333333,29.045333,175.58133)" />
    <path
       id="path22"
       d="m 61.77779,40.16618 v 91.32241"
       style="fill:none;stroke:#000000;stroke-width:0.3985;stroke-linecap:butt;stroke-linejoin:miter;stroke-miterlimit:10;stroke-dasharray:none;stroke-opacity:1"
       transform="matrix(1.3333333,0,0,-1.3333333,29.045333,175.58133)" />
    <path
       id="path23"
       d="m 4.5822344,-3.1884609 c 0,-0.796875 -0.046875,-1.59375 -0.3984375,-2.3320313 -0.4570313,-0.9609375 -1.2773438,-1.1132812 -1.6875,-1.1132812 -0.5976563,0 -1.3359375,0.2578125 -1.73437503,1.1835937 -0.328125,0.6914063 -0.375,1.4648438 -0.375,2.2617188 0,0.75 0.046875,1.640625 0.4453125,2.40234371 0.43359373,0.80859375 1.16015623,1.0078125 1.65234373,1.0078125 0.5390625,0 1.2890625,-0.2109375 1.734375,-1.16015625 C 4.5353594,-1.6298672 4.5822344,-2.4033047 4.5822344,-3.1884609 Z M 2.4845781,-9.609375e-4 c -0.3867187,0 -0.984375,-0.2460937525 -1.1601562,-1.2070312625 -0.1054688,-0.5976562 -0.1054688,-1.5117187 -0.1054688,-2.0976562 0,-0.6445313 0,-1.3007813 0.082031,-1.8398438 0.1875,-1.1835937 0.9257812,-1.265625 1.1835937,-1.265625 0.328125,0 0.984375,0.1757813 1.171875,1.1601563 0.09375,0.5625 0.09375,1.3125 0.09375,1.9453125 0,0.75 0,1.4179687 -0.1054687,2.0625 -0.1523438,0.93749996 -0.7148438,1.2421874625 -1.160156,1.2421874625 z m 0,0"
       style="fill:#000000;fill-opacity:1;fill-rule:nonzero;stroke:none"
       aria-label="0"
       transform="matrix(1.3333333,0,0,1.3333333,17.710667,181.888)" />
    <path
       id="path24"
       d="M 1.2668906,-0.76210156 2.3215781,-1.7933516 c 1.5585938,-1.3710937 2.15625,-1.9101562 2.15625,-2.90625 0,-1.1367187 -0.9023437,-1.9335937 -2.1210937,-1.9335937 -1.125,0 -1.85156253,0.9140625 -1.85156253,1.8046875 0,0.5507812 0.4921875,0.5507812 0.52734373,0.5507812 0.1640625,0 0.515625,-0.1171875 0.515625,-0.5273437 0,-0.2578125 -0.1875,-0.515625 -0.5273437,-0.515625 -0.0820313,0 -0.10546878,0 -0.12890628,0.011719 0.22265628,-0.6445312 0.76171878,-1.0195312 1.33593748,-1.0195312 0.9140625,0 1.3359375,0.8085937 1.3359375,1.6289062 0,0.796875 -0.4921875,1.5820313 -1.0429687,2.203125 L 0.61064062,-0.36366406 C 0.50517187,-0.25819531 0.50517187,-0.23475781 0.50517187,-3.828125e-4 H 4.1965781 L 4.4778281,-1.7347578 H 4.2200156 c -0.046875,0.3046875 -0.1171875,0.73828124 -0.2109375,0.89062499 -0.070312,0.0820313 -0.7265625,0.0820313 -0.9492187,0.0820313 z m 8.296875,-2.42578124 c 0,-0.796875 -0.046875,-1.59375 -0.3984375,-2.3320313 -0.4570312,-0.9609375 -1.2773437,-1.1132812 -1.6875,-1.1132812 -0.5976562,0 -1.3359375,0.2578125 -1.734375,1.1835937 -0.328125,0.6914063 -0.375,1.4648438 -0.375,2.2617188 0,0.75 0.046875,1.640625 0.4453125,2.40234374 0.4335938,0.80859375 1.1601563,1.0078125 1.6523438,1.0078125 0.5390625,0 1.2890625,-0.2109375 1.734375,-1.16015625 C 9.5168906,-1.6292891 9.5637656,-2.4027266 9.5637656,-3.1878828 Z M 7.4661094,-3.828125e-4 c -0.3867188,0 -0.984375,-0.2460937475 -1.1601563,-1.2070312875 -0.1054687,-0.5976562 -0.1054687,-1.5117187 -0.1054687,-2.0976562 0,-0.6445313 0,-1.3007813 0.082031,-1.8398438 0.1875,-1.1835937 0.9257813,-1.265625 1.1835938,-1.265625 0.328125,0 0.984375,0.1757813 1.171875,1.1601563 0.09375,0.5625 0.09375,1.3125 0.09375,1.9453125 0,0.75 0,1.4179687 -0.1054688,2.0625 -0.1523435,0.93749999 -0.7148435,1.2421874875 -1.160156,1.2421874875 z M 14.544234,-3.1878828 c 0,-0.796875 -0.04687,-1.59375 -0.398437,-2.3320313 -0.457031,-0.9609375 -1.277344,-1.1132812 -1.6875,-1.1132812 -0.597656,0 -1.335938,0.2578125 -1.734375,1.1835937 -0.328125,0.6914063 -0.375,1.4648438 -0.375,2.2617188 0,0.75 0.04687,1.640625 0.445312,2.40234374 0.433594,0.80859375 1.160157,1.0078125 1.652344,1.0078125 0.539063,0 1.289063,-0.2109375 1.734375,-1.16015625 0.316406,-0.69140629 0.363281,-1.46484379 0.363281,-2.24999999 z m -2.097656,3.1874999875 c -0.386719,0 -0.984375,-0.2460937475 -1.160156,-1.2070312875 -0.105469,-0.5976562 -0.105469,-1.5117187 -0.105469,-2.0976562 0,-0.6445313 0,-1.3007813 0.08203,-1.8398438 0.1875,-1.1835937 0.925782,-1.265625 1.183594,-1.265625 0.328125,0 0.984375,0.1757813 1.171875,1.1601563 0.09375,0.5625 0.09375,1.3125 0.09375,1.9453125 0,0.75 0,1.4179687 -0.105469,2.0625 -0.152343,0.93749999 -0.714843,1.2421874875 -1.160156,1.2421874875 z m 0,0"
       style="fill:#000000;fill-opacity:1;fill-rule:nonzero;stroke:none"
       aria-label="200"
       transform="matrix(1.3333333,0,0,1.3333333,4.428,120.91067)" />
    <path
       id="path25"
       d="m 142.78154,-21.92172 v 4.25169 m 20.59259,11.67391 v 4.25169 m 20.59261,11.67389 v 4.25168"
       style="fill:none;stroke:#808080;stroke-width:0.19925;stroke-linecap:butt;stroke-linejoin:miter;stroke-miterlimit:10;stroke-dasharray:none;stroke-opacity:1"
       transform="matrix(1.3333333,0,0,-1.3333333,29.045333,175.58133)" />
    <path
       id="path26"
       d="m 194.26303,25.49123 -3.36391,-2.60152 m 3.36391,49.58475 -3.36391,-2.60154"
       style="fill:none;stroke:#808080;stroke-width:0.19925;stroke-linecap:butt;stroke-linejoin:miter;stroke-miterlimit:10;stroke-dasharray:none;stroke-opacity:1"
       transform="matrix(1.3333333,0,0,-1.3333333,29.045333,175.58133)" />
    <path
       id="path27"
       d="m 194.26303,17.89224 v 91.32242"
       style="fill:none;stroke:#000000;stroke-width:0.3985;stroke-linecap:butt;stroke-linejoin:miter;stroke-miterlimit:10;stroke-dasharray:none;stroke-opacity:1"
       transform="matrix(1.3333333,0,0,-1.3333333,29.045333,175.58133)" />
    <path
       id="path28"
       d="m 22.08087,-11.32289 v 4.25168 m 44.16174,-11.67633 v 4.25169 m 44.16175,-11.67635 v 4.2517"
       style="fill:none;stroke:#808080;stroke-width:0.19925;stroke-linecap:butt;stroke-linejoin:miter;stroke-miterlimit:10;stroke-dasharray:none;stroke-opacity:1"
       transform="matrix(1.3333333,0,0,-1.3333333,29.045333,175.58133)" />
    <path
       id="path29"
       d="M 0,-0.0116 4.19327,-0.71657 M 0,46.97162 4.19327,46.26663"
       style="fill:none;stroke:#808080;stroke-width:0.19925;stroke-linecap:butt;stroke-linejoin:miter;stroke-miterlimit:10;stroke-dasharray:none;stroke-opacity:1"
       transform="matrix(1.3333333,0,0,-1.3333333,29.045333,175.58133)" />
    <path
       id="path30"
       d="m 83.85867,36.45387 v 4.25168 m 44.16175,-11.67633 v 4.25169 m 44.16174,-11.67634 v 4.25169 M 83.85867,127.77628 v -4.2517 m 44.16175,-3.17296 v -4.25169 m 44.16174,-3.17296 v -4.25167"
       style="fill:none;stroke:#808080;stroke-width:0.19925;stroke-linecap:butt;stroke-linejoin:miter;stroke-miterlimit:10;stroke-dasharray:none;stroke-opacity:1"
       transform="matrix(1.3333333,0,0,-1.3333333,29.045333,175.58133)" />
    <path
       id="path31"
       d="m 61.77779,47.76517 4.19326,-0.70497 m -4.19326,47.68818 4.19326,-0.70497 m 128.29198,-68.55218 -4.19328,0.705 m 4.19328,46.27823 -4.19328,0.70498"
       style="fill:none;stroke:#808080;stroke-width:0.19925;stroke-linecap:butt;stroke-linejoin:miter;stroke-miterlimit:10;stroke-dasharray:none;stroke-opacity:1"
       transform="matrix(1.3333333,0,0,-1.3333333,29.045333,175.58133)" />
    <path
       id="path32"
       d="M 61.77911,123.88258 76.49945,94.3077 69.6351,67.83847 54.91476,91.47362 Z"
       style="fill:#ff8100;fill-opacity:1;fill-rule:nonzero;stroke:#cc6700;stroke-width:0.3985;stroke-linecap:butt;stroke-linejoin:miter;stroke-miterlimit:10;stroke-dasharray:none;stroke-opacity:1"
       transform="matrix(1.3333333,0,0,-1.3333333,29.045333,175.58133)"
       clip-path="url(#clipPath33)" />
    <path
       id="path34"
       d="M 76.49945,94.3077 91.21977,75.4058 84.35542,53.39139 69.6351,67.83847 Z"
       style="fill:#ffe100;fill-opacity:1;fill-rule:nonzero;stroke:#ccb400;stroke-width:0.3985;stroke-linecap:butt;stroke-linejoin:miter;stroke-miterlimit:10;stroke-dasharray:none;stroke-opacity:1"
       transform="matrix(1.3333333,0,0,-1.3333333,29.045333,175.58133)"
       clip-path="url(#clipPath35)" />
    <path
       id="path36"
       d="M 91.21977,75.4058 105.9401,63.83578 99.07574,44.79128 84.35542,53.39139 Z"
       style="fill:#cdcd32;fill-opacity:1;fill-rule:nonzero;stroke:#a4a428;stroke-width:0.3985;stroke-linecap:butt;stroke-linejoin:miter;stroke-miterlimit:10;stroke-dasharray:none;stroke-opacity:1"
       transform="matrix(1.3333333,0,0,-1.3333333,29.045333,175.58133)"
       clip-path="url(#clipPath37)" />
    <path
       id="path38"
       d="m 105.9401,63.83578 14.7203,-6.46551 -6.86435,-17.55959 -14.72031,4.9806 z"
       style="fill:#979768;fill-opacity:1;fill-rule:nonzero;stroke:#797953;stroke-width:0.3985;stroke-linecap:butt;stroke-linejoin:miter;stroke-miterlimit:10;stroke-dasharray:none;stroke-opacity:1"
       transform="matrix(1.3333333,0,0,-1.3333333,29.045333,175.58133)"
       clip-path="url(#clipPath39)" />
    <path
       id="path40"
       d="m 120.6604,57.37027 14.72034,-2.47476 -6.86435,-17.55959 -14.72034,2.47476 z"
       style="fill:#868679;fill-opacity:1;fill-rule:nonzero;stroke:#6b6b61;stroke-width:0.3985;stroke-linecap:butt;stroke-linejoin:miter;stroke-miterlimit:10;stroke-dasharray:none;stroke-opacity:1"
       transform="matrix(1.3333333,0,0,-1.3333333,29.045333,175.58133)"
       clip-path="url(#clipPath41)" />
    <path
       id="path42"
       d="m 135.38074,54.89551 14.72032,1.51603 -6.86435,-19.04452 -14.72032,-0.0311 z"
       style="fill:#979768;fill-opacity:1;fill-rule:nonzero;stroke:#797953;stroke-width:0.3985;stroke-linecap:butt;stroke-linejoin:miter;stroke-miterlimit:10;stroke-dasharray:none;stroke-opacity:1"
       transform="matrix(1.3333333,0,0,-1.3333333,29.045333,175.58133)"
       clip-path="url(#clipPath43)" />
    <path
       id="path44"
       d="m 150.10106,56.41154 14.72032,6.62049 -6.86435,-22.01439 -14.72032,-3.65062 z"
       style="fill:#cdcd32;fill-opacity:1;fill-rule:nonzero;stroke:#a4a428;stroke-width:0.3985;stroke-linecap:butt;stroke-linejoin:miter;stroke-miterlimit:10;stroke-dasharray:none;stroke-opacity:1"
       transform="matrix(1.3333333,0,0,-1.3333333,29.045333,175.58133)"
       clip-path="url(#clipPath45)" />
    <path
       id="path46"
       d="M 164.82138,63.03203 179.5417,76.98444 172.67735,50.51521 157.95703,41.01764 Z"
       style="fill:#ffe100;fill-opacity:1;fill-rule:nonzero;stroke:#ccb400;stroke-width:0.3985;stroke-linecap:butt;stroke-linejoin:miter;stroke-miterlimit:10;stroke-dasharray:none;stroke-opacity:1"
       transform="matrix(1.3333333,0,0,-1.3333333,29.045333,175.58133)"
       clip-path="url(#clipPath47)" />
    <path
       id="path48"
       d="m 179.5417,76.98444 14.72032,24.62539 -6.86433,-32.40898 -14.72034,-18.68564 z"
       style="fill:#ff8100;fill-opacity:1;fill-rule:nonzero;stroke:#cc6700;stroke-width:0.3985;stroke-linecap:butt;stroke-linejoin:miter;stroke-miterlimit:10;stroke-dasharray:none;stroke-opacity:1"
       transform="matrix(1.3333333,0,0,-1.3333333,29.045333,175.58133)"
       clip-path="url(#clipPath49)" />
    <path
       id="path50"
       d="M 54.91476,91.47362 69.6351,67.83847 62.77075,50.55731 48.05042,69.73764 Z"
       style="fill:#ffe100;fill-opacity:1;fill-rule:nonzero;stroke:#ccb400;stroke-width:0.3985;stroke-linecap:butt;stroke-linejoin:miter;stroke-miterlimit:10;stroke-dasharray:none;stroke-opacity:1"
       transform="matrix(1.3333333,0,0,-1.3333333,29.045333,175.58133)"
       clip-path="url(#clipPath51)" />
    <path
       id="path52"
       d="M 69.6351,67.83847 84.35542,53.39139 77.49107,39.45135 62.77075,50.55731 Z"
       style="fill:#a8a857;fill-opacity:1;fill-rule:nonzero;stroke:#868646;stroke-width:0.3985;stroke-linecap:butt;stroke-linejoin:miter;stroke-miterlimit:10;stroke-dasharray:none;stroke-opacity:1"
       transform="matrix(1.3333333,0,0,-1.3333333,29.045333,175.58133)"
       clip-path="url(#clipPath53)" />
    <path
       id="path54"
       d="M 84.35542,53.39139 99.07574,44.79128 92.2114,33.07864 77.49107,39.45135 Z"
       style="fill:#5b5ba4;fill-opacity:1;fill-rule:nonzero;stroke:#494983;stroke-width:0.3985;stroke-linecap:butt;stroke-linejoin:miter;stroke-miterlimit:10;stroke-dasharray:none;stroke-opacity:1"
       transform="matrix(1.3333333,0,0,-1.3333333,29.045333,175.58133)"
       clip-path="url(#clipPath55)" />
    <path
       id="path56"
       d="m 99.07574,44.79128 14.72031,-4.9806 -6.86433,-10.59892 -14.72032,3.86688 z"
       style="fill:#3838c7;fill-opacity:1;fill-rule:nonzero;stroke:#2d2d9f;stroke-width:0.3985;stroke-linecap:butt;stroke-linejoin:miter;stroke-miterlimit:10;stroke-dasharray:none;stroke-opacity:1"
       transform="matrix(1.3333333,0,0,-1.3333333,29.045333,175.58133)"
       clip-path="url(#clipPath57)" />
    <path
       id="path58"
       d="M 113.79605,39.81068 128.51639,37.33592 121.65204,26.737 106.93172,29.21176 Z"
       style="fill:#2e2ed1;fill-opacity:1;fill-rule:nonzero;stroke:#2525a7;stroke-width:0.3985;stroke-linecap:butt;stroke-linejoin:miter;stroke-miterlimit:10;stroke-dasharray:none;stroke-opacity:1"
       transform="matrix(1.3333333,0,0,-1.3333333,29.045333,175.58133)"
       clip-path="url(#clipPath59)" />
    <path
       id="path60"
       d="m 128.51639,37.33592 14.72032,0.0311 -6.86435,-11.71265 -14.72032,1.08263 z"
       style="fill:#3838c7;fill-opacity:1;fill-rule:nonzero;stroke:#2d2d9f;stroke-width:0.3985;stroke-linecap:butt;stroke-linejoin:miter;stroke-miterlimit:10;stroke-dasharray:none;stroke-opacity:1"
       transform="matrix(1.3333333,0,0,-1.3333333,29.045333,175.58133)"
       clip-path="url(#clipPath61)" />
    <path
       id="path62"
       d="m 143.23671,37.36702 14.72032,3.65062 -6.86435,-13.94004 -14.72032,-1.42323 z"
       style="fill:#5b5ba4;fill-opacity:1;fill-rule:nonzero;stroke:#494983;stroke-width:0.3985;stroke-linecap:butt;stroke-linejoin:miter;stroke-miterlimit:10;stroke-dasharray:none;stroke-opacity:1"
       transform="matrix(1.3333333,0,0,-1.3333333,29.045333,175.58133)"
       clip-path="url(#clipPath63)" />
    <path
       id="path64"
       d="M 157.95703,41.01764 172.67735,50.51521 165.813,33.23405 151.09268,27.0776 Z"
       style="fill:#a8a857;fill-opacity:1;fill-rule:nonzero;stroke:#868646;stroke-width:0.3985;stroke-linecap:butt;stroke-linejoin:miter;stroke-miterlimit:10;stroke-dasharray:none;stroke-opacity:1"
       transform="matrix(1.3333333,0,0,-1.3333333,29.045333,175.58133)"
       clip-path="url(#clipPath65)" />
    <path
       id="path66"
       d="M 172.67735,50.51521 187.39769,69.20085 180.53333,47.46489 165.813,33.23405 Z"
       style="fill:#ffe100;fill-opacity:1;fill-rule:nonzero;stroke:#ccb400;stroke-width:0.3985;stroke-linecap:butt;stroke-linejoin:miter;stroke-miterlimit:10;stroke-dasharray:none;stroke-opacity:1"
       transform="matrix(1.3333333,0,0,-1.3333333,29.045333,175.58133)"
       clip-path="url(#clipPath67)" />
    <path
       id="path68"
       d="M 48.05042,69.73764 62.77075,50.55731 55.90639,39.12312 41.18608,55.33357 Z"
       style="fill:#cdcd32;fill-opacity:1;fill-rule:nonzero;stroke:#a4a428;stroke-width:0.3985;stroke-linecap:butt;stroke-linejoin:miter;stroke-miterlimit:10;stroke-dasharray:none;stroke-opacity:1"
       transform="matrix(1.3333333,0,0,-1.3333333,29.045333,175.58133)"
       clip-path="url(#clipPath69)" />
    <path
       id="path70"
       d="M 62.77075,50.55731 77.49107,39.45135 70.62672,30.24457 55.90639,39.12312 Z"
       style="fill:#5b5ba4;fill-opacity:1;fill-rule:nonzero;stroke:#494983;stroke-width:0.3985;stroke-linecap:butt;stroke-linejoin:miter;stroke-miterlimit:10;stroke-dasharray:none;stroke-opacity:1"
       transform="matrix(1.3333333,0,0,-1.3333333,29.045333,175.58133)"
       clip-path="url(#clipPath71)" />
    <path
       id="path72"
       d="M 77.49107,39.45135 92.2114,33.07864 85.34705,25.35678 70.62672,30.24457 Z"
       style="fill:#2525da;fill-opacity:1;fill-rule:nonzero;stroke:#1e1eae;stroke-width:0.3985;stroke-linecap:butt;stroke-linejoin:miter;stroke-miterlimit:10;stroke-dasharray:none;stroke-opacity:1"
       transform="matrix(1.3333333,0,0,-1.3333333,29.045333,175.58133)"
       clip-path="url(#clipPath73)" />
    <path
       id="path74"
       d="m 92.2114,33.07864 14.72032,-3.86688 -6.86435,-6.97938 -14.72032,3.1244 z"
       style="fill:#1010ef;fill-opacity:1;fill-rule:nonzero;stroke:#0d0dbf;stroke-width:0.3985;stroke-linecap:butt;stroke-linejoin:miter;stroke-miterlimit:10;stroke-dasharray:none;stroke-opacity:1"
       transform="matrix(1.3333333,0,0,-1.3333333,29.045333,175.58133)"
       clip-path="url(#clipPath75)" />
    <path
       id="path76"
       d="m 106.93172,29.21176 14.72032,-2.47476 -6.86435,-6.97937 -14.72032,2.47475 z"
       style="fill:#0b0bf4;fill-opacity:1;fill-rule:nonzero;stroke:#0909c3;stroke-width:0.3985;stroke-linecap:butt;stroke-linejoin:miter;stroke-miterlimit:10;stroke-dasharray:none;stroke-opacity:1"
       transform="matrix(1.3333333,0,0,-1.3333333,29.045333,175.58133)"
       clip-path="url(#clipPath77)" />
    <path
       id="path78"
       d="m 121.65204,26.737 14.72032,-1.08263 -6.86435,-7.72183 -14.72032,1.82509 z"
       style="fill:#1010ef;fill-opacity:1;fill-rule:nonzero;stroke:#0d0dbf;stroke-width:0.3985;stroke-linecap:butt;stroke-linejoin:miter;stroke-miterlimit:10;stroke-dasharray:none;stroke-opacity:1"
       transform="matrix(1.3333333,0,0,-1.3333333,29.045333,175.58133)"
       clip-path="url(#clipPath79)" />
    <path
       id="path80"
       d="m 136.37236,25.65437 14.72032,1.42323 -6.86435,-9.20678 -14.72032,0.06172 z"
       style="fill:#2525da;fill-opacity:1;fill-rule:nonzero;stroke:#1e1eae;stroke-width:0.3985;stroke-linecap:butt;stroke-linejoin:miter;stroke-miterlimit:10;stroke-dasharray:none;stroke-opacity:1"
       transform="matrix(1.3333333,0,0,-1.3333333,29.045333,175.58133)"
       clip-path="url(#clipPath81)" />
    <path
       id="path82"
       d="m 151.09268,27.0776 14.72032,6.15645 -6.86435,-11.4342 -14.72032,-3.92903 z"
       style="fill:#5b5ba4;fill-opacity:1;fill-rule:nonzero;stroke:#494983;stroke-width:0.3985;stroke-linecap:butt;stroke-linejoin:miter;stroke-miterlimit:10;stroke-dasharray:none;stroke-opacity:1"
       transform="matrix(1.3333333,0,0,-1.3333333,29.045333,175.58133)"
       clip-path="url(#clipPath83)" />
    <path
       id="path84"
       d="M 165.813,33.23405 180.53333,47.46489 173.66898,33.0608 158.94865,21.79985 Z"
       style="fill:#cdcd32;fill-opacity:1;fill-rule:nonzero;stroke:#a4a428;stroke-width:0.3985;stroke-linecap:butt;stroke-linejoin:miter;stroke-miterlimit:10;stroke-dasharray:none;stroke-opacity:1"
       transform="matrix(1.3333333,0,0,-1.3333333,29.045333,175.58133)"
       clip-path="url(#clipPath85)" />
    <path
       id="path86"
       d="M 41.18608,55.33357 55.90639,39.12312 49.04205,31.30846 34.32173,46.03395 Z"
       style="fill:#979768;fill-opacity:1;fill-rule:nonzero;stroke:#797953;stroke-width:0.3985;stroke-linecap:butt;stroke-linejoin:miter;stroke-miterlimit:10;stroke-dasharray:none;stroke-opacity:1"
       transform="matrix(1.3333333,0,0,-1.3333333,29.045333,175.58133)"
       clip-path="url(#clipPath87)" />
    <path
       id="path88"
       d="M 55.90639,39.12312 70.62672,30.24457 63.76237,23.54361 49.04205,31.30846 Z"
       style="fill:#3838c7;fill-opacity:1;fill-rule:nonzero;stroke:#2d2d9f;stroke-width:0.3985;stroke-linecap:butt;stroke-linejoin:miter;stroke-miterlimit:10;stroke-dasharray:none;stroke-opacity:1"
       transform="matrix(1.3333333,0,0,-1.3333333,29.045333,175.58133)"
       clip-path="url(#clipPath89)" />
    <path
       id="path90"
       d="M 70.62672,30.24457 85.34705,25.35678 78.4827,19.3983 63.76237,23.54361 Z"
       style="fill:#1010ef;fill-opacity:1;fill-rule:nonzero;stroke:#0d0dbf;stroke-width:0.3985;stroke-linecap:butt;stroke-linejoin:miter;stroke-miterlimit:10;stroke-dasharray:none;stroke-opacity:1"
       transform="matrix(1.3333333,0,0,-1.3333333,29.045333,175.58133)"
       clip-path="url(#clipPath91)" />
    <path
       id="path92"
       d="M 85.34705,25.35678 100.06737,22.23238 93.20302,16.64513 78.4827,19.3983 Z"
       style="fill:#0404fb;fill-opacity:1;fill-rule:nonzero;stroke:#0303c9;stroke-width:0.3985;stroke-linecap:butt;stroke-linejoin:miter;stroke-miterlimit:10;stroke-dasharray:none;stroke-opacity:1"
       transform="matrix(1.3333333,0,0,-1.3333333,29.045333,175.58133)"
       clip-path="url(#clipPath93)" />
    <path
       id="path94"
       d="m 100.06737,22.23238 14.72032,-2.47475 -6.86435,-5.58727 -14.72032,2.47477 z"
       style="fill:#0101fe;fill-opacity:1;fill-rule:nonzero;stroke:#0101cb;stroke-width:0.3985;stroke-linecap:butt;stroke-linejoin:miter;stroke-miterlimit:10;stroke-dasharray:none;stroke-opacity:1"
       transform="matrix(1.3333333,0,0,-1.3333333,29.045333,175.58133)"
       clip-path="url(#clipPath95)" />
    <path
       id="path96"
       d="m 114.78769,19.75763 14.72032,-1.82509 -6.86433,-5.9585 -14.72034,2.19632 z"
       style="fill:#0404fb;fill-opacity:1;fill-rule:nonzero;stroke:#0303c9;stroke-width:0.3985;stroke-linecap:butt;stroke-linejoin:miter;stroke-miterlimit:10;stroke-dasharray:none;stroke-opacity:1"
       transform="matrix(1.3333333,0,0,-1.3333333,29.045333,175.58133)"
       clip-path="url(#clipPath97)" />
    <path
       id="path98"
       d="m 129.50801,17.93254 14.72032,-0.06172 -6.86435,-6.70097 -14.7203,0.80419 z"
       style="fill:#1010ef;fill-opacity:1;fill-rule:nonzero;stroke:#0d0dbf;stroke-width:0.3985;stroke-linecap:butt;stroke-linejoin:miter;stroke-miterlimit:10;stroke-dasharray:none;stroke-opacity:1"
       transform="matrix(1.3333333,0,0,-1.3333333,29.045333,175.58133)"
       clip-path="url(#clipPath99)" />
    <path
       id="path100"
       d="m 144.22833,17.87082 14.72032,3.92903 -6.86435,-7.81467 -14.72032,-2.81533 z"
       style="fill:#3838c7;fill-opacity:1;fill-rule:nonzero;stroke:#2d2d9f;stroke-width:0.3985;stroke-linecap:butt;stroke-linejoin:miter;stroke-miterlimit:10;stroke-dasharray:none;stroke-opacity:1"
       transform="matrix(1.3333333,0,0,-1.3333333,29.045333,175.58133)"
       clip-path="url(#clipPath101)" />
    <path
       id="path102"
       d="M 158.94865,21.79985 173.66898,33.0608 166.80463,23.7612 152.0843,13.98518 Z"
       style="fill:#979768;fill-opacity:1;fill-rule:nonzero;stroke:#797953;stroke-width:0.3985;stroke-linecap:butt;stroke-linejoin:miter;stroke-miterlimit:10;stroke-dasharray:none;stroke-opacity:1"
       transform="matrix(1.3333333,0,0,-1.3333333,29.045333,175.58133)"
       clip-path="url(#clipPath103)" />
    <path
       id="path104"
       d="M 34.32173,46.03395 49.04205,31.30846 42.1777,25.99963 27.45738,40.72513 Z"
       style="fill:#868679;fill-opacity:1;fill-rule:nonzero;stroke:#6b6b61;stroke-width:0.3985;stroke-linecap:butt;stroke-linejoin:miter;stroke-miterlimit:10;stroke-dasharray:none;stroke-opacity:1"
       transform="matrix(1.3333333,0,0,-1.3333333,29.045333,175.58133)"
       clip-path="url(#clipPath105)" />
    <path
       id="path106"
       d="M 49.04205,31.30846 63.76237,23.54361 56.89803,18.23479 42.1777,25.99963 Z"
       style="fill:#2e2ed1;fill-opacity:1;fill-rule:nonzero;stroke:#2525a7;stroke-width:0.3985;stroke-linecap:butt;stroke-linejoin:miter;stroke-miterlimit:10;stroke-dasharray:none;stroke-opacity:1"
       transform="matrix(1.3333333,0,0,-1.3333333,29.045333,175.58133)"
       clip-path="url(#clipPath107)" />
    <path
       id="path108"
       d="M 63.76237,23.54361 78.4827,19.3983 71.61835,14.08948 56.89803,18.23479 Z"
       style="fill:#0b0bf4;fill-opacity:1;fill-rule:nonzero;stroke:#0909c3;stroke-width:0.3985;stroke-linecap:butt;stroke-linejoin:miter;stroke-miterlimit:10;stroke-dasharray:none;stroke-opacity:1"
       transform="matrix(1.3333333,0,0,-1.3333333,29.045333,175.58133)"
       clip-path="url(#clipPath109)" />
    <path
       id="path110"
       d="M 78.4827,19.3983 93.20302,16.64513 86.33867,11.33629 71.61835,14.08948 Z"
       style="fill:#0101fe;fill-opacity:1;fill-rule:nonzero;stroke:#0101cb;stroke-width:0.3985;stroke-linecap:butt;stroke-linejoin:miter;stroke-miterlimit:10;stroke-dasharray:none;stroke-opacity:1"
       transform="matrix(1.3333333,0,0,-1.3333333,29.045333,175.58133)"
       clip-path="url(#clipPath111)" />
    <path
       id="path112"
       d="m 93.20302,16.64513 14.72032,-2.47477 -6.86435,-5.30882 -14.72032,2.47475 z"
       style="fill:#0000ff;fill-opacity:1;fill-rule:nonzero;stroke:#0000cc;stroke-width:0.3985;stroke-linecap:butt;stroke-linejoin:miter;stroke-miterlimit:10;stroke-dasharray:none;stroke-opacity:1"
       transform="matrix(1.3333333,0,0,-1.3333333,29.045333,175.58133)"
       clip-path="url(#clipPath113)" />
    <path
       id="path114"
       d="m 107.92334,14.17036 14.72034,-2.19632 -6.86435,-5.30882 -14.72034,2.19632 z"
       style="fill:#0101fe;fill-opacity:1;fill-rule:nonzero;stroke:#0101cb;stroke-width:0.3985;stroke-linecap:butt;stroke-linejoin:miter;stroke-miterlimit:10;stroke-dasharray:none;stroke-opacity:1"
       transform="matrix(1.3333333,0,0,-1.3333333,29.045333,175.58133)"
       clip-path="url(#clipPath115)" />
    <path
       id="path116"
       d="m 122.64368,11.97404 14.7203,-0.80419 -6.86433,-5.30883 -14.72032,0.8042 z"
       style="fill:#0b0bf4;fill-opacity:1;fill-rule:nonzero;stroke:#0909c3;stroke-width:0.3985;stroke-linecap:butt;stroke-linejoin:miter;stroke-miterlimit:10;stroke-dasharray:none;stroke-opacity:1"
       transform="matrix(1.3333333,0,0,-1.3333333,29.045333,175.58133)"
       clip-path="url(#clipPath117)" />
    <path
       id="path118"
       d="m 137.36398,11.16985 14.72032,2.81533 -6.86434,-5.3088 -14.72031,-2.81536 z"
       style="fill:#2e2ed1;fill-opacity:1;fill-rule:nonzero;stroke:#2525a7;stroke-width:0.3985;stroke-linecap:butt;stroke-linejoin:miter;stroke-miterlimit:10;stroke-dasharray:none;stroke-opacity:1"
       transform="matrix(1.3333333,0,0,-1.3333333,29.045333,175.58133)"
       clip-path="url(#clipPath119)" />
    <path
       id="path120"
       d="m 152.0843,13.98518 14.72033,9.77602 -6.86435,-5.30884 -14.72032,-9.77598 z"
       style="fill:#868679;fill-opacity:1;fill-rule:nonzero;stroke:#6b6b61;stroke-width:0.3985;stroke-linecap:butt;stroke-linejoin:miter;stroke-miterlimit:10;stroke-dasharray:none;stroke-opacity:1"
       transform="matrix(1.3333333,0,0,-1.3333333,29.045333,175.58133)"
       clip-path="url(#clipPath121)" />
    <path
       id="path122"
       d="M 27.45738,40.72513 42.1777,25.99963 35.31335,23.19664 20.59303,39.40707 Z"
       style="fill:#979768;fill-opacity:1;fill-rule:nonzero;stroke:#797953;stroke-width:0.3985;stroke-linecap:butt;stroke-linejoin:miter;stroke-miterlimit:10;stroke-dasharray:none;stroke-opacity:1"
       transform="matrix(1.3333333,0,0,-1.3333333,29.045333,175.58133)"
       clip-path="url(#clipPath123)" />
    <path
       id="path124"
       d="M 42.1777,25.99963 56.89803,18.23479 50.03369,14.31808 35.31335,23.19664 Z"
       style="fill:#3838c7;fill-opacity:1;fill-rule:nonzero;stroke:#2d2d9f;stroke-width:0.3985;stroke-linecap:butt;stroke-linejoin:miter;stroke-miterlimit:10;stroke-dasharray:none;stroke-opacity:1"
       transform="matrix(1.3333333,0,0,-1.3333333,29.045333,175.58133)"
       clip-path="url(#clipPath125)" />
    <path
       id="path126"
       d="M 56.89803,18.23479 71.61835,14.08948 64.754,9.43031 50.03369,14.31808 Z"
       style="fill:#1010ef;fill-opacity:1;fill-rule:nonzero;stroke:#0d0dbf;stroke-width:0.3985;stroke-linecap:butt;stroke-linejoin:miter;stroke-miterlimit:10;stroke-dasharray:none;stroke-opacity:1"
       transform="matrix(1.3333333,0,0,-1.3333333,29.045333,175.58133)"
       clip-path="url(#clipPath127)" />
    <path
       id="path128"
       d="M 71.61835,14.08948 86.33867,11.33629 79.47432,6.3059 64.754,9.43031 Z"
       style="fill:#0404fb;fill-opacity:1;fill-rule:nonzero;stroke:#0303c9;stroke-width:0.3985;stroke-linecap:butt;stroke-linejoin:miter;stroke-miterlimit:10;stroke-dasharray:none;stroke-opacity:1"
       transform="matrix(1.3333333,0,0,-1.3333333,29.045333,175.58133)"
       clip-path="url(#clipPath129)" />
    <path
       id="path130"
       d="M 86.33867,11.33629 101.05899,8.86154 94.19464,3.83115 79.47432,6.3059 Z"
       style="fill:#0101fe;fill-opacity:1;fill-rule:nonzero;stroke:#0101cb;stroke-width:0.3985;stroke-linecap:butt;stroke-linejoin:miter;stroke-miterlimit:10;stroke-dasharray:none;stroke-opacity:1"
       transform="matrix(1.3333333,0,0,-1.3333333,29.045333,175.58133)"
       clip-path="url(#clipPath131)" />
    <path
       id="path132"
       d="M 101.05899,8.86154 115.77933,6.66522 108.91498,2.00604 94.19464,3.83115 Z"
       style="fill:#0404fb;fill-opacity:1;fill-rule:nonzero;stroke:#0303c9;stroke-width:0.3985;stroke-linecap:butt;stroke-linejoin:miter;stroke-miterlimit:10;stroke-dasharray:none;stroke-opacity:1"
       transform="matrix(1.3333333,0,0,-1.3333333,29.045333,175.58133)"
       clip-path="url(#clipPath133)" />
    <path
       id="path134"
       d="m 115.77933,6.66522 14.72032,-0.8042 -6.86435,-3.9167 -14.72032,0.06172 z"
       style="fill:#1010ef;fill-opacity:1;fill-rule:nonzero;stroke:#0d0dbf;stroke-width:0.3985;stroke-linecap:butt;stroke-linejoin:miter;stroke-miterlimit:10;stroke-dasharray:none;stroke-opacity:1"
       transform="matrix(1.3333333,0,0,-1.3333333,29.045333,175.58133)"
       clip-path="url(#clipPath135)" />
    <path
       id="path136"
       d="m 130.49965,5.86102 14.72031,2.81536 -6.86434,-2.803 -14.72032,-3.92906 z"
       style="fill:#3838c7;fill-opacity:1;fill-rule:nonzero;stroke:#2d2d9f;stroke-width:0.3985;stroke-linecap:butt;stroke-linejoin:miter;stroke-miterlimit:10;stroke-dasharray:none;stroke-opacity:1"
       transform="matrix(1.3333333,0,0,-1.3333333,29.045333,175.58133)"
       clip-path="url(#clipPath137)" />
    <path
       id="path138"
       d="m 145.21996,8.67638 14.72032,9.77598 -6.86435,-1.31805 -14.72031,-11.26093 z"
       style="fill:#979768;fill-opacity:1;fill-rule:nonzero;stroke:#797953;stroke-width:0.3985;stroke-linecap:butt;stroke-linejoin:miter;stroke-miterlimit:10;stroke-dasharray:none;stroke-opacity:1"
       transform="matrix(1.3333333,0,0,-1.3333333,29.045333,175.58133)"
       clip-path="url(#clipPath139)" />
    <path
       id="path140"
       d="M 20.59303,39.40707 35.31335,23.19664 28.449,24.01318 13.72868,43.19351 Z"
       style="fill:#cdcd32;fill-opacity:1;fill-rule:nonzero;stroke:#a4a428;stroke-width:0.3985;stroke-linecap:butt;stroke-linejoin:miter;stroke-miterlimit:10;stroke-dasharray:none;stroke-opacity:1"
       transform="matrix(1.3333333,0,0,-1.3333333,29.045333,175.58133)"
       clip-path="url(#clipPath141)" />
    <path
       id="path142"
       d="M 35.31335,23.19664 50.03369,14.31808 43.16934,12.90721 28.449,24.01318 Z"
       style="fill:#5b5ba4;fill-opacity:1;fill-rule:nonzero;stroke:#494983;stroke-width:0.3985;stroke-linecap:butt;stroke-linejoin:miter;stroke-miterlimit:10;stroke-dasharray:none;stroke-opacity:1"
       transform="matrix(1.3333333,0,0,-1.3333333,29.045333,175.58133)"
       clip-path="url(#clipPath143)" />
    <path
       id="path144"
       d="M 50.03369,14.31808 64.754,9.43031 57.88966,6.5345 43.16934,12.90721 Z"
       style="fill:#2525da;fill-opacity:1;fill-rule:nonzero;stroke:#1e1eae;stroke-width:0.3985;stroke-linecap:butt;stroke-linejoin:miter;stroke-miterlimit:10;stroke-dasharray:none;stroke-opacity:1"
       transform="matrix(1.3333333,0,0,-1.3333333,29.045333,175.58133)"
       clip-path="url(#clipPath145)" />
    <path
       id="path146"
       d="M 64.754,9.43031 79.47432,6.3059 72.60997,2.66762 57.88966,6.5345 Z"
       style="fill:#1010ef;fill-opacity:1;fill-rule:nonzero;stroke:#0d0dbf;stroke-width:0.3985;stroke-linecap:butt;stroke-linejoin:miter;stroke-miterlimit:10;stroke-dasharray:none;stroke-opacity:1"
       transform="matrix(1.3333333,0,0,-1.3333333,29.045333,175.58133)"
       clip-path="url(#clipPath147)" />
    <path
       id="path148"
       d="M 79.47432,6.3059 94.19464,3.83115 87.33029,0.19287 72.60997,2.66762 Z"
       style="fill:#0b0bf4;fill-opacity:1;fill-rule:nonzero;stroke:#0909c3;stroke-width:0.3985;stroke-linecap:butt;stroke-linejoin:miter;stroke-miterlimit:10;stroke-dasharray:none;stroke-opacity:1"
       transform="matrix(1.3333333,0,0,-1.3333333,29.045333,175.58133)"
       clip-path="url(#clipPath149)" />
    <path
       id="path150"
       d="M 94.19464,3.83115 108.91498,2.00604 102.05063,-0.88974 87.33029,0.19287 Z"
       style="fill:#1010ef;fill-opacity:1;fill-rule:nonzero;stroke:#0d0dbf;stroke-width:0.3985;stroke-linecap:butt;stroke-linejoin:miter;stroke-miterlimit:10;stroke-dasharray:none;stroke-opacity:1"
       transform="matrix(1.3333333,0,0,-1.3333333,29.045333,175.58133)"
       clip-path="url(#clipPath151)" />
    <path
       id="path152"
       d="M 108.91498,2.00604 123.6353,1.94432 116.77095,0.53346 102.05063,-0.88974 Z"
       style="fill:#2525da;fill-opacity:1;fill-rule:nonzero;stroke:#1e1eae;stroke-width:0.3985;stroke-linecap:butt;stroke-linejoin:miter;stroke-miterlimit:10;stroke-dasharray:none;stroke-opacity:1"
       transform="matrix(1.3333333,0,0,-1.3333333,29.045333,175.58133)"
       clip-path="url(#clipPath153)" />
    <path
       id="path154"
       d="m 123.6353,1.94432 14.72032,3.92906 -6.86435,0.81655 -14.72032,-6.15647 z"
       style="fill:#5b5ba4;fill-opacity:1;fill-rule:nonzero;stroke:#494983;stroke-width:0.3985;stroke-linecap:butt;stroke-linejoin:miter;stroke-miterlimit:10;stroke-dasharray:none;stroke-opacity:1"
       transform="matrix(1.3333333,0,0,-1.3333333,29.045333,175.58133)"
       clip-path="url(#clipPath155)" />
    <path
       id="path156"
       d="M 138.35562,5.87338 153.07593,17.13431 146.2116,20.92075 131.49127,6.68993 Z"
       style="fill:#cdcd32;fill-opacity:1;fill-rule:nonzero;stroke:#a4a428;stroke-width:0.3985;stroke-linecap:butt;stroke-linejoin:miter;stroke-miterlimit:10;stroke-dasharray:none;stroke-opacity:1"
       transform="matrix(1.3333333,0,0,-1.3333333,29.045333,175.58133)"
       clip-path="url(#clipPath157)" />
    <path
       id="path158"
       d="M 13.72868,43.19351 28.449,24.01318 21.58466,30.67668 6.86433,54.31183 Z"
       style="fill:#ffe100;fill-opacity:1;fill-rule:nonzero;stroke:#ccb400;stroke-width:0.3985;stroke-linecap:butt;stroke-linejoin:miter;stroke-miterlimit:10;stroke-dasharray:none;stroke-opacity:1"
       transform="matrix(1.3333333,0,0,-1.3333333,29.045333,175.58133)"
       clip-path="url(#clipPath159)" />
    <path
       id="path160"
       d="M 28.449,24.01318 43.16934,12.90721 36.305,16.22961 21.58466,30.67668 Z"
       style="fill:#a8a857;fill-opacity:1;fill-rule:nonzero;stroke:#868646;stroke-width:0.3985;stroke-linecap:butt;stroke-linejoin:miter;stroke-miterlimit:10;stroke-dasharray:none;stroke-opacity:1"
       transform="matrix(1.3333333,0,0,-1.3333333,29.045333,175.58133)"
       clip-path="url(#clipPath161)" />
    <path
       id="path162"
       d="M 43.16934,12.90721 57.88966,6.5345 51.02531,7.62949 36.305,16.22961 Z"
       style="fill:#5b5ba4;fill-opacity:1;fill-rule:nonzero;stroke:#494983;stroke-width:0.3985;stroke-linecap:butt;stroke-linejoin:miter;stroke-miterlimit:10;stroke-dasharray:none;stroke-opacity:1"
       transform="matrix(1.3333333,0,0,-1.3333333,29.045333,175.58133)"
       clip-path="url(#clipPath163)" />
    <path
       id="path164"
       d="M 57.88966,6.5345 72.60997,2.66762 65.74564,2.6489 51.02531,7.62949 Z"
       style="fill:#3838c7;fill-opacity:1;fill-rule:nonzero;stroke:#2d2d9f;stroke-width:0.3985;stroke-linecap:butt;stroke-linejoin:miter;stroke-miterlimit:10;stroke-dasharray:none;stroke-opacity:1"
       transform="matrix(1.3333333,0,0,-1.3333333,29.045333,175.58133)"
       clip-path="url(#clipPath165)" />
    <path
       id="path166"
       d="M 72.60997,2.66762 87.33029,0.19287 80.46594,0.17415 65.74564,2.6489 Z"
       style="fill:#2e2ed1;fill-opacity:1;fill-rule:nonzero;stroke:#2525a7;stroke-width:0.3985;stroke-linecap:butt;stroke-linejoin:miter;stroke-miterlimit:10;stroke-dasharray:none;stroke-opacity:1"
       transform="matrix(1.3333333,0,0,-1.3333333,29.045333,175.58133)"
       clip-path="url(#clipPath167)" />
    <path
       id="path168"
       d="M 87.33029,0.19287 102.05063,-0.88974 95.18628,0.20522 80.46594,0.17415 Z"
       style="fill:#3838c7;fill-opacity:1;fill-rule:nonzero;stroke:#2d2d9f;stroke-width:0.3985;stroke-linecap:butt;stroke-linejoin:miter;stroke-miterlimit:10;stroke-dasharray:none;stroke-opacity:1"
       transform="matrix(1.3333333,0,0,-1.3333333,29.045333,175.58133)"
       clip-path="url(#clipPath169)" />
    <path
       id="path170"
       d="M 102.05063,-0.88974 116.77095,0.53346 109.9066,3.85585 95.18628,0.20522 Z"
       style="fill:#5b5ba4;fill-opacity:1;fill-rule:nonzero;stroke:#494983;stroke-width:0.3985;stroke-linecap:butt;stroke-linejoin:miter;stroke-miterlimit:10;stroke-dasharray:none;stroke-opacity:1"
       transform="matrix(1.3333333,0,0,-1.3333333,29.045333,175.58133)"
       clip-path="url(#clipPath171)" />
    <path
       id="path172"
       d="m 116.77095,0.53346 14.72032,6.15647 -6.86435,6.66349 -14.72032,-9.49757 z"
       style="fill:#a8a857;fill-opacity:1;fill-rule:nonzero;stroke:#868646;stroke-width:0.3985;stroke-linecap:butt;stroke-linejoin:miter;stroke-miterlimit:10;stroke-dasharray:none;stroke-opacity:1"
       transform="matrix(1.3333333,0,0,-1.3333333,29.045333,175.58133)"
       clip-path="url(#clipPath173)" />
    <path
       id="path174"
       d="M 131.49127,6.68993 146.2116,20.92075 139.34724,32.03906 124.62692,13.35342 Z"
       style="fill:#ffe100;fill-opacity:1;fill-rule:nonzero;stroke:#ccb400;stroke-width:0.3985;stroke-linecap:butt;stroke-linejoin:miter;stroke-miterlimit:10;stroke-dasharray:none;stroke-opacity:1"
       transform="matrix(1.3333333,0,0,-1.3333333,29.045333,175.58133)"
       clip-path="url(#clipPath175)" />
    <path
       id="path176"
       d="M 6.86433,54.31183 21.58466,30.67668 14.7203,46.52824 0,76.10315 Z"
       style="fill:#ff8100;fill-opacity:1;fill-rule:nonzero;stroke:#cc6700;stroke-width:0.3985;stroke-linecap:butt;stroke-linejoin:miter;stroke-miterlimit:10;stroke-dasharray:none;stroke-opacity:1"
       transform="matrix(1.3333333,0,0,-1.3333333,29.045333,175.58133)"
       clip-path="url(#clipPath177)" />
    <path
       id="path178"
       d="M 21.58466,30.67668 36.305,16.22961 29.44064,27.62634 14.7203,46.52824 Z"
       style="fill:#ffe100;fill-opacity:1;fill-rule:nonzero;stroke:#ccb400;stroke-width:0.3985;stroke-linecap:butt;stroke-linejoin:miter;stroke-miterlimit:10;stroke-dasharray:none;stroke-opacity:1"
       transform="matrix(1.3333333,0,0,-1.3333333,29.045333,175.58133)"
       clip-path="url(#clipPath179)" />
    <path
       id="path180"
       d="M 36.305,16.22961 51.02531,7.62949 44.16096,16.05635 29.44064,27.62634 Z"
       style="fill:#cdcd32;fill-opacity:1;fill-rule:nonzero;stroke:#a4a428;stroke-width:0.3985;stroke-linecap:butt;stroke-linejoin:miter;stroke-miterlimit:10;stroke-dasharray:none;stroke-opacity:1"
       transform="matrix(1.3333333,0,0,-1.3333333,29.045333,175.58133)"
       clip-path="url(#clipPath181)" />
    <path
       id="path182"
       d="M 51.02531,7.62949 65.74564,2.6489 58.88129,9.59082 44.16096,16.05635 Z"
       style="fill:#979768;fill-opacity:1;fill-rule:nonzero;stroke:#797953;stroke-width:0.3985;stroke-linecap:butt;stroke-linejoin:miter;stroke-miterlimit:10;stroke-dasharray:none;stroke-opacity:1"
       transform="matrix(1.3333333,0,0,-1.3333333,29.045333,175.58133)"
       clip-path="url(#clipPath183)" />
    <path
       id="path184"
       d="M 65.74564,2.6489 80.46594,0.17415 73.60161,7.11607 58.88129,9.59082 Z"
       style="fill:#868679;fill-opacity:1;fill-rule:nonzero;stroke:#6b6b61;stroke-width:0.3985;stroke-linecap:butt;stroke-linejoin:miter;stroke-miterlimit:10;stroke-dasharray:none;stroke-opacity:1"
       transform="matrix(1.3333333,0,0,-1.3333333,29.045333,175.58133)"
       clip-path="url(#clipPath185)" />
    <path
       id="path186"
       d="M 80.46594,0.17415 95.18628,0.20522 88.32191,8.63208 73.60161,7.11607 Z"
       style="fill:#979768;fill-opacity:1;fill-rule:nonzero;stroke:#797953;stroke-width:0.3985;stroke-linecap:butt;stroke-linejoin:miter;stroke-miterlimit:10;stroke-dasharray:none;stroke-opacity:1"
       transform="matrix(1.3333333,0,0,-1.3333333,29.045333,175.58133)"
       clip-path="url(#clipPath187)" />
    <path
       id="path188"
       d="M 95.18628,0.20522 109.9066,3.85585 103.04225,15.2526 88.32191,8.63208 Z"
       style="fill:#cdcd32;fill-opacity:1;fill-rule:nonzero;stroke:#a4a428;stroke-width:0.3985;stroke-linecap:butt;stroke-linejoin:miter;stroke-miterlimit:10;stroke-dasharray:none;stroke-opacity:1"
       transform="matrix(1.3333333,0,0,-1.3333333,29.045333,175.58133)"
       clip-path="url(#clipPath189)" />
    <path
       id="path190"
       d="m 109.9066,3.85585 14.72032,9.49757 -6.86435,15.85157 -14.72032,-13.95239 z"
       style="fill:#ffe100;fill-opacity:1;fill-rule:nonzero;stroke:#ccb400;stroke-width:0.3985;stroke-linecap:butt;stroke-linejoin:miter;stroke-miterlimit:10;stroke-dasharray:none;stroke-opacity:1"
       transform="matrix(1.3333333,0,0,-1.3333333,29.045333,175.58133)"
       clip-path="url(#clipPath191)" />
    <path
       id="path192"
       d="M 124.62692,13.35342 139.34724,32.03906 132.4829,53.83038 117.76257,29.20499 Z"
       style="fill:#ff8100;fill-opacity:1;fill-rule:nonzero;stroke:#cc6700;stroke-width:0.3985;stroke-linecap:butt;stroke-linejoin:miter;stroke-miterlimit:10;stroke-dasharray:none;stroke-opacity:1"
       transform="matrix(1.3333333,0,0,-1.3333333,29.045333,175.58133)"
       clip-path="url(#clipPath193)" />
  </g>
</svg>
