<?xml version="1.0" encoding="UTF-8" standalone="no"?>
<!-- Created with Inkscape (http://www.inkscape.org/) -->

<svg
   version="1.1"
   id="svg1"
   width="361.75732"
   height="218.70934"
   viewBox="0 0 361.75732 218.70934"
   xmlns="http://www.w3.org/2000/svg"
   xmlns:svg="http://www.w3.org/2000/svg">
  <defs
     id="defs1" />
  <g
     id="g1">
    <path
       id="path1"
       d="m 8.46835,-28.3468 c 0,4.677 -3.79136,8.46835 -8.46835,8.46835 -4.67699,0 -8.46835,-3.79135 -8.46835,-8.46835 0,-4.677 3.79136,-8.46836 8.46835,-8.46836 4.67699,0 8.46835,3.79136 8.46835,8.46836 z"
       style="fill:#80ff80;fill-opacity:1;fill-rule:nonzero;stroke:none"
       transform="matrix(1.3333333,0,0,-1.3333333,92.102667,37.34)" />
    <path
       id="path2"
       d="M 3.3176719,7.734375e-4 V -0.30391406 H 3.0598594 c -0.7851563,0 -0.8203125,-0.1171875 -0.8203125,-0.46875 V -6.0226641 c 0,-0.3632812 0.035156,-0.46875 0.8203125,-0.46875 h 0.2578125 v -0.3164062 c -0.3515625,0.035156 -1.1367188,0.035156 -1.5117188,0.035156 -0.3867187,0 -1.17187497,0 -1.52343747,-0.035156 v 0.3164062 h 0.2578125 c 0.78515627,0 0.82031247,0.1054688 0.82031247,0.46875 v 5.25000004 c 0,0.3515625 -0.035156,0.46875 -0.82031247,0.46875 H 0.28251563 V 7.734375e-4 C 0.63407813,-0.03438281 1.4192344,-0.03438281 1.7942344,-0.03438281 c 0.3867187,0 1.171875,0 1.5234375,0.0351562475 z m 5.6103515,0 V -0.30391406 c -0.515625,0 -0.7734375,0 -0.7851562,-0.3046875 V -2.5070391 c 0,-0.8554687 0,-1.171875 -0.3046875,-1.5234375 -0.140625,-0.1757812 -0.46875,-0.375 -1.0429688,-0.375 -0.7265625,0 -1.1953125,0.4335938 -1.4765625,1.0546875 v -1.0546875 l -1.40625,0.1171875 v 0.3046875 c 0.703125,0 0.7851563,0.070312 0.7851563,0.5625 v 2.66015629 c 0,0.45703125 -0.1171875,0.45703125 -0.7851563,0.45703125 V 7.734375e-4 l 1.125,-0.0351562475 1.1132813,0.0351562475 V -0.30391406 c -0.65625,0 -0.7734375,0 -0.7734375,-0.45703125 V -2.5890703 c 0,-1.03125 0.7148437,-1.59375 1.3476562,-1.59375 0.6210938,0 0.7382813,0.5390625 0.7382813,1.1015625 v 2.32031249 c 0,0.45703125 -0.1171875,0.45703125 -0.7734375,0.45703125 V 7.734375e-4 l 1.125,-0.0351562475 z M 14.327438,-2.1554766 c 0,-1.265625 -0.972657,-2.25 -2.085938,-2.25 -0.773437,0 -1.195312,0.4453125 -1.394531,0.65625 v -0.65625 l -1.4296877,0.1171875 v 0.3046875 c 0.7031247,0 0.7734377,0.058594 0.7734377,0.4921875 v 4.6640625 c 0,0.4570313 -0.105469,0.4570313 -0.7734377,0.4570313 v 0.3046875 l 1.1132817,-0.035156 1.125,0.035156 V 1.6296797 c -0.667969,0 -0.773438,0 -0.773438,-0.4570313 v -1.75781246 c 0.04687,0.15234375 0.46875,0.69140625 1.21875,0.69140625 1.183594,0 2.226563,-0.97265625 2.226563,-2.26171879 z m -0.832032,0 c 0,1.20703129 -0.691406,2.05078129 -1.429687,2.05078129 -0.398438,0 -0.773438,-0.19921875 -1.042969,-0.609375 -0.140625,-0.2109375 -0.140625,-0.22265625 -0.140625,-0.42187499 v -2.2148438 c 0.28125,-0.515625 0.773438,-0.796875 1.277344,-0.796875 0.726562,0 1.335937,0.8671875 1.335937,1.9921875 z M 20.008102,7.734375e-4 V -0.30391406 c -0.703125,0 -0.785157,-0.0703125 -0.785157,-0.5625 V -4.4054766 l -1.453125,0.1171875 v 0.3046875 c 0.691407,0 0.773438,0.070312 0.773438,0.5625 v 1.7695313 c 0,0.86718749 -0.480469,1.54687499 -1.207031,1.54687499 -0.832032,0 -0.878907,-0.46875 -0.878907,-0.99609379 v -3.3046875 l -1.464843,0.1171875 v 0.3046875 c 0.785156,0 0.785156,0.035156 0.785156,0.9140625 v 1.5 c 0,0.77343754 0,1.67578129 1.511719,1.67578129 0.550781,0 0.996093,-0.26953125 1.277343,-0.890625 v 0.890625 z M 23.517867,-1.2296953 v -0.5742188 h -0.246094 v 0.5507813 c 0,0.73828124 -0.304687,1.11328124 -0.667968,1.11328124 -0.667969,0 -0.667969,-0.90234374 -0.667969,-1.07812504 v -2.765625 h 1.429687 v -0.3046875 h -1.429687 v -1.8398437 h -0.246094 c -0.01172,0.8203125 -0.316406,1.8867187 -1.289062,1.921875 v 0.2226562 h 0.84375 v 2.7539063 c 0,1.21874999 0.925781,1.33593749 1.289062,1.33593749 0.703125,0 0.984375,-0.703125 0.984375,-1.33593749 z m 11.625,-0.2929688 c 0,-0.1992187 -0.199219,-0.1992187 -0.339844,-0.1992187 h -2.109375 l 0.398438,-1.5351563 h 1.710937 c 0.140625,0 0.339844,0 0.339844,-0.1992187 0,-0.1992188 -0.199219,-0.1992188 -0.328125,-0.1992188 h -1.59375 l 0.773438,-2.8828125 c 0.01172,-0.011719 0.03516,-0.140625 0.03516,-0.1757812 0,-0.1054688 -0.08203,-0.1992188 -0.199219,-0.1992188 -0.152344,0 -0.1875,0.1289063 -0.210937,0.234375 l -0.808594,3.0234375 h -1.875 l 0.773437,-2.8828125 c 0.01172,-0.011719 0.04687,-0.140625 0.04687,-0.1757812 0,-0.1054688 -0.09375,-0.1992188 -0.199218,-0.1992188 -0.164063,0 -0.199219,0.1289063 -0.222657,0.234375 l -0.808593,3.0234375 h -2.226563 c -0.140625,0 -0.328125,0 -0.328125,0.1992188 0,0.1992187 0.1875,0.1992187 0.339844,0.1992187 h 2.097656 l -0.398437,1.5351563 h -1.699219 c -0.152344,0 -0.339844,0 -0.339844,0.1992187 0,0.1992188 0.1875,0.1992188 0.328125,0.1992188 h 1.59375 L 29.10771,1.5593672 c 0,0.011719 -0.03516,0.140625 -0.03516,0.1757812 0,0.1054688 0.09375,0.1992188 0.199218,0.1992188 0.164063,0 0.1875,-0.1289063 0.222657,-0.234375 l 0.808593,-3.0234375 H 32.1663 l -0.773438,2.8828125 c -0.01172,0.011719 -0.03516,0.140625 -0.03516,0.1757812 0,0.1054688 0.08203,0.1992188 0.199219,0.1992188 0.152343,0 0.1875,-0.1289063 0.210937,-0.234375 l 0.808594,-3.0234375 h 2.238281 c 0.128906,0 0.328125,0 0.328125,-0.1992188 z m -2.449219,-1.734375 -0.398437,1.5351563 h -1.875 l 0.398437,-1.5351563 z M 39.877242,7.734375e-4 V -0.30391406 h -0.316406 c -0.902344,0 -0.925781,-0.1171875 -0.925781,-0.48046875 V -6.3742266 c 0,-0.234375 0,-0.2578125 -0.234375,-0.2578125 -0.609375,0.6328125 -1.488282,0.6328125 -1.804688,0.6328125 v 0.3164063 c 0.199219,0 0.785156,0 1.300781,-0.2578125 v 5.15624999 c 0,0.3515625 -0.03516,0.48046875 -0.925781,0.48046875 H 36.654586 V 7.734375e-4 C 37.006148,-0.03438281 37.861617,-0.03438281 38.260055,-0.03438281 c 0.398437,0 1.265625,0 1.617187,0.0351562475 z m 0,0"
       style="fill:#000000;fill-opacity:1;fill-rule:nonzero;stroke:none"
       aria-label="Input#1"
       transform="matrix(1.3333333,0,0,1.3333333,4.428,78.456)" />
    <path
       id="path3"
       d="M -10.12215,-28.3468 H -20.55318"
       style="fill:none;stroke:#808080;stroke-width:0.3985;stroke-linecap:butt;stroke-linejoin:miter;stroke-miterlimit:10;stroke-dasharray:none;stroke-opacity:1"
       transform="matrix(1.3333333,0,0,-1.3333333,92.102667,37.34)" />
    <path
       id="path4"
       d="M -1.19551,1.59401 C -1.09587,0.99626 0,0.09961 0.29886,0 0,-0.09961 -1.09587,-0.99626 -1.19551,-1.59401"
       style="fill:none;stroke:#808080;stroke-width:0.31879;stroke-linecap:round;stroke-linejoin:round;stroke-miterlimit:10;stroke-dasharray:none;stroke-opacity:1"
       transform="matrix(1.3333333,0,0,-1.3333333,78.606467,75.135733)" />
    <path
       id="path5"
       d="m 8.46835,-56.69362 c 0,4.677 -3.79136,8.46835 -8.46835,8.46835 -4.67699,0 -8.46835,-3.79135 -8.46835,-8.46835 0,-4.67698 3.79136,-8.46835 8.46835,-8.46835 4.67699,0 8.46835,3.79137 8.46835,8.46835 z"
       style="fill:#80ff80;fill-opacity:1;fill-rule:nonzero;stroke:none"
       transform="matrix(1.3333333,0,0,-1.3333333,92.102667,37.34)" />
    <path
       id="path6"
       d="M 3.3176719,-5e-4 V -0.3051875 H 3.0598594 c -0.7851563,0 -0.8203125,-0.1171875 -0.8203125,-0.46875 v -5.25 c 0,-0.3632813 0.035156,-0.46875 0.8203125,-0.46875 h 0.2578125 v -0.3164063 c -0.3515625,0.035156 -1.1367188,0.035156 -1.5117188,0.035156 -0.3867187,0 -1.17187497,0 -1.52343747,-0.035156 v 0.3164063 h 0.2578125 c 0.78515627,0 0.82031247,0.1054687 0.82031247,0.46875 v 5.25 c 0,0.3515625 -0.035156,0.46875 -0.82031247,0.46875 H 0.28251563 V -5e-4 c 0.3515625,-0.03515625 1.13671877,-0.03515625 1.51171877,-0.03515625 0.3867187,0 1.171875,0 1.5234375,0.03515625 z m 5.6103515,0 v -0.3046875 c -0.515625,0 -0.7734375,0 -0.7851562,-0.3046875 v -1.8984375 c 0,-0.8554688 0,-1.171875 -0.3046875,-1.5234375 -0.140625,-0.1757813 -0.46875,-0.375 -1.0429688,-0.375 -0.7265625,0 -1.1953125,0.4335937 -1.4765625,1.0546875 V -4.40675 l -1.40625,0.1171875 v 0.3046875 c 0.703125,0 0.7851563,0.070312 0.7851563,0.5625 v 2.66015625 c 0,0.45703125 -0.1171875,0.45703125 -0.7851563,0.45703125 V -5e-4 l 1.125,-0.03515625 L 6.1506797,-5e-4 v -0.3046875 c -0.65625,0 -0.7734375,0 -0.7734375,-0.45703125 V -2.5903438 c 0,-1.03125 0.7148437,-1.59375 1.3476562,-1.59375 0.6210938,0 0.7382813,0.5390625 0.7382813,1.1015625 v 2.32031255 c 0,0.45703125 -0.1171875,0.45703125 -0.7734375,0.45703125 V -5e-4 l 1.125,-0.03515625 z m 5.3994146,-2.15625 c 0,-1.265625 -0.972657,-2.25 -2.085938,-2.25 -0.773437,0 -1.195312,0.4453125 -1.394531,0.65625 v -0.65625 l -1.4296877,0.1171875 v 0.3046875 c 0.7031247,0 0.7734377,0.058594 0.7734377,0.4921875 V 1.171375 c 0,0.4570312 -0.105469,0.4570312 -0.7734377,0.4570312 v 0.3046875 l 1.1132817,-0.035156 1.125,0.035156 V 1.6284062 c -0.667969,0 -0.773438,0 -0.773438,-0.4570312 v -1.7578125 c 0.04687,0.15234375 0.46875,0.69140625 1.21875,0.69140625 1.183594,0 2.226563,-0.97265625 2.226563,-2.26171875 z m -0.832032,0 c 0,1.20703125 -0.691406,2.05078125 -1.429687,2.05078125 -0.398438,0 -0.773438,-0.19921875 -1.042969,-0.609375 C 10.882125,-0.92628125 10.882125,-0.938 10.882125,-1.1372188 v -2.2148437 c 0.28125,-0.515625 0.773438,-0.796875 1.277344,-0.796875 0.726562,0 1.335937,0.8671875 1.335937,1.9921875 z M 20.008102,-5e-4 v -0.3046875 c -0.703125,0 -0.785157,-0.0703125 -0.785157,-0.5625 V -4.40675 l -1.453125,0.1171875 v 0.3046875 c 0.691407,0 0.773438,0.070312 0.773438,0.5625 v 1.7695312 c 0,0.86718755 -0.480469,1.54687505 -1.207031,1.54687505 -0.832032,0 -0.878907,-0.46875 -0.878907,-0.99609375 V -4.40675 l -1.464843,0.1171875 v 0.3046875 c 0.785156,0 0.785156,0.035156 0.785156,0.9140625 v 1.5 c 0,0.7734375 0,1.67578125 1.511719,1.67578125 0.550781,0 0.996093,-0.26953125 1.277343,-0.890625 v 0.890625 z m 3.509765,-1.2304688 v -0.5742187 h -0.246094 v 0.5507812 c 0,0.7382813 -0.304687,1.1132813 -0.667968,1.1132813 -0.667969,0 -0.667969,-0.9023438 -0.667969,-1.078125 v -2.765625 h 1.429687 v -0.3046875 h -1.429687 v -1.8398438 h -0.246094 c -0.01172,0.8203125 -0.316406,1.8867188 -1.289062,1.921875 v 0.2226563 h 0.84375 v 2.7539062 c 0,1.21875005 0.925781,1.33593755 1.289062,1.33593755 0.703125,0 0.984375,-0.703125 0.984375,-1.33593755 z m 11.625,-0.2929687 c 0,-0.1992188 -0.199219,-0.1992188 -0.339844,-0.1992188 h -2.109375 l 0.398438,-1.5351562 h 1.710937 c 0.140625,0 0.339844,0 0.339844,-0.1992188 0,-0.1992187 -0.199219,-0.1992187 -0.328125,-0.1992187 h -1.59375 l 0.773438,-2.8828125 c 0.01172,-0.011719 0.03516,-0.140625 0.03516,-0.1757813 0,-0.1054687 -0.08203,-0.1992187 -0.199219,-0.1992187 -0.152344,0 -0.1875,0.1289062 -0.210937,0.234375 L 32.810836,-3.65675 h -1.875 l 0.773437,-2.8828125 c 0.01172,-0.011719 0.04687,-0.140625 0.04687,-0.1757813 0,-0.1054687 -0.09375,-0.1992187 -0.199218,-0.1992187 -0.164063,0 -0.199219,0.1289062 -0.222657,0.234375 L 30.52568,-3.65675 h -2.226563 c -0.140625,0 -0.328125,0 -0.328125,0.1992187 0,0.1992188 0.1875,0.1992188 0.339844,0.1992188 h 2.097656 l -0.398437,1.5351562 h -1.699219 c -0.152344,0 -0.339844,0 -0.339844,0.1992188 0,0.1992187 0.1875,0.1992187 0.328125,0.1992187 h 1.59375 l -0.785156,2.8828125 c 0,0.011719 -0.03516,0.140625 -0.03516,0.1757813 0,0.1054687 0.09375,0.1992187 0.199218,0.1992187 0.164063,0 0.1875,-0.1289062 0.222657,-0.234375 l 0.808593,-3.0234375 h 1.863282 l -0.773438,2.8828125 c -0.01172,0.011719 -0.03516,0.140625 -0.03516,0.1757813 0,0.1054687 0.08203,0.1992187 0.199219,0.1992187 0.152343,0 0.1875,-0.1289062 0.210937,-0.234375 l 0.808594,-3.0234375 h 2.238281 c 0.128906,0 0.328125,0 0.328125,-0.1992187 z m -2.449219,-1.734375 -0.398437,1.5351562 h -1.875 l 0.398437,-1.5351562 z m 7.488282,1.5234375 h -0.257813 c -0.04687,0.3046875 -0.117187,0.73828125 -0.210937,0.890625 -0.07031,0.0820313 -0.726563,0.0820313 -0.949219,0.0820313 h -1.792969 l 1.054688,-1.0312501 c 1.558593,-1.3710937 2.15625,-1.9101562 2.15625,-2.90625 0,-1.1367187 -0.902344,-1.9335937 -2.121094,-1.9335937 -1.125,0 -1.851563,0.9140625 -1.851563,1.8046875 0,0.5507812 0.492188,0.5507812 0.527344,0.5507812 0.164063,0 0.515625,-0.1171875 0.515625,-0.5273437 0,-0.2578125 -0.1875,-0.515625 -0.527344,-0.515625 -0.08203,0 -0.105468,0 -0.128906,0.011719 0.222656,-0.6445312 0.761719,-1.0195312 1.335938,-1.0195312 0.914062,0 1.335937,0.8085937 1.335937,1.6289062 0,0.796875 -0.492187,1.5820313 -1.042969,2.203125 l -1.910156,2.13281255 C 36.209273,-0.2583125 36.209273,-0.234875 36.209273,-5e-4 h 3.691407 z m 0,0"
       style="fill:#000000;fill-opacity:1;fill-rule:nonzero;stroke:none"
       aria-label="Input#2"
       transform="matrix(1.3333333,0,0,1.3333333,4.428,116.25067)" />
    <path
       id="path7"
       d="M -10.12215,-56.69362 H -20.55318"
       style="fill:none;stroke:#808080;stroke-width:0.3985;stroke-linecap:butt;stroke-linejoin:miter;stroke-miterlimit:10;stroke-dasharray:none;stroke-opacity:1"
       transform="matrix(1.3333333,0,0,-1.3333333,92.102667,37.34)" />
    <path
       id="path8"
       d="M -1.19551,1.59401 C -1.09587,0.99626 0,0.09961 0.29886,0 0,-0.09961 -1.09587,-0.99626 -1.19551,-1.59401"
       style="fill:none;stroke:#808080;stroke-width:0.31879;stroke-linecap:round;stroke-linejoin:round;stroke-miterlimit:10;stroke-dasharray:none;stroke-opacity:1"
       transform="matrix(1.3333333,0,0,-1.3333333,78.606467,112.93149)" />
    <path
       id="path9"
       d="m 8.46835,-85.04042 c 0,4.67699 -3.79136,8.46835 -8.46835,8.46835 -4.67699,0 -8.46835,-3.79136 -8.46835,-8.46835 0,-4.677 3.79136,-8.46835 8.46835,-8.46835 4.67699,0 8.46835,3.79135 8.46835,8.46835 z"
       style="fill:#80ff80;fill-opacity:1;fill-rule:nonzero;stroke:none"
       transform="matrix(1.3333333,0,0,-1.3333333,92.102667,37.34)" />
    <path
       id="path10"
       d="m 3.3176719,1.5625e-4 v -0.3046875 H 3.0598594 c -0.7851563,0 -0.8203125,-0.1171875 -0.8203125,-0.46875 V -6.0232813 c 0,-0.3632812 0.035156,-0.46875 0.8203125,-0.46875 h 0.2578125 v -0.3164062 c -0.3515625,0.035156 -1.1367188,0.035156 -1.5117188,0.035156 -0.3867187,0 -1.17187497,0 -1.52343747,-0.035156 v 0.3164062 h 0.2578125 c 0.78515627,0 0.82031247,0.1054688 0.82031247,0.46875 v 5.25000005 c 0,0.3515625 -0.035156,0.46875 -0.82031247,0.46875 H 0.28251563 V 1.5625e-4 C 0.63407813,-0.035 1.4192344,-0.035 1.7942344,-0.035 c 0.3867187,0 1.171875,0 1.5234375,0.03515625 z m 5.6103515,0 v -0.3046875 c -0.515625,0 -0.7734375,0 -0.7851562,-0.3046875 V -2.5076563 c 0,-0.8554687 0,-1.171875 -0.3046875,-1.5234375 -0.140625,-0.1757812 -0.46875,-0.375 -1.0429688,-0.375 -0.7265625,0 -1.1953125,0.4335938 -1.4765625,1.0546875 v -1.0546875 l -1.40625,0.1171875 v 0.3046875 c 0.703125,0 0.7851563,0.070312 0.7851563,0.5625 v 2.6601563 c 0,0.45703125 -0.1171875,0.45703125 -0.7851563,0.45703125 V 1.5625e-4 L 5.0373984,-0.035 6.1506797,1.5625e-4 v -0.3046875 c -0.65625,0 -0.7734375,0 -0.7734375,-0.45703125 v -1.828125 c 0,-1.03125 0.7148437,-1.59375 1.3476562,-1.59375 0.6210938,0 0.7382813,0.5390625 0.7382813,1.1015625 v 2.3203125 c 0,0.45703125 -0.1171875,0.45703125 -0.7734375,0.45703125 V 1.5625e-4 L 7.8147422,-0.035 Z M 14.327438,-2.1560938 c 0,-1.265625 -0.972657,-2.25 -2.085938,-2.25 -0.773437,0 -1.195312,0.4453125 -1.394531,0.65625 v -0.65625 l -1.4296877,0.1171875 v 0.3046875 c 0.7031247,0 0.7734377,0.058594 0.7734377,0.4921875 v 4.6640625 c 0,0.4570313 -0.105469,0.4570313 -0.7734377,0.4570313 V 1.93375 l 1.1132817,-0.035156 1.125,0.035156 V 1.6290625 c -0.667969,0 -0.773438,0 -0.773438,-0.4570313 v -1.75781245 c 0.04687,0.15234375 0.46875,0.69140625 1.21875,0.69140625 1.183594,0 2.226563,-0.97265625 2.226563,-2.2617188 z m -0.832032,0 c 0,1.2070313 -0.691406,2.0507813 -1.429687,2.0507813 -0.398438,0 -0.773438,-0.19921875 -1.042969,-0.609375 -0.140625,-0.2109375 -0.140625,-0.22265625 -0.140625,-0.421875 v -2.2148438 c 0.28125,-0.515625 0.773438,-0.796875 1.277344,-0.796875 0.726562,0 1.335937,0.8671875 1.335937,1.9921875 z m 6.512696,2.15625005 v -0.3046875 c -0.703125,0 -0.785157,-0.0703125 -0.785157,-0.5625 V -4.4060938 l -1.453125,0.1171875 v 0.3046875 c 0.691407,0 0.773438,0.070312 0.773438,0.5625 v 1.7695313 c 0,0.8671875 -0.480469,1.546875 -1.207031,1.546875 -0.832032,0 -0.878907,-0.46875 -0.878907,-0.9960938 v -3.3046875 l -1.464843,0.1171875 v 0.3046875 c 0.785156,0 0.785156,0.035156 0.785156,0.9140625 v 1.5 c 0,0.77343755 0,1.6757813 1.511719,1.6757813 0.550781,0 0.996093,-0.26953125 1.277343,-0.890625 V 0.105625 Z M 23.517867,-1.2303125 V -1.8045313 H 23.271773 V -1.25375 c 0,0.73828125 -0.304687,1.11328125 -0.667968,1.11328125 -0.667969,0 -0.667969,-0.90234375 -0.667969,-1.07812505 v -2.765625 h 1.429687 V -4.2889063 H 21.935836 V -6.12875 h -0.246094 c -0.01172,0.8203125 -0.316406,1.8867187 -1.289062,1.921875 v 0.2226562 h 0.84375 v 2.7539063 c 0,1.21875 0.925781,1.3359375 1.289062,1.3359375 0.703125,0 0.984375,-0.703125 0.984375,-1.3359375 z m 11.625,-0.2929688 C 35.142867,-1.7225 34.943648,-1.7225 34.803023,-1.7225 h -2.109375 l 0.398438,-1.5351563 h 1.710937 c 0.140625,0 0.339844,0 0.339844,-0.1992187 0,-0.1992188 -0.199219,-0.1992188 -0.328125,-0.1992188 h -1.59375 l 0.773438,-2.8828125 c 0.01172,-0.011719 0.03516,-0.140625 0.03516,-0.1757812 0,-0.1054688 -0.08203,-0.1992188 -0.199219,-0.1992188 -0.152344,0 -0.1875,0.1289063 -0.210937,0.234375 l -0.808594,3.0234375 h -1.875 l 0.773437,-2.8828125 c 0.01172,-0.011719 0.04687,-0.140625 0.04687,-0.1757812 0,-0.1054688 -0.09375,-0.1992188 -0.199218,-0.1992188 -0.164063,0 -0.199219,0.1289063 -0.222657,0.234375 l -0.808593,3.0234375 h -2.226563 c -0.140625,0 -0.328125,0 -0.328125,0.1992188 0,0.1992187 0.1875,0.1992187 0.339844,0.1992187 h 2.097656 L 30.010055,-1.7225 h -1.699219 c -0.152344,0 -0.339844,0 -0.339844,0.1992187 0,0.1992188 0.1875,0.1992188 0.328125,0.1992188 h 1.59375 L 29.107711,1.55875 c 0,0.011719 -0.03516,0.140625 -0.03516,0.1757812 0,0.1054688 0.09375,0.1992188 0.199218,0.1992188 0.164063,0 0.1875,-0.1289063 0.222657,-0.234375 l 0.808593,-3.0234375 h 1.863282 L 31.392867,1.55875 c -0.01172,0.011719 -0.03516,0.140625 -0.03516,0.1757812 0,0.1054688 0.08203,0.1992188 0.199219,0.1992188 0.152343,0 0.1875,-0.1289063 0.210937,-0.234375 l 0.808594,-3.0234375 h 2.238281 c 0.128906,0 0.328125,0 0.328125,-0.1992188 z M 32.693648,-3.2576563 32.295211,-1.7225 h -1.875 l 0.398437,-1.5351563 z m 7.558594,1.5585938 c 0,-0.8203125 -0.621094,-1.59375 -1.652344,-1.8046875 0.808594,-0.2695313 1.394532,-0.9726563 1.394532,-1.7578125 0,-0.8203125 -0.878907,-1.3710938 -1.839844,-1.3710938 -1.007813,0 -1.757813,0.5976563 -1.757813,1.3476563 0,0.3398437 0.210938,0.5273437 0.503907,0.5273437 0.304687,0 0.503906,-0.2226562 0.503906,-0.515625 0,-0.4921875 -0.46875,-0.4921875 -0.609375,-0.4921875 0.304687,-0.4921875 0.960937,-0.6210937 1.324219,-0.6210937 0.410156,0 0.949218,0.2226562 0.949218,1.1132812 0,0.1289063 -0.01172,0.703125 -0.269531,1.1367188 -0.304687,0.4804687 -0.644531,0.515625 -0.890625,0.515625 -0.08203,0.011719 -0.316406,0.035156 -0.386719,0.035156 -0.08203,0.011719 -0.152343,0.023437 -0.152343,0.1171875 0,0.1171875 0.07031,0.1171875 0.234375,0.1171875 h 0.445312 c 0.808594,0 1.183594,0.6679688 1.183594,1.6523438 0,1.34765625 -0.691406,1.640625 -1.125,1.640625 -0.433594,0 -1.171875,-0.17578125 -1.523438,-0.76171875 0.351563,0.0585938 0.65625,-0.1640625 0.65625,-0.53906255 0,-0.3632812 -0.269531,-0.5625 -0.5625,-0.5625 -0.234375,0 -0.550781,0.140625 -0.550781,0.5742188 0,0.9140625 0.925781,1.5703125 2.003906,1.5703125 1.21875,0 2.121094,-0.9140625 2.121094,-1.9218748 z m 0,0"
       style="fill:#000000;fill-opacity:1;fill-rule:nonzero;stroke:none"
       aria-label="Input#3"
       transform="matrix(1.3333333,0,0,1.3333333,4.428,154.04667)" />
    <path
       id="path11"
       d="M -10.12215,-85.04042 H -20.55318"
       style="fill:none;stroke:#808080;stroke-width:0.3985;stroke-linecap:butt;stroke-linejoin:miter;stroke-miterlimit:10;stroke-dasharray:none;stroke-opacity:1"
       transform="matrix(1.3333333,0,0,-1.3333333,92.102667,37.34)" />
    <path
       id="path12"
       d="M -1.19551,1.59401 C -1.09587,0.99626 0,0.09961 0.29886,0 0,-0.09961 -1.09587,-0.99626 -1.19551,-1.59401"
       style="fill:none;stroke:#808080;stroke-width:0.31879;stroke-linecap:round;stroke-linejoin:round;stroke-miterlimit:10;stroke-dasharray:none;stroke-opacity:1"
       transform="matrix(1.3333333,0,0,-1.3333333,78.606467,150.72723)" />
    <path
       id="path13"
       d="m 8.46835,-113.38724 c 0,4.677 -3.79136,8.46836 -8.46835,8.46836 -4.67699,0 -8.46835,-3.79136 -8.46835,-8.46836 0,-4.67698 3.79136,-8.46835 8.46835,-8.46835 4.67699,0 8.46835,3.79137 8.46835,8.46835 z"
       style="fill:#80ff80;fill-opacity:1;fill-rule:nonzero;stroke:none"
       transform="matrix(1.3333333,0,0,-1.3333333,92.102667,37.34)" />
    <path
       id="path14"
       d="m 3.3176719,-0.00111719 v -0.3046875 H 3.0598594 c -0.7851563,0 -0.8203125,-0.1171875 -0.8203125,-0.46875 V -6.0245547 c 0,-0.3632812 0.035156,-0.46875 0.8203125,-0.46875 h 0.2578125 v -0.3164062 c -0.3515625,0.035156 -1.1367188,0.035156 -1.5117188,0.035156 -0.3867187,0 -1.17187497,0 -1.52343747,-0.035156 v 0.3164062 h 0.2578125 c 0.78515627,0 0.82031247,0.1054688 0.82031247,0.46875 v 5.25000001 c 0,0.3515625 -0.035156,0.46875 -0.82031247,0.46875 h -0.2578125 v 0.3046875 c 0.3515625,-0.03515625 1.13671877,-0.03515625 1.51171877,-0.03515625 0.3867187,0 1.171875,0 1.5234375,0.03515625 z m 5.6103515,0 v -0.3046875 c -0.515625,0 -0.7734375,0 -0.7851562,-0.3046875 V -2.5089297 c 0,-0.8554687 0,-1.171875 -0.3046875,-1.5234375 -0.140625,-0.1757812 -0.46875,-0.375 -1.0429688,-0.375 -0.7265625,0 -1.1953125,0.4335938 -1.4765625,1.0546875 v -1.0546875 l -1.40625,0.1171875 v 0.3046875 c 0.703125,0 0.7851563,0.070312 0.7851563,0.5625 v 2.66015626 c 0,0.45703125 -0.1171875,0.45703125 -0.7851563,0.45703125 v 0.3046875 l 1.125,-0.03515625 1.1132813,0.03515625 v -0.3046875 c -0.65625,0 -0.7734375,0 -0.7734375,-0.45703125 V -2.5909609 c 0,-1.03125 0.7148437,-1.59375 1.3476562,-1.59375 0.6210938,0 0.7382813,0.5390625 0.7382813,1.1015625 v 2.32031246 c 0,0.45703125 -0.1171875,0.45703125 -0.7734375,0.45703125 v 0.3046875 l 1.125,-0.03515625 z M 14.327438,-2.1573672 c 0,-1.265625 -0.972657,-2.25 -2.085938,-2.25 -0.773437,0 -1.195312,0.4453125 -1.394531,0.65625 v -0.65625 l -1.4296877,0.1171875 v 0.3046875 c 0.7031247,0 0.7734377,0.058594 0.7734377,0.4921875 v 4.6640625 c 0,0.4570313 -0.105469,0.4570313 -0.7734377,0.4570313 v 0.3046875 l 1.1132817,-0.035156 1.125,0.035156 V 1.6277891 c -0.667969,0 -0.773438,0 -0.773438,-0.4570313 v -1.75781249 c 0.04687,0.15234375 0.46875,0.69140625 1.21875,0.69140625 1.183594,0 2.226563,-0.97265625 2.226563,-2.26171876 z m -0.832032,0 c 0,1.20703126 -0.691406,2.05078126 -1.429687,2.05078126 -0.398438,0 -0.773438,-0.19921875 -1.042969,-0.609375 -0.140625,-0.2109375 -0.140625,-0.22265625 -0.140625,-0.42187496 v -2.2148438 c 0.28125,-0.515625 0.773438,-0.796875 1.277344,-0.796875 0.726562,0 1.335937,0.8671875 1.335937,1.9921875 z m 6.512696,2.15625001 v -0.3046875 c -0.703125,0 -0.785157,-0.0703125 -0.785157,-0.5625 V -4.4073672 l -1.453125,0.1171875 v 0.3046875 c 0.691407,0 0.773438,0.070312 0.773438,0.5625 v 1.7695313 c 0,0.86718746 -0.480469,1.54687496 -1.207031,1.54687496 -0.832032,0 -0.878907,-0.46875 -0.878907,-0.99609376 v -3.3046875 l -1.464843,0.1171875 v 0.3046875 c 0.785156,0 0.785156,0.035156 0.785156,0.9140625 v 1.5 c 0,0.77343751 0,1.67578126 1.511719,1.67578126 0.550781,0 0.996093,-0.26953125 1.277343,-0.890625 v 0.890625 z m 3.509765,-1.23046871 v -0.5742188 h -0.246094 v 0.5507813 c 0,0.73828121 -0.304687,1.11328121 -0.667968,1.11328121 -0.667969,0 -0.667969,-0.90234371 -0.667969,-1.07812501 v -2.765625 h 1.429687 v -0.3046875 h -1.429687 v -1.8398437 h -0.246094 c -0.01172,0.8203125 -0.316406,1.8867187 -1.289062,1.921875 v 0.2226562 h 0.84375 v 2.7539063 c 0,1.21874996 0.925781,1.33593746 1.289062,1.33593746 0.703125,0 0.984375,-0.703125 0.984375,-1.33593746 z m 11.625,-0.2929688 c 0,-0.1992187 -0.199219,-0.1992187 -0.339844,-0.1992187 h -2.109375 l 0.398438,-1.5351563 h 1.710937 c 0.140625,0 0.339844,0 0.339844,-0.1992187 0,-0.1992188 -0.199219,-0.1992188 -0.328125,-0.1992188 h -1.59375 l 0.773438,-2.8828125 c 0.01172,-0.011719 0.03516,-0.140625 0.03516,-0.1757812 0,-0.1054688 -0.08203,-0.1992188 -0.199219,-0.1992188 -0.152344,0 -0.1875,0.1289063 -0.210937,0.234375 l -0.808594,3.0234375 h -1.875 l 0.773437,-2.8828125 c 0.01172,-0.011719 0.04687,-0.140625 0.04687,-0.1757812 0,-0.1054688 -0.09375,-0.1992188 -0.199218,-0.1992188 -0.164063,0 -0.199219,0.1289063 -0.222657,0.234375 l -0.808593,3.0234375 h -2.226563 c -0.140625,0 -0.328125,0 -0.328125,0.1992188 0,0.1992187 0.1875,0.1992187 0.339844,0.1992187 h 2.097656 l -0.398437,1.5351563 h -1.699219 c -0.152344,0 -0.339844,0 -0.339844,0.1992187 0,0.1992188 0.1875,0.1992188 0.328125,0.1992188 h 1.59375 L 29.10771,1.5574766 c 0,0.011719 -0.03516,0.140625 -0.03516,0.1757812 0,0.1054688 0.09375,0.1992188 0.199218,0.1992188 0.164063,0 0.1875,-0.1289063 0.222657,-0.234375 l 0.808593,-3.0234375 H 32.1663 l -0.773438,2.8828125 c -0.01172,0.011719 -0.03516,0.140625 -0.03516,0.1757812 0,0.1054688 0.08203,0.1992188 0.199219,0.1992188 0.152343,0 0.1875,-0.1289063 0.210937,-0.234375 l 0.808594,-3.0234375 h 2.238281 c 0.128906,0 0.328125,0 0.328125,-0.1992188 z m -2.449219,-1.734375 -0.398437,1.5351563 h -1.875 l 0.398437,-1.5351563 z m 7.699219,1.6171875 v -0.3164062 h -0.996094 v -4.5234375 c 0,-0.1992188 0,-0.2578125 -0.152343,-0.2578125 -0.09375,0 -0.117188,0 -0.199219,0.1171875 l -3.058594,4.6640625 v 0.3164062 h 2.648438 v 0.86718751 c 0,0.3515625 -0.02344,0.46875 -0.761719,0.46875 h -0.210938 v 0.3046875 c 0.410157,-0.03515625 0.9375,-0.03515625 1.347657,-0.03515625 0.421875,0 0.949218,0 1.359375,0.03515625 v -0.3046875 h -0.210938 c -0.738281,0 -0.761719,-0.1171875 -0.761719,-0.46875 V -1.6417422 Z m -1.699219,-0.3164062 h -2.425781 l 2.425781,-3.7148438 z m 0,0"
       style="fill:#000000;fill-opacity:1;fill-rule:nonzero;stroke:none"
       aria-label="Input#4"
       transform="matrix(1.3333333,0,0,1.3333333,4.428,191.84133)" />
    <path
       id="path15"
       d="M -10.12215,-113.38724 H -20.55318"
       style="fill:none;stroke:#808080;stroke-width:0.3985;stroke-linecap:butt;stroke-linejoin:miter;stroke-miterlimit:10;stroke-dasharray:none;stroke-opacity:1"
       transform="matrix(1.3333333,0,0,-1.3333333,92.102667,37.34)" />
    <path
       id="path16"
       d="M -1.19551,1.59401 C -1.09587,0.99626 0,0.09961 0.29886,0 0,-0.09961 -1.09587,-0.99626 -1.19551,-1.59401"
       style="fill:none;stroke:#808080;stroke-width:0.31879;stroke-linecap:round;stroke-linejoin:round;stroke-miterlimit:10;stroke-dasharray:none;stroke-opacity:1"
       transform="matrix(1.3333333,0,0,-1.3333333,78.606467,188.52299)" />
    <path
       id="path17"
       d="m 79.33539,-14.1734 c 0,4.67699 -3.79135,8.46835 -8.46836,8.46835 -4.67698,0 -8.46835,-3.79136 -8.46835,-8.46835 0,-4.677 3.79137,-8.46835 8.46835,-8.46835 4.67701,0 8.46836,3.79135 8.46836,8.46835 z"
       style="fill:#8080ff;fill-opacity:1;fill-rule:nonzero;stroke:none"
       transform="matrix(1.3333333,0,0,-1.3333333,92.102667,37.34)" />
    <path
       id="path18"
       d="m 79.33539,-42.52023 c 0,4.677 -3.79135,8.46835 -8.46836,8.46835 -4.67698,0 -8.46835,-3.79135 -8.46835,-8.46835 0,-4.67699 3.79137,-8.46836 8.46835,-8.46836 4.67701,0 8.46836,3.79137 8.46836,8.46836 z"
       style="fill:#8080ff;fill-opacity:1;fill-rule:nonzero;stroke:none"
       transform="matrix(1.3333333,0,0,-1.3333333,92.102667,37.34)" />
    <path
       id="path19"
       d="m 79.33539,-70.86705 c 0,4.67699 -3.79135,8.46835 -8.46836,8.46835 -4.67698,0 -8.46835,-3.79136 -8.46835,-8.46835 0,-4.677 3.79137,-8.46835 8.46835,-8.46835 4.67701,0 8.46836,3.79135 8.46836,8.46835 z"
       style="fill:#8080ff;fill-opacity:1;fill-rule:nonzero;stroke:none"
       transform="matrix(1.3333333,0,0,-1.3333333,92.102667,37.34)" />
    <path
       id="path20"
       d="m 79.33539,-99.21388 c 0,4.677 -3.79135,8.46835 -8.46836,8.46835 -4.67698,0 -8.46835,-3.79135 -8.46835,-8.46835 0,-4.67699 3.79137,-8.46836 8.46835,-8.46836 4.67701,0 8.46836,3.79137 8.46836,8.46836 z"
       style="fill:#8080ff;fill-opacity:1;fill-rule:nonzero;stroke:none"
       transform="matrix(1.3333333,0,0,-1.3333333,92.102667,37.34)" />
    <path
       id="path21"
       d="m 79.33539,-127.5607 c 0,4.67699 -3.79135,8.46835 -8.46836,8.46835 -4.67698,0 -8.46835,-3.79136 -8.46835,-8.46835 0,-4.677 3.79137,-8.46835 8.46835,-8.46835 4.67701,0 8.46836,3.79135 8.46836,8.46835 z"
       style="fill:#8080ff;fill-opacity:1;fill-rule:nonzero;stroke:none"
       transform="matrix(1.3333333,0,0,-1.3333333,92.102667,37.34)" />
    <path
       id="path22"
       d="m 150.20244,-70.86705 c 0,4.67699 -3.79135,8.46835 -8.46835,8.46835 -4.67699,0 -8.46836,-3.79136 -8.46836,-8.46835 0,-4.677 3.79137,-8.46835 8.46836,-8.46835 4.677,0 8.46835,3.79135 8.46835,8.46835 z"
       style="fill:#ff8080;fill-opacity:1;fill-rule:nonzero;stroke:none"
       transform="matrix(1.3333333,0,0,-1.3333333,92.102667,37.34)" />
    <path
       id="path23"
       d="m 7.1835234,-3.3740078 c 0,-2.0390625 -1.5,-3.6445313 -3.3164062,-3.6445313 -1.78125,0 -3.30468751,1.59375 -3.30468751,3.6445313 0,2.0390625 1.53515621,3.59765624 3.30468751,3.59765624 1.8164062,0 3.3164062,-1.58203124 3.3164062,-3.59765624 z m -1.03125,-0.140625 c 0,2.63671874 -1.359375,3.48046874 -2.2734375,3.48046874 -0.9609375,0 -2.296875,-0.87890625 -2.296875,-3.48046874 0,-2.578125 1.453125,-3.2578125 2.2851563,-3.2578125 0.8671875,0 2.2851562,0.703125 2.2851562,3.2578125 z M 13.083914,9.921875e-4 V -0.30369531 c -0.703125,0 -0.785156,-0.0703125 -0.785156,-0.5625 V -4.4052578 l -1.453125,0.1171875 v 0.3046875 c 0.691406,0 0.773437,0.070312 0.773437,0.5625 v 1.7695312 c 0,0.86718754 -0.480468,1.54687504 -1.207031,1.54687504 -0.8320312,0 -0.8789062,-0.46875 -0.8789062,-0.99609374 v -3.3046875 l -1.4648437,0.1171875 v 0.3046875 c 0.7851562,0 0.7851562,0.035156 0.7851562,0.9140625 v 1.5 c 0,0.77343749 0,1.67578124 1.5117187,1.67578124 0.550781,0 0.996094,-0.26953125 1.277344,-0.890625 v 0.890625 z M 16.59368,-1.2294766 v -0.5742187 h -0.246094 v 0.5507812 c 0,0.73828129 -0.304688,1.11328129 -0.667969,1.11328129 -0.667969,0 -0.667969,-0.90234379 -0.667969,-1.07812499 v -2.765625 h 1.429688 v -0.3046875 h -1.429688 v -1.8398438 h -0.246093 c -0.01172,0.8203125 -0.316407,1.8867188 -1.289063,1.921875 v 0.2226563 h 0.84375 v 2.7539062 c 0,1.21875004 0.925781,1.33593754 1.289063,1.33593754 0.703125,0 0.984375,-0.703125 0.984375,-1.33593754 z m 5.762695,-0.9257812 c 0,-1.265625 -0.972656,-2.25 -2.085938,-2.25 -0.773437,0 -1.195312,0.4453125 -1.394531,0.65625 v -0.65625 l -1.429687,0.1171875 v 0.3046875 c 0.703125,0 0.773437,0.058594 0.773437,0.4921875 v 4.6640625 c 0,0.4570312 -0.105469,0.4570312 -0.773437,0.4570312 v 0.3046875 l 1.113281,-0.035156 1.125,0.035156 V 1.6298984 c -0.667969,0 -0.773438,0 -0.773438,-0.4570312 v -1.75781251 c 0.04687,0.15234375 0.46875,0.69140625 1.21875,0.69140625 1.183594,0 2.226563,-0.97265625 2.226563,-2.26171874 z m -0.832031,0 c 0,1.20703124 -0.691407,2.05078124 -1.429688,2.05078124 -0.398437,0 -0.773437,-0.19921875 -1.042969,-0.609375 -0.140625,-0.2109375 -0.140625,-0.22265625 -0.140625,-0.42187504 v -2.2148437 c 0.28125,-0.515625 0.773438,-0.796875 1.277344,-0.796875 0.726563,0 1.335938,0.8671875 1.335938,1.9921875 z M 28.037039,9.921875e-4 V -0.30369531 c -0.703125,0 -0.785156,-0.0703125 -0.785156,-0.5625 V -4.4052578 l -1.453125,0.1171875 v 0.3046875 c 0.691406,0 0.773437,0.070312 0.773437,0.5625 v 1.7695312 c 0,0.86718754 -0.480468,1.54687504 -1.207031,1.54687504 -0.832031,0 -0.878906,-0.46875 -0.878906,-0.99609374 v -3.3046875 l -1.464844,0.1171875 v 0.3046875 c 0.785156,0 0.785156,0.035156 0.785156,0.9140625 v 1.5 c 0,0.77343749 0,1.67578124 1.511719,1.67578124 0.550781,0 0.996094,-0.26953125 1.277344,-0.890625 v 0.890625 z M 31.549734,-1.2294766 v -0.5742187 h -0.246093 v 0.5507812 c 0,0.73828129 -0.304688,1.11328129 -0.667969,1.11328129 -0.667969,0 -0.667969,-0.90234379 -0.667969,-1.07812499 v -2.765625 h 1.429688 v -0.3046875 h -1.429688 v -1.8398438 h -0.246094 c -0.01172,0.8203125 -0.316406,1.8867188 -1.289062,1.921875 v 0.2226563 h 0.84375 v 2.7539062 c 0,1.21875004 0.925781,1.33593754 1.289062,1.33593754 0.703125,0 0.984375,-0.703125 0.984375,-1.33593754 z m 0,0"
       style="fill:#000000;fill-opacity:1;fill-rule:nonzero;stroke:none"
       aria-label="Output"
       transform="matrix(1.3333333,0,0,1.3333333,314.504,135.22133)" />
    <path
       id="path24"
       d="M 151.39796,-70.86705 H 161.829"
       style="fill:none;stroke:#808080;stroke-width:0.3985;stroke-linecap:butt;stroke-linejoin:miter;stroke-miterlimit:10;stroke-dasharray:none;stroke-opacity:1"
       transform="matrix(1.3333333,0,0,-1.3333333,92.102667,37.34)" />
    <path
       id="path25"
       d="M -1.19551,1.59401 C -1.09587,0.99626 0,0.09961 0.29886,0 0,-0.09961 -1.09587,-0.99626 -1.19551,-1.59401"
       style="fill:none;stroke:#808080;stroke-width:0.31879;stroke-linecap:round;stroke-linejoin:round;stroke-miterlimit:10;stroke-dasharray:none;stroke-opacity:1"
       transform="matrix(1.3333333,0,0,-1.3333333,307.87467,131.8294)" />
    <path
       id="path26"
       d="M 8.49896,-26.64703 60.94182,-16.1584"
       style="fill:none;stroke:#808080;stroke-width:0.3985;stroke-linecap:butt;stroke-linejoin:miter;stroke-miterlimit:10;stroke-dasharray:none;stroke-opacity:1"
       transform="matrix(1.3333333,0,0,-1.3333333,92.102667,37.34)" />
    <path
       id="path27"
       d="M -1.19551,1.59401 C -1.09587,0.99626 0,0.09961 0.29886,0 0,-0.09961 -1.09587,-0.99626 -1.19551,-1.59401"
       style="fill:none;stroke:#808080;stroke-width:0.31879;stroke-linecap:round;stroke-linejoin:round;stroke-miterlimit:10;stroke-dasharray:none;stroke-opacity:1"
       transform="matrix(1.3074,-0.26146667,-0.26146667,-1.3074,173.35843,58.88456)" />
    <path
       id="path28"
       d="M 8.49896,-30.04657 60.94182,-40.53523"
       style="fill:none;stroke:#808080;stroke-width:0.3985;stroke-linecap:butt;stroke-linejoin:miter;stroke-miterlimit:10;stroke-dasharray:none;stroke-opacity:1"
       transform="matrix(1.3333333,0,0,-1.3333333,92.102667,37.34)" />
    <path
       id="path29"
       d="M -1.19551,1.59401 C -1.09587,0.99626 0,0.09961 0.29886,0 0,-0.09961 -1.09587,-0.99626 -1.19551,-1.59401"
       style="fill:none;stroke:#808080;stroke-width:0.31879;stroke-linecap:round;stroke-linejoin:round;stroke-miterlimit:10;stroke-dasharray:none;stroke-opacity:1"
       transform="matrix(1.3074,0.26146667,0.26146667,-1.3074,173.35843,91.38696)" />
    <path
       id="path30"
       d="M 7.43217,-32.8061 62.18762,-65.65929"
       style="fill:none;stroke:#808080;stroke-width:0.3985;stroke-linecap:butt;stroke-linejoin:miter;stroke-miterlimit:10;stroke-dasharray:none;stroke-opacity:1"
       transform="matrix(1.3333333,0,0,-1.3333333,92.102667,37.34)" />
    <path
       id="path31"
       d="M -1.19551,1.59401 C -1.09587,0.99626 0,0.09961 0.29886,0 0,-0.09961 -1.09587,-0.99626 -1.19551,-1.59401"
       style="fill:none;stroke:#808080;stroke-width:0.31879;stroke-linecap:round;stroke-linejoin:round;stroke-miterlimit:10;stroke-dasharray:none;stroke-opacity:1"
       transform="matrix(1.1432933,0.68597333,0.68597333,-1.1432933,175.01949,124.88569)" />
    <path
       id="path32"
       d="M 6.1289,-34.47572 63.7096,-92.05644"
       style="fill:none;stroke:#808080;stroke-width:0.3985;stroke-linecap:butt;stroke-linejoin:miter;stroke-miterlimit:10;stroke-dasharray:none;stroke-opacity:1"
       transform="matrix(1.3333333,0,0,-1.3333333,92.102667,37.34)" />
    <path
       id="path33"
       d="M -1.19551,1.59401 C -1.09587,0.99626 0,0.09961 0.29886,0 0,-0.09961 -1.09587,-0.99626 -1.19551,-1.59401"
       style="fill:none;stroke:#808080;stroke-width:0.31879;stroke-linecap:round;stroke-linejoin:round;stroke-miterlimit:10;stroke-dasharray:none;stroke-opacity:1"
       transform="matrix(0.9428,0.9428,0.9428,-0.9428,177.0488,160.08192)" />
    <path
       id="path34"
       d="M 5.03754,-35.39955 64.9841,-119.32443"
       style="fill:none;stroke:#808080;stroke-width:0.3985;stroke-linecap:butt;stroke-linejoin:miter;stroke-miterlimit:10;stroke-dasharray:none;stroke-opacity:1"
       transform="matrix(1.3333333,0,0,-1.3333333,92.102667,37.34)" />
    <path
       id="path35"
       d="M -1.19551,1.59401 C -1.09587,0.99626 0,0.09961 0.29886,0 0,-0.09961 -1.09587,-0.99626 -1.19551,-1.59401"
       style="fill:none;stroke:#808080;stroke-width:0.31879;stroke-linecap:round;stroke-linejoin:round;stroke-miterlimit:10;stroke-dasharray:none;stroke-opacity:1"
       transform="matrix(0.77493333,1.0848933,1.0848933,-0.77493333,178.74813,196.43924)" />
    <path
       id="path36"
       d="m 7.43217,-52.23418 54.75545,32.85314"
       style="fill:none;stroke:#808080;stroke-width:0.3985;stroke-linecap:butt;stroke-linejoin:miter;stroke-miterlimit:10;stroke-dasharray:none;stroke-opacity:1"
       transform="matrix(1.3333333,0,0,-1.3333333,92.102667,37.34)" />
    <path
       id="path37"
       d="M -1.19551,1.59401 C -1.09587,0.99626 0,0.09961 0.29886,0 0,-0.09961 -1.09587,-0.99626 -1.19551,-1.59401"
       style="fill:none;stroke:#808080;stroke-width:0.31879;stroke-linecap:round;stroke-linejoin:round;stroke-miterlimit:10;stroke-dasharray:none;stroke-opacity:1"
       transform="matrix(1.1432933,-0.68597333,-0.68597333,-1.1432933,175.01949,63.181413)" />
    <path
       id="path38"
       d="m 8.49896,-54.99385 52.44286,10.48862"
       style="fill:none;stroke:#808080;stroke-width:0.3985;stroke-linecap:butt;stroke-linejoin:miter;stroke-miterlimit:10;stroke-dasharray:none;stroke-opacity:1"
       transform="matrix(1.3333333,0,0,-1.3333333,92.102667,37.34)" />
    <path
       id="path39"
       d="M -1.19551,1.59401 C -1.09587,0.99626 0,0.09961 0.29886,0 0,-0.09961 -1.09587,-0.99626 -1.19551,-1.59401"
       style="fill:none;stroke:#808080;stroke-width:0.31879;stroke-linecap:round;stroke-linejoin:round;stroke-miterlimit:10;stroke-dasharray:none;stroke-opacity:1"
       transform="matrix(1.3074,-0.26146667,-0.26146667,-1.3074,173.35843,96.680333)" />
    <path
       id="path40"
       d="M 8.49896,-58.39337 60.94182,-68.88205"
       style="fill:none;stroke:#808080;stroke-width:0.3985;stroke-linecap:butt;stroke-linejoin:miter;stroke-miterlimit:10;stroke-dasharray:none;stroke-opacity:1"
       transform="matrix(1.3333333,0,0,-1.3333333,92.102667,37.34)" />
    <path
       id="path41"
       d="M -1.19551,1.59401 C -1.09587,0.99626 0,0.09961 0.29886,0 0,-0.09961 -1.09587,-0.99626 -1.19551,-1.59401"
       style="fill:none;stroke:#808080;stroke-width:0.31879;stroke-linecap:round;stroke-linejoin:round;stroke-miterlimit:10;stroke-dasharray:none;stroke-opacity:1"
       transform="matrix(1.3074,0.26146667,0.26146667,-1.3074,173.35843,129.18271)" />
    <path
       id="path42"
       d="M 7.43217,-61.15305 62.18762,-94.0061"
       style="fill:none;stroke:#808080;stroke-width:0.3985;stroke-linecap:butt;stroke-linejoin:miter;stroke-miterlimit:10;stroke-dasharray:none;stroke-opacity:1"
       transform="matrix(1.3333333,0,0,-1.3333333,92.102667,37.34)" />
    <path
       id="path43"
       d="M -1.19551,1.59401 C -1.09587,0.99626 0,0.09961 0.29886,0 0,-0.09961 -1.09587,-0.99626 -1.19551,-1.59401"
       style="fill:none;stroke:#808080;stroke-width:0.31879;stroke-linecap:round;stroke-linejoin:round;stroke-miterlimit:10;stroke-dasharray:none;stroke-opacity:1"
       transform="matrix(1.1432933,0.68597333,0.68597333,-1.1432933,175.01949,162.68145)" />
    <path
       id="path44"
       d="m 6.1289,-62.82254 57.5807,-57.58072"
       style="fill:none;stroke:#808080;stroke-width:0.3985;stroke-linecap:butt;stroke-linejoin:miter;stroke-miterlimit:10;stroke-dasharray:none;stroke-opacity:1"
       transform="matrix(1.3333333,0,0,-1.3333333,92.102667,37.34)" />
    <path
       id="path45"
       d="M -1.19551,1.59401 C -1.09587,0.99626 0,0.09961 0.29886,0 0,-0.09961 -1.09587,-0.99626 -1.19551,-1.59401"
       style="fill:none;stroke:#808080;stroke-width:0.31879;stroke-linecap:round;stroke-linejoin:round;stroke-miterlimit:10;stroke-dasharray:none;stroke-opacity:1"
       transform="matrix(0.9428,0.9428,0.9428,-0.9428,177.0488,197.87768)" />
    <path
       id="path46"
       d="m 6.1289,-78.9115 57.5807,57.58066"
       style="fill:none;stroke:#808080;stroke-width:0.3985;stroke-linecap:butt;stroke-linejoin:miter;stroke-miterlimit:10;stroke-dasharray:none;stroke-opacity:1"
       transform="matrix(1.3333333,0,0,-1.3333333,92.102667,37.34)" />
    <path
       id="path47"
       d="M -1.19551,1.59401 C -1.09587,0.99626 0,0.09961 0.29886,0 0,-0.09961 -1.09587,-0.99626 -1.19551,-1.59401"
       style="fill:none;stroke:#808080;stroke-width:0.31879;stroke-linecap:round;stroke-linejoin:round;stroke-miterlimit:10;stroke-dasharray:none;stroke-opacity:1"
       transform="matrix(0.9428,-0.9428,-0.9428,-0.9428,177.0488,65.78112)" />
    <path
       id="path48"
       d="m 7.43217,-80.58098 54.75545,32.85312"
       style="fill:none;stroke:#808080;stroke-width:0.3985;stroke-linecap:butt;stroke-linejoin:miter;stroke-miterlimit:10;stroke-dasharray:none;stroke-opacity:1"
       transform="matrix(1.3333333,0,0,-1.3333333,92.102667,37.34)" />
    <path
       id="path49"
       d="M -1.19551,1.59401 C -1.09587,0.99626 0,0.09961 0.29886,0 0,-0.09961 -1.09587,-0.99626 -1.19551,-1.59401"
       style="fill:none;stroke:#808080;stroke-width:0.31879;stroke-linecap:round;stroke-linejoin:round;stroke-miterlimit:10;stroke-dasharray:none;stroke-opacity:1"
       transform="matrix(1.1432933,-0.68597333,-0.68597333,-1.1432933,175.01949,100.97716)" />
    <path
       id="path50"
       d="m 8.49883,-83.34065 52.443,10.4886"
       style="fill:none;stroke:#808080;stroke-width:0.3985;stroke-linecap:butt;stroke-linejoin:miter;stroke-miterlimit:10;stroke-dasharray:none;stroke-opacity:1"
       transform="matrix(1.3333333,0,0,-1.3333333,92.102667,37.34)" />
    <path
       id="path51"
       d="M -1.19551,1.59401 C -1.09587,0.99626 0,0.09961 0.29886,0 0,-0.09961 -1.09587,-0.99626 -1.19551,-1.59401"
       style="fill:none;stroke:#808080;stroke-width:0.31879;stroke-linecap:round;stroke-linejoin:round;stroke-miterlimit:10;stroke-dasharray:none;stroke-opacity:1"
       transform="matrix(1.3073733,-0.26146667,-0.26146667,-1.3073733,173.35844,134.47609)" />
    <path
       id="path52"
       d="M 8.49896,-86.74019 60.94182,-97.22888"
       style="fill:none;stroke:#808080;stroke-width:0.3985;stroke-linecap:butt;stroke-linejoin:miter;stroke-miterlimit:10;stroke-dasharray:none;stroke-opacity:1"
       transform="matrix(1.3333333,0,0,-1.3333333,92.102667,37.34)" />
    <path
       id="path53"
       d="M -1.19551,1.59401 C -1.09587,0.99626 0,0.09961 0.29886,0 0,-0.09961 -1.09587,-0.99626 -1.19551,-1.59401"
       style="fill:none;stroke:#808080;stroke-width:0.31879;stroke-linecap:round;stroke-linejoin:round;stroke-miterlimit:10;stroke-dasharray:none;stroke-opacity:1"
       transform="matrix(1.3074,0.26146667,0.26146667,-1.3074,173.35843,166.97849)" />
    <path
       id="path54"
       d="m 7.43217,-89.49986 54.75545,-32.85308"
       style="fill:none;stroke:#808080;stroke-width:0.3985;stroke-linecap:butt;stroke-linejoin:miter;stroke-miterlimit:10;stroke-dasharray:none;stroke-opacity:1"
       transform="matrix(1.3333333,0,0,-1.3333333,92.102667,37.34)" />
    <path
       id="path55"
       d="M -1.19551,1.59401 C -1.09587,0.99626 0,0.09961 0.29886,0 0,-0.09961 -1.09587,-0.99626 -1.19551,-1.59401"
       style="fill:none;stroke:#808080;stroke-width:0.31879;stroke-linecap:round;stroke-linejoin:round;stroke-miterlimit:10;stroke-dasharray:none;stroke-opacity:1"
       transform="matrix(1.1432933,0.68597333,0.68597333,-1.1432933,175.01949,200.47723)" />
    <path
       id="path56"
       d="M 5.03766,-106.33463 64.98413,-22.4097"
       style="fill:none;stroke:#808080;stroke-width:0.3985;stroke-linecap:butt;stroke-linejoin:miter;stroke-miterlimit:10;stroke-dasharray:none;stroke-opacity:1"
       transform="matrix(1.3333333,0,0,-1.3333333,92.102667,37.34)" />
    <path
       id="path57"
       d="M -1.19551,1.59401 C -1.09587,0.99626 0,0.09961 0.29886,0 0,-0.09961 -1.09587,-0.99626 -1.19551,-1.59401"
       style="fill:none;stroke:#808080;stroke-width:0.31879;stroke-linecap:round;stroke-linejoin:round;stroke-miterlimit:10;stroke-dasharray:none;stroke-opacity:1"
       transform="matrix(0.77492,-1.08492,-1.08492,-0.77492,178.74816,67.219613)" />
    <path
       id="path58"
       d="m 6.1289,-107.25832 57.5807,57.58065"
       style="fill:none;stroke:#808080;stroke-width:0.3985;stroke-linecap:butt;stroke-linejoin:miter;stroke-miterlimit:10;stroke-dasharray:none;stroke-opacity:1"
       transform="matrix(1.3333333,0,0,-1.3333333,92.102667,37.34)" />
    <path
       id="path59"
       d="M -1.19551,1.59401 C -1.09587,0.99626 0,0.09961 0.29886,0 0,-0.09961 -1.09587,-0.99626 -1.19551,-1.59401"
       style="fill:none;stroke:#808080;stroke-width:0.31879;stroke-linecap:round;stroke-linejoin:round;stroke-miterlimit:10;stroke-dasharray:none;stroke-opacity:1"
       transform="matrix(0.9428,-0.9428,-0.9428,-0.9428,177.0488,103.57689)" />
    <path
       id="path60"
       d="m 7.43217,-108.9278 54.75545,32.85311"
       style="fill:none;stroke:#808080;stroke-width:0.3985;stroke-linecap:butt;stroke-linejoin:miter;stroke-miterlimit:10;stroke-dasharray:none;stroke-opacity:1"
       transform="matrix(1.3333333,0,0,-1.3333333,92.102667,37.34)" />
    <path
       id="path61"
       d="M -1.19551,1.59401 C -1.09587,0.99626 0,0.09961 0.29886,0 0,-0.09961 -1.09587,-0.99626 -1.19551,-1.59401"
       style="fill:none;stroke:#808080;stroke-width:0.31879;stroke-linecap:round;stroke-linejoin:round;stroke-miterlimit:10;stroke-dasharray:none;stroke-opacity:1"
       transform="matrix(1.1432933,-0.68597333,-0.68597333,-1.1432933,175.01949,138.77293)" />
    <path
       id="path62"
       d="m 8.49883,-111.68747 52.443,10.48859"
       style="fill:none;stroke:#808080;stroke-width:0.3985;stroke-linecap:butt;stroke-linejoin:miter;stroke-miterlimit:10;stroke-dasharray:none;stroke-opacity:1"
       transform="matrix(1.3333333,0,0,-1.3333333,92.102667,37.34)" />
    <path
       id="path63"
       d="M -1.19551,1.59401 C -1.09587,0.99626 0,0.09961 0.29886,0 0,-0.09961 -1.09587,-0.99626 -1.19551,-1.59401"
       style="fill:none;stroke:#808080;stroke-width:0.31879;stroke-linecap:round;stroke-linejoin:round;stroke-miterlimit:10;stroke-dasharray:none;stroke-opacity:1"
       transform="matrix(1.3073733,-0.26146667,-0.26146667,-1.3073733,173.35844,172.27187)" />
    <path
       id="path64"
       d="m 8.49896,-115.08699 52.44286,-10.48872"
       style="fill:none;stroke:#808080;stroke-width:0.3985;stroke-linecap:butt;stroke-linejoin:miter;stroke-miterlimit:10;stroke-dasharray:none;stroke-opacity:1"
       transform="matrix(1.3333333,0,0,-1.3333333,92.102667,37.34)" />
    <path
       id="path65"
       d="M -1.19551,1.59401 C -1.09587,0.99626 0,0.09961 0.29886,0 0,-0.09961 -1.09587,-0.99626 -1.19551,-1.59401"
       style="fill:none;stroke:#808080;stroke-width:0.31879;stroke-linecap:round;stroke-linejoin:round;stroke-miterlimit:10;stroke-dasharray:none;stroke-opacity:1"
       transform="matrix(1.3074,0.26146667,0.26146667,-1.3074,173.35843,204.77427)" />
    <path
       id="path66"
       d="m 77.6349,-19.58774 56.19559,-44.95637"
       style="fill:none;stroke:#808080;stroke-width:0.3985;stroke-linecap:butt;stroke-linejoin:miter;stroke-miterlimit:10;stroke-dasharray:none;stroke-opacity:1"
       transform="matrix(1.3333333,0,0,-1.3333333,92.102667,37.34)" />
    <path
       id="path67"
       d="M -1.19551,1.59401 C -1.09587,0.99626 0,0.09961 0.29886,0 0,-0.09961 -1.09587,-0.99626 -1.19551,-1.59401"
       style="fill:none;stroke:#808080;stroke-width:0.31879;stroke-linecap:round;stroke-linejoin:round;stroke-miterlimit:10;stroke-dasharray:none;stroke-opacity:1"
       transform="matrix(1.0410933,0.83288,0.83288,-1.0410933,270.54332,123.39881)" />
    <path
       id="path68"
       d="m 78.91435,-45.73909 53.42197,-21.36893"
       style="fill:none;stroke:#808080;stroke-width:0.3985;stroke-linecap:butt;stroke-linejoin:miter;stroke-miterlimit:10;stroke-dasharray:none;stroke-opacity:1"
       transform="matrix(1.3333333,0,0,-1.3333333,92.102667,37.34)" />
    <path
       id="path69"
       d="M -1.19551,1.59401 C -1.09587,0.99626 0,0.09961 0.29886,0 0,-0.09961 -1.09587,-0.99626 -1.19551,-1.59401"
       style="fill:none;stroke:#808080;stroke-width:0.31879;stroke-linecap:round;stroke-linejoin:round;stroke-miterlimit:10;stroke-dasharray:none;stroke-opacity:1"
       transform="matrix(1.23792,0.49516,0.49516,-1.23792,268.55107,126.81736)" />
    <path
       id="path70"
       d="m 79.53465,-70.86705 h 52.07727"
       style="fill:none;stroke:#808080;stroke-width:0.3985;stroke-linecap:butt;stroke-linejoin:miter;stroke-miterlimit:10;stroke-dasharray:none;stroke-opacity:1"
       transform="matrix(1.3333333,0,0,-1.3333333,92.102667,37.34)" />
    <path
       id="path71"
       d="M -1.19551,1.59401 C -1.09587,0.99626 0,0.09961 0.29886,0 0,-0.09961 -1.09587,-0.99626 -1.19551,-1.59401"
       style="fill:none;stroke:#808080;stroke-width:0.31879;stroke-linecap:round;stroke-linejoin:round;stroke-miterlimit:10;stroke-dasharray:none;stroke-opacity:1"
       transform="matrix(1.3333333,0,0,-1.3333333,267.58523,131.8294)" />
    <path
       id="path72"
       d="m 78.91435,-95.99501 53.42197,21.36891"
       style="fill:none;stroke:#808080;stroke-width:0.3985;stroke-linecap:butt;stroke-linejoin:miter;stroke-miterlimit:10;stroke-dasharray:none;stroke-opacity:1"
       transform="matrix(1.3333333,0,0,-1.3333333,92.102667,37.34)" />
    <path
       id="path73"
       d="M -1.19551,1.59401 C -1.09587,0.99626 0,0.09961 0.29886,0 0,-0.09961 -1.09587,-0.99626 -1.19551,-1.59401"
       style="fill:none;stroke:#808080;stroke-width:0.31879;stroke-linecap:round;stroke-linejoin:round;stroke-miterlimit:10;stroke-dasharray:none;stroke-opacity:1"
       transform="matrix(1.23792,-0.49516,-0.49516,-1.23792,268.55107,136.84147)" />
    <path
       id="path74"
       d="M 77.6349,-122.14636 133.83049,-77.19"
       style="fill:none;stroke:#808080;stroke-width:0.3985;stroke-linecap:butt;stroke-linejoin:miter;stroke-miterlimit:10;stroke-dasharray:none;stroke-opacity:1"
       transform="matrix(1.3333333,0,0,-1.3333333,92.102667,37.34)" />
    <path
       id="path75"
       d="M -1.19551,1.59401 C -1.09587,0.99626 0,0.09961 0.29886,0 0,-0.09961 -1.09587,-0.99626 -1.19551,-1.59401"
       style="fill:none;stroke:#808080;stroke-width:0.31879;stroke-linecap:round;stroke-linejoin:round;stroke-miterlimit:10;stroke-dasharray:none;stroke-opacity:1"
       transform="matrix(1.0410933,-0.83288,-0.83288,-1.0410933,270.54332,140.26)" />
    <path
       id="path76"
       d="M 7.1355,-9.375e-4 V -0.305625 H 6.8894063 c -0.7617188,0 -0.7851563,-0.1171875 -0.7851563,-0.46875 v -5.25 c 0,-0.3632812 0.023437,-0.46875 0.7851563,-0.46875 H 7.1355 v -0.3164062 c -0.3515625,0.035156 -1.0898437,0.035156 -1.4648437,0.035156 -0.3867188,0 -1.125,0 -1.4765625,-0.035156 v 0.3164062 h 0.234375 c 0.7734375,0 0.7851562,0.1054688 0.7851562,0.46875 v 2.3320313 H 2.2370625 V -6.024375 c 0,-0.3632812 0.023437,-0.46875 0.7851563,-0.46875 h 0.2460937 v -0.3164062 c -0.3515625,0.035156 -1.0898437,0.035156 -1.4648437,0.035156 -0.375,0 -1.12500005,0 -1.47656255,-0.035156 v 0.3164062 h 0.234375 c 0.77343755,0 0.79687505,0.1054688 0.79687505,0.46875 v 5.25 c 0,0.3515625 -0.023437,0.46875 -0.79687505,0.46875 h -0.234375 V -9.375e-4 C 0.67846875,-0.03609375 1.41675,-0.03609375 1.79175,-0.03609375 c 0.375,0 1.125,0 1.4765625,0.03515625 V -0.305625 H 3.0222188 c -0.7617188,0 -0.7851563,-0.1171875 -0.7851563,-0.46875 V -3.3876562 H 5.213625 v 2.6132812 c 0,0.3515625 -0.011719,0.46875 -0.7851562,0.46875 h -0.234375 v 0.3046875 c 0.3515625,-0.03515625 1.0898437,-0.03515625 1.4648437,-0.03515625 0.375,0 1.125,0 1.4765625,0.03515625 z m 2.7978516,0 V -0.305625 c -0.65625,0 -0.703125,-0.0585938 -0.703125,-0.4453125 v -3.65625 L 7.8356953,-4.29 v 0.3046875 c 0.65625,0 0.7382813,0.058594 0.7382813,0.5507813 v 2.67187495 c 0,0.45703125 -0.1054688,0.45703125 -0.7734375,0.45703125 v 0.3046875 l 1.1015625,-0.03515625 c 0.3398437,0 0.6914062,0.0234375 1.03125,0.03515625 z M 9.3825703,-6.0126562 C 9.3825703,-6.2821875 9.1599141,-6.54 8.8552266,-6.54 c -0.3398438,0 -0.5390625,0.2695313 -0.5390625,0.5273438 0,0.2695312 0.234375,0.5273437 0.5273437,0.5273437 0.3398438,0 0.5390625,-0.28125 0.5390625,-0.5273437 z M 15.490969,-9.375e-4 V -0.305625 c -0.703125,0 -0.773438,-0.0703125 -0.773438,-0.5625 V -6.915 l -1.441406,0.1054688 v 0.3164062 c 0.703125,0 0.785156,0.070312 0.785156,0.5507813 v 2.15625 c -0.292968,-0.3632813 -0.726562,-0.6210938 -1.265625,-0.6210938 -1.171875,0 -2.214843,0.984375 -2.214843,2.2617188 0,1.26562495 0.972656,2.24999995 2.109375,2.24999995 0.644531,0 1.089843,-0.33984375 1.335937,-0.65625 v 0.65625 z m -1.464844,-1.171875 c 0,0.17578125 0,0.19921875 -0.105469,0.36328125 -0.304687,0.48046875 -0.75,0.703125 -1.183593,0.703125 -0.445313,0 -0.796875,-0.2578125 -1.042969,-0.64453125 -0.257813,-0.4101562 -0.292969,-0.9726562 -0.292969,-1.3828125 0,-0.3632812 0.02344,-0.9609375 0.316406,-1.4179687 0.210938,-0.3046875 0.585938,-0.6328125 1.125,-0.6328125 0.351563,0 0.761719,0.1523437 1.078125,0.5976562 0.105469,0.1640625 0.105469,0.1875 0.105469,0.3632813 z m 7.004883,1.171875 V -0.305625 c -0.703125,0 -0.773438,-0.0703125 -0.773438,-0.5625 V -6.915 l -1.441406,0.1054688 v 0.3164062 c 0.703125,0 0.785156,0.070312 0.785156,0.5507813 v 2.15625 c -0.292968,-0.3632813 -0.726562,-0.6210938 -1.265625,-0.6210938 -1.171875,0 -2.214843,0.984375 -2.214843,2.2617188 0,1.26562495 0.972656,2.24999995 2.109375,2.24999995 0.644531,0 1.089843,-0.33984375 1.335937,-0.65625 v 0.65625 z m -1.464844,-1.171875 c 0,0.17578125 0,0.19921875 -0.105469,0.36328125 -0.304687,0.48046875 -0.75,0.703125 -1.183593,0.703125 -0.445313,0 -0.796875,-0.2578125 -1.042969,-0.64453125 -0.257813,-0.4101562 -0.292969,-0.9726562 -0.292969,-1.3828125 0,-0.3632812 0.02344,-0.9609375 0.316406,-1.4179687 0.210938,-0.3046875 0.585938,-0.6328125 1.125,-0.6328125 0.351563,0 0.761719,0.1523437 1.078125,0.5976562 0.105469,0.1640625 0.105469,0.1875 0.105469,0.3632813 z m 5.891602,-0.011719 c 0,-0.1054688 -0.08203,-0.1171875 -0.128907,-0.1171875 -0.09375,0 -0.117187,0.058594 -0.128906,0.140625 -0.351562,1.0195312 -1.253906,1.0195312 -1.347656,1.0195312 -0.503906,0 -0.902344,-0.29296875 -1.125,-0.66796875 C 22.422609,-1.29 22.422609,-1.94625 22.422609,-2.2978125 h 2.789063 c 0.210937,0 0.246094,0 0.246094,-0.2109375 0,-0.984375 -0.539063,-1.9570312 -1.78125,-1.9570312 -1.160157,0 -2.074219,1.03125 -2.074219,2.2734375 0,1.33593745 1.042969,2.29687495 2.191406,2.29687495 1.21875,0 1.664063,-1.1015625 1.664063,-1.28906275 z M 24.801516,-2.50875 h -2.367188 c 0.05859,-1.4882812 0.902344,-1.734375 1.242188,-1.734375 1.019531,0 1.125,1.3476563 1.125,1.734375 z m 6.27539,2.5078125 V -0.305625 c -0.515625,0 -0.773437,0 -0.785156,-0.3046875 V -2.50875 c 0,-0.8554687 0,-1.171875 -0.304687,-1.5234375 -0.140625,-0.1757812 -0.46875,-0.375 -1.042969,-0.375 -0.726563,0 -1.195313,0.4335938 -1.476563,1.0546875 V -4.4071875 L 26.061281,-4.29 v 0.3046875 c 0.703125,0 0.785157,0.070312 0.785157,0.5625 v 2.66015625 c 0,0.45703125 -0.117188,0.45703125 -0.785157,0.45703125 v 0.3046875 l 1.125,-0.03515625 1.113282,0.03515625 V -0.305625 c -0.65625,0 -0.773438,0 -0.773438,-0.45703125 V -2.5907812 c 0,-1.03125 0.714844,-1.59375 1.347656,-1.59375 0.621094,0 0.738282,0.5390625 0.738282,1.1015625 v 2.32031245 c 0,0.45703125 -0.117188,0.45703125 -0.773438,0.45703125 v 0.3046875 l 1.125,-0.03515625 z m 0,0"
       style="fill:#000000;fill-opacity:1;fill-rule:nonzero;stroke:none"
       aria-label="Hidden"
       transform="matrix(1.3333333,0,0,1.3333333,165.736,13.72)" />
    <path
       id="path77"
       d="M 2.54175,1.171875e-4 V -0.30457031 c -0.6679688,0 -0.7851563,0 -0.7851563,-0.45703125 V -6.9139453 l -1.42968745,0.1054687 v 0.3164063 c 0.70312495,0 0.77343745,0.070312 0.77343745,0.5507812 v 5.17968754 c 0,0.45703125 -0.1054687,0.45703125 -0.77343745,0.45703125 V 1.171875e-4 L 1.4284687,-0.03503906 Z M 7.5866719,-0.89050781 V -1.4412891 H 7.3288594 v 0.55078129 c 0,0.5859375 -0.2460938,0.64453125 -0.3515625,0.64453125 -0.328125,0 -0.375,-0.45703125 -0.375,-0.50390625 V -2.7420703 c 0,-0.4101563 0,-0.8085938 -0.3515625,-1.171875 -0.3867188,-0.3867188 -0.890625,-0.5507813 -1.3710938,-0.5507813 -0.8085937,0 -1.5,0.46875 -1.5,1.125 0,0.3046875 0.1992188,0.46875 0.4570313,0.46875 0.28125,0 0.4570312,-0.1992187 0.4570312,-0.4570312 0,-0.1171875 -0.046875,-0.4453125 -0.5039062,-0.4570313 0.2695312,-0.3515625 0.75,-0.4570312 1.078125,-0.4570312 0.4804687,0 1.0546875,0.3867187 1.0546875,1.2773437 v 0.3632813 c -0.515625,0.035156 -1.2070313,0.058594 -1.8398438,0.3632812 -0.75,0.3398438 -0.9960937,0.8554688 -0.9960937,1.28906254 0,0.80859375 0.9726562,1.0546875 1.59375,1.0546875 0.65625,0 1.1132812,-0.3984375 1.3125,-0.8671875 0.035156,0.3984375 0.3046875,0.8203125 0.7734375,0.8203125 0.2109375,0 0.8203125,-0.140625 0.8203125,-0.94921875 z M 5.9226094,-1.3944141 c 0,0.94921879 -0.7265625,1.28906254 -1.171875,1.28906254 -0.4804688,0 -0.890625,-0.3515625 -0.890625,-0.85546875 0,-0.53906249 0.4101562,-1.37109379 2.0625,-1.42968749 z m 6.6123046,-2.5898437 v -0.3046875 c -0.234375,0.011719 -0.515625,0.023437 -0.75,0.023437 l -0.867187,-0.023437 v 0.3046875 c 0.304687,0.011719 0.46875,0.1757812 0.46875,0.4335937 0,0.09375 -0.01172,0.1171875 -0.05859,0.234375 L 10.32007,-0.86707031 9.2185078,-3.5506641 c -0.046875,-0.09375 -0.058594,-0.140625 -0.058594,-0.1757812 0,-0.2578125 0.3632812,-0.2578125 0.5507812,-0.2578125 v -0.3046875 l -1.078125,0.023437 c -0.2695312,0 -0.6679687,-0.011719 -0.9726562,-0.023437 v 0.3046875 c 0.4804687,0 0.6679687,0 0.8085937,0.3515625 l 1.5,3.6328124875 L 9.7106953,0.58605469 C 9.4997578,1.1368359 9.2185078,1.8282422 8.5739766,1.8282422 c -0.046875,0 -0.2695313,0 -0.46875,-0.1875 0.3164062,-0.035156 0.3984375,-0.2578125 0.3984375,-0.4101563 0,-0.26953121 -0.1992188,-0.42187496 -0.421875,-0.42187496 -0.1992188,0 -0.421875,0.12890625 -0.421875,0.42187496 0,0.4570313 0.421875,0.8085938 0.9140625,0.8085938 0.6328125,0 1.0429687,-0.5625 1.2773437,-1.13671876 L 11.609133,-3.3514453 c 0.257812,-0.6210938 0.761719,-0.6328125 0.925781,-0.6328125 z m 4.054688,2.8007812 c 0,-0.1054687 -0.08203,-0.1171875 -0.128907,-0.1171875 -0.09375,0 -0.117187,0.058594 -0.128906,0.140625 -0.351562,1.01953129 -1.253906,1.01953129 -1.347656,1.01953129 -0.503906,0 -0.902344,-0.29296875 -1.125,-0.66796875 C 13.554445,-1.2889453 13.554445,-1.9451953 13.554445,-2.2967578 h 2.789063 c 0.210937,0 0.246094,0 0.246094,-0.2109375 0,-0.984375 -0.539063,-1.9570313 -1.78125,-1.9570313 -1.160157,0 -2.074219,1.03125 -2.074219,2.2734375 0,1.33593754 1.042969,2.29687504 2.191406,2.29687504 1.21875,0 1.664063,-1.1015625 1.664063,-1.28906254 z m -0.65625,-1.3242187 h -2.367188 c 0.05859,-1.4882813 0.902344,-1.734375 1.242188,-1.734375 1.019531,0 1.125,1.3476562 1.125,1.734375 z m 4.564453,-1.2890625 c 0,-0.3164063 -0.304688,-0.609375 -0.726563,-0.609375 -0.738281,0 -1.089844,0.6679687 -1.230469,1.1015625 v -1.1015625 l -1.382812,0.1171875 v 0.3046875 c 0.691406,0 0.773437,0.070312 0.773437,0.5625 v 2.66015624 c 0,0.45703125 -0.105468,0.45703125 -0.773437,0.45703125 V 1.171875e-4 L 18.29468,-0.03503906 c 0.398437,0 0.867187,0 1.265625,0.0351562475 V -0.30457031 h -0.210938 c -0.738281,0 -0.761719,-0.1171875 -0.761719,-0.46875 V -2.3084766 c 0,-0.984375 0.421875,-1.875 1.183594,-1.875 0.05859,0 0.08203,0 0.105469,0.011719 -0.03516,0.011719 -0.234375,0.1289062 -0.234375,0.3867187 0,0.28125 0.210937,0.4335938 0.433594,0.4335938 0.175781,0 0.421875,-0.1289063 0.421875,-0.4453127 z m 0,0"
       style="fill:#000000;fill-opacity:1;fill-rule:nonzero;stroke:none"
       aria-label="layer"
       transform="matrix(1.3333333,0,0,1.3333333,172.736,29.66)" />
    <path
       id="path78"
       d="m 3.3166328,0.00132812 v -0.3046875 H 3.0588203 c -0.7851562,0 -0.8203125,-0.1171875 -0.8203125,-0.46875 V -6.0221094 c 0,-0.3632812 0.035156,-0.46875 0.8203125,-0.46875 h 0.2578125 v -0.3164062 c -0.3515625,0.035156 -1.1367187,0.035156 -1.5117187,0.035156 -0.3867188,0 -1.17187504,0 -1.52343754,-0.035156 v 0.3164062 h 0.2578125 c 0.78515624,0 0.82031254,0.1054688 0.82031254,0.46875 v 5.25000002 c 0,0.3515625 -0.035156,0.46875 -0.82031254,0.46875 h -0.2578125 v 0.3046875 c 0.3515625,-0.03515625 1.13671874,-0.03515625 1.51171874,-0.03515625 0.3867188,0 1.171875,0 1.5234375,0.03515625 z m 5.6132813,0 v -0.3046875 c -0.515625,0 -0.7734375,0 -0.7851563,-0.3046875 V -2.5064844 c 0,-0.8554687 0,-1.171875 -0.3046875,-1.5234375 -0.140625,-0.1757812 -0.46875,-0.375 -1.0429687,-0.375 -0.7265625,0 -1.1953125,0.4335938 -1.4765625,1.0546875 v -1.0546875 l -1.40625,0.1171875 v 0.3046875 c 0.703125,0 0.7851562,0.070312 0.7851562,0.5625 v 2.66015627 c 0,0.45703125 -0.1171875,0.45703125 -0.7851562,0.45703125 v 0.3046875 l 1.125,-0.03515625 1.1132812,0.03515625 v -0.3046875 c -0.65625,0 -0.7734375,0 -0.7734375,-0.45703125 V -2.5885156 c 0,-1.03125 0.7148438,-1.59375 1.3476563,-1.59375 0.6210937,0 0.7382812,0.5390625 0.7382812,1.1015625 v 2.32031247 c 0,0.45703125 -0.1171875,0.45703125 -0.7734375,0.45703125 v 0.3046875 l 1.125,-0.03515625 z M 14.326398,-2.1549219 c 0,-1.265625 -0.972656,-2.25 -2.085937,-2.25 -0.773438,0 -1.195313,0.4453125 -1.394531,0.65625 v -0.65625 l -1.4296878,0.1171875 v 0.3046875 c 0.7031248,0 0.7734378,0.058594 0.7734378,0.4921875 v 4.6640625 c 0,0.4570313 -0.105469,0.4570313 -0.7734378,0.4570313 v 0.3046875 l 1.1132808,-0.035156 1.125,0.035156 V 1.6302344 c -0.667968,0 -0.773437,0 -0.773437,-0.4570313 v -1.75781248 c 0.04687,0.15234375 0.46875,0.69140625 1.21875,0.69140625 1.183594,0 2.226562,-0.97265625 2.226562,-2.26171877 z m -0.832031,0 c 0,1.20703127 -0.691406,2.05078127 -1.429687,2.05078127 -0.398438,0 -0.773438,-0.19921875 -1.042969,-0.609375 -0.140625,-0.2109375 -0.140625,-0.22265625 -0.140625,-0.42187497 v -2.2148438 c 0.28125,-0.515625 0.773437,-0.796875 1.277344,-0.796875 0.726562,0 1.335937,0.8671875 1.335937,1.9921875 z m 6.512696,2.15625002 v -0.3046875 c -0.703125,0 -0.785157,-0.0703125 -0.785157,-0.5625 V -4.4049219 l -1.453125,0.1171875 v 0.3046875 c 0.691407,0 0.773438,0.070312 0.773438,0.5625 v 1.7695313 c 0,0.86718747 -0.480469,1.54687497 -1.207031,1.54687497 -0.832032,0 -0.878907,-0.46875 -0.878907,-0.99609377 v -3.3046875 l -1.464843,0.1171875 v 0.3046875 c 0.785156,0 0.785156,0.035156 0.785156,0.9140625 v 1.5 c 0,0.77343752 0,1.67578127 1.511719,1.67578127 0.550781,0 0.996093,-0.26953125 1.277343,-0.890625 v 0.890625 z m 3.512695,-1.23046872 v -0.5742188 h -0.246094 v 0.5507813 c 0,0.73828122 -0.304687,1.11328122 -0.667969,1.11328122 -0.667968,0 -0.667968,-0.90234372 -0.667968,-1.07812502 v -2.765625 h 1.429687 v -0.3046875 h -1.429687 v -1.8398437 h -0.246094 c -0.01172,0.8203125 -0.316406,1.8867187 -1.289063,1.921875 v 0.2226562 h 0.84375 v 2.7539063 c 0,1.21874997 0.925782,1.33593747 1.289063,1.33593747 0.703125,0 0.984375,-0.703125 0.984375,-1.33593747 z m 0,0"
       style="fill:#000000;fill-opacity:1;fill-rule:nonzero;stroke:none"
       aria-label="Input"
       transform="matrix(1.3333333,0,0,1.3333333,76.042667,13.646667)" />
    <path
       id="path79"
       d="M 2.5415391,-5.46875e-4 V -0.30523437 c -0.6679688,0 -0.7851563,0 -0.7851563,-0.45703125 V -6.9146094 l -1.42968749,0.1054688 v 0.3164062 c 0.70312499,0 0.77343749,0.070312 0.77343749,0.5507813 v 5.17968748 c 0,0.45703125 -0.10546874,0.45703125 -0.77343749,0.45703125 V -5.46875e-4 L 1.4282578,-0.03570312 Z M 7.5864609,-0.89117187 V -1.4419531 H 7.3286484 v 0.55078123 c 0,0.5859375 -0.2460937,0.64453125 -0.3515625,0.64453125 -0.328125,0 -0.375,-0.45703125 -0.375,-0.50390625 V -2.7427344 c 0,-0.4101562 0,-0.8085937 -0.3515625,-1.171875 -0.3867187,-0.3867187 -0.890625,-0.5507812 -1.3710937,-0.5507812 -0.8085938,0 -1.5,0.46875 -1.5,1.125 0,0.3046875 0.1992187,0.46875 0.4570312,0.46875 0.28125,0 0.4570313,-0.1992188 0.4570313,-0.4570313 0,-0.1171875 -0.046875,-0.4453125 -0.5039063,-0.4570312 0.2695313,-0.3515625 0.75,-0.4570313 1.078125,-0.4570313 0.4804688,0 1.0546875,0.3867188 1.0546875,1.2773438 v 0.3632812 c -0.515625,0.035156 -1.2070312,0.058594 -1.8398437,0.3632813 -0.75,0.3398437 -0.9960938,0.8554687 -0.9960938,1.28906248 0,0.80859375 0.9726563,1.0546875 1.59375,1.0546875 0.65625,0 1.1132813,-0.3984375 1.3125,-0.8671875 0.035156,0.3984375 0.3046875,0.8203125 0.7734375,0.8203125 0.2109375,0 0.8203125,-0.140625 0.8203125,-0.94921875 z M 5.9223984,-1.3950781 c 0,0.94921873 -0.7265625,1.28906248 -1.171875,1.28906248 -0.4804687,0 -0.890625,-0.3515625 -0.890625,-0.85546875 0,-0.53906253 0.4101563,-1.37109373 2.0625,-1.42968753 z m 6.6123046,-2.5898438 v -0.3046875 c -0.234375,0.011719 -0.515625,0.023437 -0.75,0.023437 l -0.867187,-0.023437 v 0.3046875 c 0.304687,0.011719 0.46875,0.1757813 0.46875,0.4335938 0,0.09375 -0.01172,0.1171875 -0.05859,0.234375 L 10.319859,-0.86773437 9.2182969,-3.5513281 c -0.046875,-0.09375 -0.058594,-0.140625 -0.058594,-0.1757813 0,-0.2578125 0.3632813,-0.2578125 0.5507813,-0.2578125 v -0.3046875 l -1.078125,0.023437 c -0.2695313,0 -0.6679688,-0.011719 -0.9726563,-0.023437 v 0.3046875 c 0.4804688,0 0.6679688,0 0.8085938,0.3515625 l 1.5,3.632812525 L 9.7104844,0.58539063 C 9.4995469,1.1361719 9.2182969,1.8275781 8.5737656,1.8275781 c -0.046875,0 -0.2695312,0 -0.46875,-0.1875 0.3164063,-0.035156 0.3984375,-0.2578125 0.3984375,-0.4101562 0,-0.26953127 -0.1992187,-0.42187502 -0.421875,-0.42187502 -0.1992187,0 -0.421875,0.12890625 -0.421875,0.42187502 0,0.4570312 0.421875,0.8085937 0.9140625,0.8085937 0.6328125,0 1.0429688,-0.5625 1.2773438,-1.13671872 L 11.608922,-3.3521094 c 0.257812,-0.6210937 0.761719,-0.6328125 0.925781,-0.6328125 z m 4.054688,2.8007813 c 0,-0.1054688 -0.08203,-0.1171875 -0.128907,-0.1171875 -0.09375,0 -0.117187,0.058594 -0.128906,0.140625 -0.351562,1.01953123 -1.253906,1.01953123 -1.347656,1.01953123 -0.503906,0 -0.902344,-0.29296875 -1.125,-0.66796875 C 13.554234,-1.2896094 13.554234,-1.9458594 13.554234,-2.2974219 h 2.789063 c 0.210937,0 0.246094,0 0.246094,-0.2109375 0,-0.984375 -0.539063,-1.9570312 -1.78125,-1.9570312 -1.160157,0 -2.074219,1.03125 -2.074219,2.2734375 0,1.33593748 1.042969,2.29687498 2.191406,2.29687498 1.21875,0 1.664063,-1.1015625 1.664063,-1.28906248 z m -0.65625,-1.3242188 h -2.367188 c 0.05859,-1.4882812 0.902344,-1.734375 1.242188,-1.734375 1.019531,0 1.125,1.3476563 1.125,1.734375 z m 4.564453,-1.2890625 c 0,-0.3164062 -0.304688,-0.609375 -0.726563,-0.609375 -0.738281,0 -1.089843,0.6679688 -1.230468,1.1015625 v -1.1015625 l -1.382813,0.1171875 v 0.3046875 c 0.691406,0 0.773438,0.070312 0.773438,0.5625 v 2.66015628 c 0,0.45703125 -0.105469,0.45703125 -0.773438,0.45703125 v 0.304687495 l 1.136719,-0.035156245 c 0.398437,0 0.867187,0 1.265625,0.035156245 V -0.30523437 h -0.210938 c -0.738281,0 -0.761718,-0.1171875 -0.761718,-0.46875 V -2.3091406 c 0,-0.984375 0.421875,-1.875 1.183593,-1.875 0.05859,0 0.08203,0 0.105469,0.011719 -0.03516,0.011719 -0.234375,0.1289063 -0.234375,0.3867188 0,0.28125 0.210938,0.4335937 0.433594,0.4335937 0.175781,0 0.421875,-0.1289062 0.421875,-0.4453128 z m 0,0"
       style="fill:#000000;fill-opacity:1;fill-rule:nonzero;stroke:none"
       aria-label="layer"
       transform="matrix(1.3333333,0,0,1.3333333,78.248,29.586667)" />
    <path
       id="path80"
       d="m 7.1826406,-3.3752734 c 0,-2.0390625 -1.5,-3.6445313 -3.3164062,-3.6445313 -1.78125,0 -3.30468752,1.59375 -3.30468752,3.6445313 0,2.0390625 1.53515622,3.59765621 3.30468752,3.59765621 1.8164062,0 3.3164062,-1.58203121 3.3164062,-3.59765621 z m -1.03125,-0.140625 c 0,2.63671871 -1.359375,3.48046871 -2.2734375,3.48046871 -0.9609375,0 -2.296875,-0.87890625 -2.296875,-3.48046871 0,-2.578125 1.453125,-3.2578125 2.2851563,-3.2578125 0.8671875,0 2.2851562,0.703125 2.2851562,3.2578125 z M 13.083031,-2.734375e-4 V -0.30496094 c -0.703125,0 -0.785156,-0.0703125 -0.785156,-0.5625 V -4.4065234 l -1.453125,0.1171875 v 0.3046875 c 0.691406,0 0.773438,0.070312 0.773438,0.5625 v 1.7695312 c 0,0.86718751 -0.480469,1.54687501 -1.207032,1.54687501 -0.832031,0 -0.878906,-0.46875 -0.878906,-0.99609371 v -3.3046875 l -1.4648437,0.1171875 v 0.3046875 c 0.7851562,0 0.7851562,0.035156 0.7851562,0.9140625 v 1.5 c 0,0.77343746 0,1.67578121 1.5117185,1.67578121 0.550782,0 0.996094,-0.26953125 1.277344,-0.890625 v 0.890625 z M 16.595727,-1.2307422 v -0.5742187 h -0.246094 v 0.5507812 c 0,0.73828126 -0.304688,1.11328126 -0.667969,1.11328126 -0.667969,0 -0.667969,-0.90234376 -0.667969,-1.07812496 v -2.765625 h 1.429688 v -0.3046875 h -1.429688 v -1.8398438 h -0.246093 c -0.01172,0.8203125 -0.316407,1.8867188 -1.289063,1.921875 v 0.2226563 h 0.84375 v 2.7539062 c 0,1.21875001 0.925781,1.33593751 1.289063,1.33593751 0.703125,0 0.984375,-0.703125 0.984375,-1.33593751 z m 5.762695,-0.9257812 c 0,-1.265625 -0.972656,-2.25 -2.085938,-2.25 -0.773437,0 -1.195312,0.4453125 -1.394531,0.65625 v -0.65625 l -1.429687,0.1171875 v 0.3046875 c 0.703125,0 0.773437,0.058594 0.773437,0.4921875 v 4.6640625 c 0,0.4570312 -0.105469,0.4570312 -0.773437,0.4570312 v 0.3046875 l 1.113281,-0.035156 1.125,0.035156 V 1.6286328 c -0.667969,0 -0.773438,0 -0.773438,-0.4570312 v -1.75781254 c 0.04687,0.15234375 0.46875,0.69140625 1.21875,0.69140625 1.183594,0 2.226563,-0.97265625 2.226563,-2.26171871 z m -0.832031,0 c 0,1.20703121 -0.691407,2.05078121 -1.429688,2.05078121 -0.398437,0 -0.773437,-0.19921875 -1.042969,-0.609375 -0.140625,-0.2109375 -0.140625,-0.22265625 -0.140625,-0.42187501 v -2.2148437 c 0.28125,-0.515625 0.773438,-0.796875 1.277344,-0.796875 0.726563,0 1.335938,0.8671875 1.335938,1.9921875 z m 6.509765,2.1562499625 V -0.30496094 c -0.703125,0 -0.785156,-0.0703125 -0.785156,-0.5625 V -4.4065234 l -1.453125,0.1171875 v 0.3046875 c 0.691406,0 0.773438,0.070312 0.773438,0.5625 v 1.7695312 c 0,0.86718751 -0.480469,1.54687501 -1.207032,1.54687501 -0.832031,0 -0.878906,-0.46875 -0.878906,-0.99609371 v -3.3046875 l -1.464844,0.1171875 v 0.3046875 c 0.785157,0 0.785157,0.035156 0.785157,0.9140625 v 1.5 c 0,0.77343746 0,1.67578121 1.511718,1.67578121 0.550782,0 0.996094,-0.26953125 1.277344,-0.890625 v 0.890625 z M 31.548852,-1.2307422 v -0.5742187 h -0.246094 v 0.5507812 c 0,0.73828126 -0.304688,1.11328126 -0.667969,1.11328126 -0.667969,0 -0.667969,-0.90234376 -0.667969,-1.07812496 v -2.765625 h 1.429688 V -4.2893359 H 29.96682 v -1.8398438 h -0.246093 c -0.01172,0.8203125 -0.316407,1.8867188 -1.289063,1.921875 v 0.2226563 h 0.84375 v 2.7539062 c 0,1.21875001 0.925781,1.33593751 1.289063,1.33593751 0.703125,0 0.984375,-0.703125 0.984375,-1.33593751 z m 0,0"
       style="fill:#000000;fill-opacity:1;fill-rule:nonzero;stroke:none"
       aria-label="Output"
       transform="matrix(1.3333333,0,0,1.3333333,259.66533,13.793333)" />
    <path
       id="path81"
       d="m 2.5419609,7.8125e-4 v -0.3046875 c -0.6679687,0 -0.7851562,0 -0.7851562,-0.45703125 v -6.1523438 l -1.42968751,0.1054688 v 0.3164062 c 0.70312501,0 0.77343751,0.070312 0.77343751,0.5507813 v 5.1796875 c 0,0.45703125 -0.10546876,0.45703125 -0.77343751,0.45703125 V 7.8125e-4 L 1.4286797,-0.034375 Z m 5.0449219,-0.890625 V -1.440625 H 7.3290703 v 0.55078125 c 0,0.5859375 -0.2460937,0.64453125 -0.3515625,0.64453125 -0.328125,0 -0.375,-0.45703125 -0.375,-0.50390625 V -2.7414063 c 0,-0.4101562 0,-0.8085937 -0.3515625,-1.171875 C 5.8642266,-4.3 5.3603203,-4.4640625 4.8798516,-4.4640625 c -0.8085938,0 -1.5,0.46875 -1.5,1.125 0,0.3046875 0.1992187,0.46875 0.4570312,0.46875 0.28125,0 0.4570313,-0.1992188 0.4570313,-0.4570313 0,-0.1171875 -0.046875,-0.4453125 -0.5039063,-0.4570312 0.2695313,-0.3515625 0.75,-0.4570313 1.078125,-0.4570313 0.4804688,0 1.0546875,0.3867188 1.0546875,1.2773438 v 0.3632812 c -0.515625,0.035156 -1.2070312,0.058594 -1.8398437,0.3632813 -0.75,0.3398437 -0.9960938,0.8554687 -0.9960938,1.2890625 0,0.80859375 0.9726563,1.0546875 1.59375,1.0546875 0.65625,0 1.1132813,-0.3984375 1.3125,-0.8671875 0.035156,0.3984375 0.3046875,0.8203125 0.7734375,0.8203125 0.2109375,0 0.8203125,-0.140625 0.8203125,-0.94921875 z M 5.9228203,-1.39375 c 0,0.94921875 -0.7265625,1.2890625 -1.171875,1.2890625 -0.4804687,0 -0.890625,-0.3515625 -0.890625,-0.85546875 0,-0.53906255 0.4101563,-1.37109375 2.0625,-1.42968755 z m 6.6123047,-2.5898438 v -0.3046875 c -0.234375,0.011719 -0.515625,0.023437 -0.75,0.023437 l -0.867188,-0.023437 v 0.3046875 c 0.304688,0.011719 0.46875,0.1757813 0.46875,0.4335938 0,0.09375 -0.01172,0.1171875 -0.05859,0.234375 L 10.320281,-0.86640625 9.2187187,-3.55 c -0.046875,-0.09375 -0.058594,-0.140625 -0.058594,-0.1757813 0,-0.2578125 0.3632812,-0.2578125 0.5507812,-0.2578125 v -0.3046875 l -1.078125,0.023437 c -0.2695312,0 -0.6679687,-0.011719 -0.9726562,-0.023437 v 0.3046875 c 0.4804687,0 0.6679687,0 0.8085937,0.3515625 l 1.5,3.63281255 -0.2578125,0.5859375 C 9.4999687,1.1375 9.2187187,1.8289062 8.5741875,1.8289062 c -0.046875,0 -0.2695313,0 -0.46875,-0.1875 C 8.4218437,1.60625 8.503875,1.3835937 8.503875,1.23125 8.503875,0.96171875 8.3046562,0.809375 8.082,0.809375 c -0.1992188,0 -0.421875,0.12890625 -0.421875,0.421875 0,0.4570312 0.421875,0.8085937 0.9140625,0.8085937 0.6328125,0 1.0429687,-0.5625 1.2773437,-1.1367187 l 1.7578128,-4.2539063 c 0.257812,-0.6210937 0.761718,-0.6328125 0.925781,-0.6328125 z m 4.054687,2.8007813 C 16.589812,-1.2882813 16.507781,-1.3 16.460906,-1.3 c -0.09375,0 -0.117187,0.058594 -0.128906,0.140625 -0.351563,1.01953125 -1.253906,1.01953125 -1.347656,1.01953125 -0.503907,0 -0.902344,-0.29296875 -1.125,-0.66796875 -0.304688,-0.4804688 -0.304688,-1.1367188 -0.304688,-1.4882813 h 2.789063 c 0.210937,0 0.246093,0 0.246093,-0.2109375 0,-0.984375 -0.539062,-1.9570312 -1.78125,-1.9570312 -1.160156,0 -2.074218,1.03125 -2.074218,2.2734375 0,1.3359375 1.042968,2.296875 2.191406,2.296875 1.21875,0 1.664062,-1.1015625 1.664062,-1.2890625 z m -0.65625,-1.3242188 h -2.367187 c 0.05859,-1.4882812 0.902344,-1.734375 1.242187,-1.734375 1.019532,0 1.125,1.3476563 1.125,1.734375 z m 4.564454,-1.2890625 c 0,-0.3164062 -0.304688,-0.609375 -0.726563,-0.609375 -0.738281,0 -1.089844,0.6679688 -1.230469,1.1015625 v -1.1015625 l -1.382812,0.1171875 v 0.3046875 c 0.691406,0 0.773437,0.070312 0.773437,0.5625 v 2.6601563 c 0,0.45703125 -0.105468,0.45703125 -0.773437,0.45703125 V 7.8125e-4 L 18.294891,-0.034375 c 0.398437,0 0.867187,0 1.265625,0.03515625 v -0.3046875 h -0.210938 c -0.738281,0 -0.761719,-0.1171875 -0.761719,-0.46875 V -2.3078125 c 0,-0.984375 0.421875,-1.875 1.183594,-1.875 0.05859,0 0.08203,0 0.105469,0.011719 -0.03516,0.011719 -0.234375,0.1289063 -0.234375,0.3867188 0,0.28125 0.210937,0.4335937 0.433594,0.4335937 0.175781,0 0.421875,-0.1289062 0.421875,-0.4453128 z m 0,0"
       style="fill:#000000;fill-opacity:1;fill-rule:nonzero;stroke:none"
       aria-label="layer"
       transform="matrix(1.3333333,0,0,1.3333333,267.224,29.733333)" />
  </g>
</svg>
